<svg width="28" height="28" viewBox="0 0 28 28" fill="none" xmlns="http://www.w3.org/2000/svg">
<path d="M14.0407 15.2197L5.98291 23.2733L14.4394 27.9998L22.0963 23.2733L14.0407 15.2197ZM14.0407 24.3475C12.7849 24.3475 11.7662 23.6436 11.7662 22.7754C11.7662 21.9073 12.7849 21.2027 14.0407 21.2027C15.2965 21.2027 16.3117 21.9038 16.3117 22.772C16.3117 23.6402 15.2965 24.344 14.0407 24.344V24.3475Z" fill="white"/>
<path d="M14.0407 12.7835L5.98291 4.72648L14.4429 0L22.0998 4.72648L14.0407 12.7835ZM14.0407 3.65581C12.7849 3.65581 11.7662 4.35965 11.7662 5.22784C11.7662 6.09602 12.7849 6.79986 14.0407 6.79986C15.2965 6.79986 16.3117 6.09602 16.3117 5.22784C16.3117 4.35965 15.2965 3.65581 14.0407 3.65581Z" fill="white"/>
<path d="M15.1897 13.9582L23.2461 22.0145L27.9726 13.5546L23.2461 5.90039L15.1897 13.9582ZM24.3174 13.9582C24.3174 15.214 23.6136 16.2319 22.7454 16.2319C21.8772 16.2319 21.1734 15.214 21.1734 13.9582C21.1734 12.7023 21.8772 11.6823 22.7454 11.6823C23.6136 11.6823 24.3174 12.7023 24.3174 13.9582Z" fill="white"/>
<path d="M12.7835 13.959L4.72648 22.0153L0 13.5554L4.72648 5.89844L12.7835 13.959ZM3.65581 13.959C3.65581 15.2148 4.35965 16.2328 5.22784 16.2328C6.09602 16.2328 6.79986 15.2148 6.79986 13.959C6.79986 12.7032 6.09602 11.6831 5.22784 11.6831C4.35965 11.6831 3.65581 12.7032 3.65581 13.959Z" fill="white"/>
</svg>
