<svg width="24" height="24" viewBox="0 0 24 24" fill="none" xmlns="http://www.w3.org/2000/svg">
<path fill-rule="evenodd" clip-rule="evenodd" d="M11.2908 14.787C11.2995 14.7976 11.31 14.8072 11.3196 14.8168C11.4012 14.9003 11.4953 14.9646 11.5961 15.0116L11.598 15.0126C11.6153 15.0203 11.6326 15.028 11.6508 15.0347C11.7497 15.0731 11.8553 15.0961 11.9676 15.1H11.9705C11.9782 15.1009 11.9868 15.1009 11.9945 15.1009H12.0003C12.0147 15.1009 12.0291 15.1 12.0425 15.1H12.0444C12.1567 15.0942 12.2643 15.0702 12.3641 15.0289C12.3804 15.0232 12.3977 15.0155 12.414 15.0068H12.4159C12.5119 14.9608 12.6012 14.8974 12.6799 14.8187C12.6905 14.8081 12.7011 14.7976 12.7107 14.787L16.1465 11.0881C16.5075 10.7003 16.4854 10.0926 16.0966 9.73164C15.7087 9.37068 15.1011 9.39372 14.7401 9.78156L12.9603 11.6968V4.08012C12.9603 3.54924 12.5311 3.12012 12.0003 3.12012C11.4703 3.12012 11.0403 3.54924 11.0403 4.08012V11.6968L9.26042 9.78156C8.89946 9.39276 8.29178 9.36972 7.90394 9.73164C7.51514 10.0926 7.49306 10.7003 7.85402 11.0881L11.2908 14.787Z" fill="#0473FB"/>
<path fill-rule="evenodd" clip-rule="evenodd" d="M19.6799 13.7178C19.1499 13.7178 18.7199 14.1479 18.7199 14.6778V16.2618C18.7199 17.4848 17.7253 18.4794 16.5023 18.4794H7.49842C6.27538 18.4794 5.27986 17.4848 5.27986 16.2618V14.6778C5.27986 14.1479 4.85074 13.7178 4.31986 13.7178C3.78994 13.7178 3.35986 14.1479 3.35986 14.6778V16.2618C3.35986 18.5427 5.2165 20.3994 7.49842 20.3994H16.5023C18.7832 20.3994 20.6399 18.5427 20.6399 16.2618V14.6778C20.6399 14.1479 20.2098 13.7178 19.6799 13.7178Z" fill="#0473FB"/>
</svg>
