<svg width="16" height="16" viewBox="0 0 16 16" fill="none" xmlns="http://www.w3.org/2000/svg">
<path d="M8.00022 15.1671C4.53355 15.1671 1.72021 12.3471 1.72021 8.88708C1.72021 7.64042 2.08688 6.43375 2.78022 5.39375C2.93355 5.16708 3.24688 5.10042 3.47355 5.25375C3.70021 5.40708 3.76688 5.72042 3.61355 5.94708C3.03355 6.81375 2.72688 7.83375 2.72688 8.88042C2.72688 11.7937 5.09355 14.1604 8.00688 14.1604C10.9202 14.1604 13.2869 11.7937 13.2869 8.88042C13.2869 5.96708 10.9135 3.60042 8.00022 3.60042C7.38688 3.60042 6.78688 3.68708 6.22021 3.86042C5.95355 3.94042 5.67355 3.79375 5.59355 3.52708C5.51355 3.26042 5.66022 2.98042 5.92688 2.90042C6.59355 2.70042 7.28688 2.59375 8.00022 2.59375C11.4669 2.59375 14.2802 5.41375 14.2802 8.87375C14.2802 12.3338 11.4669 15.1671 8.00022 15.1671Z" fill="#767CC6"/>
<path d="M5.24674 4.04707C5.13341 4.04707 5.01341 4.00707 4.92008 3.92707C4.70674 3.74041 4.68674 3.42707 4.86674 3.22041L6.79341 1.00707C6.97341 0.800406 7.29341 0.773739 7.50008 0.960406C7.70674 1.14041 7.72674 1.46041 7.54674 1.66707L5.62008 3.87374C5.52008 3.98707 5.38008 4.04707 5.24674 4.04707Z" fill="#767CC6"/>
<path d="M7.49338 5.68708C7.39338 5.68708 7.28672 5.65374 7.20005 5.59374L4.94672 3.94708C4.72672 3.78708 4.68005 3.47374 4.84005 3.25374C5.00005 3.02708 5.31338 2.98041 5.54005 3.14041L7.78672 4.78041C8.00672 4.94041 8.06005 5.25374 7.89338 5.48041C7.80005 5.62041 7.64672 5.68708 7.49338 5.68708Z" fill="#767CC6"/>
</svg>
