<svg width="24" height="24" viewBox="0 0 24 24" fill="none" xmlns="http://www.w3.org/2000/svg">
<path d="M11.9999 18.5C15.5897 18.5 18.4999 15.5899 18.4999 12C18.4999 8.41015 15.5897 5.5 11.9999 5.5C8.41003 5.5 5.49988 8.41015 5.49988 12C5.49988 15.5899 8.41003 18.5 11.9999 18.5Z" stroke="white" stroke-width="1.5" stroke-linecap="round" stroke-linejoin="round"/>
<path d="M19.1399 19.14L19.0099 19.01M19.0099 4.99L19.1399 4.86L19.0099 4.99ZM4.85988 19.14L4.98988 19.01L4.85988 19.14ZM11.9999 2.08V2V2.08ZM11.9999 22V21.92V22ZM2.07988 12H1.99988H2.07988ZM21.9999 12H21.9199H21.9999ZM4.98988 4.99L4.85988 4.86L4.98988 4.99Z" stroke="white" stroke-width="2" stroke-linecap="round" stroke-linejoin="round"/>
</svg>
