<svg width="24" height="24" viewBox="0 0 24 24" fill="none" xmlns="http://www.w3.org/2000/svg">
<path fill-rule="evenodd" clip-rule="evenodd" d="M5.04011 11.7598C4.90783 11.7598 4.80011 11.8675 4.80011 11.9998C4.80011 12.1321 4.90783 12.2398 5.04011 12.2398C5.17239 12.2398 5.28011 12.1321 5.28011 11.9998C5.28011 11.8675 5.17239 11.7598 5.04011 11.7598ZM3.36011 11.9998C3.36011 11.0723 4.11255 10.3198 5.04011 10.3198C5.96767 10.3198 6.72011 11.0723 6.72011 11.9998C6.72011 12.9274 5.96767 13.6798 5.04011 13.6798C4.11255 13.6798 3.36011 12.9274 3.36011 11.9998Z" fill="#ACB0DC"/>
<path fill-rule="evenodd" clip-rule="evenodd" d="M11.7601 11.7598C11.6278 11.7598 11.5201 11.8675 11.5201 11.9998C11.5201 12.1321 11.6278 12.2398 11.7601 12.2398C11.8924 12.2398 12.0001 12.1321 12.0001 11.9998C12.0001 11.8675 11.8924 11.7598 11.7601 11.7598ZM10.0801 11.9998C10.0801 11.0723 10.8325 10.3198 11.7601 10.3198C12.6876 10.3198 13.4401 11.0723 13.4401 11.9998C13.4401 12.9274 12.6876 13.6798 11.7601 13.6798C10.8325 13.6798 10.0801 12.9274 10.0801 11.9998Z" fill="#ACB0DC"/>
<path fill-rule="evenodd" clip-rule="evenodd" d="M18.48 11.7598C18.3478 11.7598 18.24 11.8675 18.24 11.9998C18.24 12.1321 18.3478 12.2398 18.48 12.2398C18.6123 12.2398 18.72 12.1321 18.72 11.9998C18.72 11.8675 18.6123 11.7598 18.48 11.7598ZM16.8 11.9998C16.8 11.0723 17.5525 10.3198 18.48 10.3198C19.4076 10.3198 20.16 11.0723 20.16 11.9998C20.16 12.9274 19.4076 13.6798 18.48 13.6798C17.5525 13.6798 16.8 12.9274 16.8 11.9998Z" fill="#ACB0DC"/>
</svg>
