<svg width="18" height="17" viewBox="0 0 18 17" fill="none" xmlns="http://www.w3.org/2000/svg">
<path d="M17.0453 4.7613C17.0067 3.8997 16.8685 3.31137 16.6692 2.79377C16.4635 2.26009 16.1838 1.81 15.7338 1.35991C15.2838 0.909823 14.8306 0.63334 14.3003 0.42437C13.786 0.225045 13.1978 0.0868029 12.3331 0.0482239C11.4717 0.00964477 11.1953 0 8.99669 0C6.79812 0 6.52169 0.00964477 5.65705 0.0482239C4.79562 0.0868029 4.2074 0.225045 3.69312 0.42437C3.15955 0.630125 2.70955 0.909823 2.25955 1.35991C1.80955 1.81 1.53312 2.26331 1.32419 2.79377C1.1249 3.30816 0.986688 3.89649 0.948117 4.7613C0.909545 5.6229 0.899902 5.89938 0.899902 8.09839C0.899902 10.2974 0.909545 10.5739 0.948117 11.4387C0.986688 12.3003 1.1249 12.8886 1.32419 13.4062C1.5299 13.9399 1.80955 14.39 2.25955 14.8401C2.70955 15.2902 3.16276 15.5667 3.69312 15.7756C4.2074 15.975 4.79562 16.1132 5.66026 16.1518C6.5249 16.1904 6.79812 16.2 8.9999 16.2C11.2017 16.2 11.4749 16.1904 12.3395 16.1518C13.201 16.1132 13.7892 15.975 14.3067 15.7756C14.8403 15.5699 15.2903 15.2902 15.7403 14.8401C16.1903 14.39 16.4667 13.9367 16.6756 13.4062C16.8749 12.8918 17.0131 12.3035 17.0517 11.4387C17.0903 10.5739 17.0999 10.3006 17.0999 8.09839C17.0999 5.89617 17.087 5.6229 17.0453 4.7613ZM15.5892 11.3712C15.5538 12.1621 15.422 12.5896 15.3095 12.8758C15.1617 13.2551 14.9881 13.5252 14.7053 13.8081C14.4224 14.091 14.1524 14.2678 13.7731 14.4125C13.487 14.5218 13.0595 14.6568 12.2688 14.6922C11.4138 14.7308 11.1599 14.7404 8.99669 14.7404C6.83347 14.7404 6.57955 14.7308 5.72455 14.6922C4.93383 14.6568 4.50633 14.525 4.22026 14.4125C3.84097 14.2646 3.57097 14.091 3.28812 13.8081C3.00526 13.5252 2.82847 13.2551 2.68383 12.8758C2.57455 12.5896 2.43955 12.1621 2.40419 11.3712C2.36562 10.516 2.35597 10.262 2.35597 8.09839C2.35597 5.93475 2.36562 5.68077 2.40419 4.8256C2.43955 4.03473 2.57133 3.60714 2.68383 3.32102C2.83169 2.94166 3.00526 2.6716 3.28812 2.38869C3.57097 2.10578 3.84097 1.92895 4.22026 1.78428C4.50633 1.67498 4.93383 1.53995 5.72455 1.50458C6.57955 1.46601 6.83347 1.45636 8.99669 1.45636C11.1599 1.45636 11.4138 1.46601 12.2688 1.50458C13.0595 1.53995 13.487 1.67176 13.7731 1.78428C14.1524 1.93217 14.4224 2.10578 14.7053 2.38869C14.9881 2.6716 15.1649 2.94166 15.3095 3.32102C15.4188 3.60714 15.5538 4.03473 15.5892 4.8256C15.6278 5.68077 15.6374 5.93475 15.6374 8.09839C15.6374 10.262 15.6278 10.5192 15.5892 11.3712ZM8.99669 3.9415C6.70169 3.9415 4.8374 5.80294 4.8374 8.10161C4.8374 10.4003 6.69847 12.2617 8.99669 12.2617C11.2949 12.2617 13.156 10.4003 13.156 8.10161C13.156 5.80294 11.2949 3.9415 8.99669 3.9415ZM8.99669 10.7989C7.50526 10.7989 6.29669 9.59012 6.29669 8.09839C6.29669 6.60667 7.50526 5.39786 8.99669 5.39786C10.4881 5.39786 11.6967 6.60667 11.6967 8.09839C11.6967 9.59012 10.4881 10.7989 8.99669 10.7989ZM14.2906 3.77432C14.2906 4.31121 13.8567 4.74523 13.3199 4.74523C12.7831 4.74523 12.3492 4.31121 12.3492 3.77432C12.3492 3.23743 12.7831 2.80341 13.3199 2.80341C13.8567 2.80341 14.2906 3.23743 14.2906 3.77432Z" fill="#F5F6FF"/>
</svg>
