<svg width="24" height="24" viewBox="0 0 24 24" fill="none" xmlns="http://www.w3.org/2000/svg">
<path fill-rule="evenodd" clip-rule="evenodd" d="M11.7599 4.07989C7.38546 4.07989 3.8399 7.62545 3.8399 11.9999C3.8399 16.3735 7.38552 19.9199 11.7599 19.9199C16.1343 19.9199 19.6799 16.3735 19.6799 11.9999C19.6799 7.62545 16.1343 4.07989 11.7599 4.07989ZM2.3999 11.9999C2.3999 6.83017 6.59018 2.63989 11.7599 2.63989C16.9296 2.63989 21.1199 6.83017 21.1199 11.9999C21.1199 17.1686 16.9297 21.3599 11.7599 21.3599C6.59012 21.3599 2.3999 17.1686 2.3999 11.9999Z" fill="#CDD0FE"/>
<path fill-rule="evenodd" clip-rule="evenodd" d="M11.4451 7.99316C11.8427 7.99316 12.1651 8.31552 12.1651 8.71316V12.2389L14.8622 13.8507C15.2036 14.0547 15.315 14.4968 15.111 14.8382C14.907 15.1795 14.4649 15.2908 14.1235 15.0868L11.0757 13.2654C10.8582 13.1354 10.7251 12.9008 10.7251 12.6474V8.71316C10.7251 8.31552 11.0475 7.99316 11.4451 7.99316Z" fill="#CDD0FE"/>
</svg>
