<svg width="16" height="17" viewBox="0 0 16 17" fill="none" xmlns="http://www.w3.org/2000/svg">
<path d="M7.99992 15.6663C4.04659 15.6663 0.833252 12.453 0.833252 8.49967C0.833252 4.54634 4.04659 1.33301 7.99992 1.33301C11.9533 1.33301 15.1666 4.54634 15.1666 8.49967C15.1666 12.453 11.9533 15.6663 7.99992 15.6663ZM7.99992 2.33301C4.59992 2.33301 1.83325 5.09967 1.83325 8.49967C1.83325 11.8997 4.59992 14.6663 7.99992 14.6663C11.3999 14.6663 14.1666 11.8997 14.1666 8.49967C14.1666 5.09967 11.3999 2.33301 7.99992 2.33301Z" fill="#16A34A"/>
<path d="M7.05321 10.8867C6.91988 10.8867 6.79321 10.8334 6.69988 10.7401L4.81321 8.8534C4.61988 8.66006 4.61988 8.34007 4.81321 8.14673C5.00655 7.9534 5.32655 7.9534 5.51988 8.14673L7.05321 9.68007L10.4799 6.2534C10.6732 6.06007 10.9932 6.06007 11.1865 6.2534C11.3799 6.44673 11.3799 6.76673 11.1865 6.96006L7.40655 10.7401C7.31321 10.8334 7.18655 10.8867 7.05321 10.8867Z" fill="#16A34A"/>
</svg>
