<svg width="16" height="17" viewBox="0 0 16 17" fill="none" xmlns="http://www.w3.org/2000/svg">
<path d="M5.3335 4.33301C5.06016 4.33301 4.8335 4.10634 4.8335 3.83301V1.83301C4.8335 1.55967 5.06016 1.33301 5.3335 1.33301C5.60683 1.33301 5.8335 1.55967 5.8335 1.83301V3.83301C5.8335 4.10634 5.60683 4.33301 5.3335 4.33301Z" fill="#9333EA"/>
<path d="M10.6665 4.33301C10.3932 4.33301 10.1665 4.10634 10.1665 3.83301V1.83301C10.1665 1.55967 10.3932 1.33301 10.6665 1.33301C10.9398 1.33301 11.1665 1.55967 11.1665 1.83301V3.83301C11.1665 4.10634 10.9398 4.33301 10.6665 4.33301Z" fill="#9333EA"/>
<path d="M13.6668 7.05957H2.3335C2.06016 7.05957 1.8335 6.8329 1.8335 6.55957C1.8335 6.28624 2.06016 6.05957 2.3335 6.05957H13.6668C13.9402 6.05957 14.1668 6.28624 14.1668 6.55957C14.1668 6.8329 13.9402 7.05957 13.6668 7.05957Z" fill="#9333EA"/>
<path d="M10.6667 15.6663H5.33333C2.9 15.6663 1.5 14.2663 1.5 11.833V6.16634C1.5 3.73301 2.9 2.33301 5.33333 2.33301H10.6667C13.1 2.33301 14.5 3.73301 14.5 6.16634V11.833C14.5 14.2663 13.1 15.6663 10.6667 15.6663ZM5.33333 3.33301C3.42667 3.33301 2.5 4.25967 2.5 6.16634V11.833C2.5 13.7397 3.42667 14.6663 5.33333 14.6663H10.6667C12.5733 14.6663 13.5 13.7397 13.5 11.833V6.16634C13.5 4.25967 12.5733 3.33301 10.6667 3.33301H5.33333Z" fill="#9333EA"/>
<path d="M5.66667 10.1663C5.58 10.1663 5.49333 10.1464 5.41333 10.113C5.33333 10.0797 5.26001 10.033 5.19334 9.97301C5.13334 9.90634 5.08666 9.83302 5.05332 9.75302C5.01999 9.67302 5 9.58635 5 9.49968C5 9.32635 5.07334 9.15302 5.19334 9.02635C5.26001 8.96635 5.33333 8.91967 5.41333 8.88634C5.53333 8.83301 5.66667 8.81967 5.80001 8.84634C5.84001 8.85301 5.88 8.86634 5.92 8.88634C5.96 8.89967 6 8.91969 6.04 8.94636C6.07333 8.97302 6.10666 8.99969 6.13999 9.02635C6.16666 9.05969 6.19999 9.09302 6.21999 9.12635C6.24666 9.16635 6.26668 9.20635 6.28001 9.24635C6.30001 9.28635 6.31334 9.32634 6.32001 9.36634C6.32667 9.41301 6.33333 9.45302 6.33333 9.49968C6.33333 9.67302 6.25999 9.84634 6.13999 9.97301C6.01333 10.093 5.84 10.1663 5.66667 10.1663Z" fill="#9333EA"/>
<path d="M8.00016 10.1666C7.82683 10.1666 7.6535 10.0932 7.52684 9.97324C7.50017 9.93991 7.47351 9.90658 7.44684 9.87325C7.42017 9.83325 7.40015 9.79325 7.38682 9.75325C7.36682 9.71325 7.35349 9.67326 7.34682 9.63326C7.34016 9.58659 7.3335 9.54658 7.3335 9.49992C7.3335 9.41325 7.35349 9.32658 7.38682 9.24658C7.42015 9.16658 7.46684 9.09325 7.52684 9.02659C7.7135 8.83992 8.0135 8.77991 8.2535 8.88657C8.34017 8.91991 8.40682 8.96659 8.47349 9.02659C8.59349 9.15325 8.66683 9.32658 8.66683 9.49992C8.66683 9.54658 8.66017 9.58659 8.6535 9.63326C8.64684 9.67326 8.63351 9.71325 8.61351 9.75325C8.60017 9.79325 8.58015 9.83325 8.55349 9.87325C8.52682 9.90658 8.50016 9.93991 8.47349 9.97324C8.40682 10.0332 8.34017 10.0799 8.2535 10.1133C8.1735 10.1466 8.08683 10.1666 8.00016 10.1666Z" fill="#9333EA"/>
<path d="M5.66667 12.4996C5.58 12.4996 5.49333 12.4796 5.41333 12.4463C5.33333 12.4129 5.26001 12.3663 5.19334 12.3063C5.13334 12.2396 5.08666 12.1729 5.05332 12.0863C5.01999 12.0063 5 11.9196 5 11.8329C5 11.6596 5.07334 11.4863 5.19334 11.3596C5.26001 11.2996 5.33333 11.2529 5.41333 11.2196C5.66 11.1129 5.95333 11.1729 6.13999 11.3596C6.16666 11.3929 6.19999 11.4263 6.21999 11.4596C6.24666 11.4996 6.26668 11.5396 6.28001 11.5796C6.30001 11.6196 6.31334 11.6596 6.32001 11.7063C6.32667 11.7463 6.33333 11.7929 6.33333 11.8329C6.33333 12.0063 6.25999 12.1796 6.13999 12.3063C6.01333 12.4263 5.84 12.4996 5.66667 12.4996Z" fill="#9333EA"/>
</svg>
