<svg width="16" height="17" viewBox="0 0 16 17" fill="none" xmlns="http://www.w3.org/2000/svg">
<path d="M7.99992 15.6663C4.04659 15.6663 0.833252 12.453 0.833252 8.49967C0.833252 4.54634 4.04659 1.33301 7.99992 1.33301C11.9533 1.33301 15.1666 4.54634 15.1666 8.49967C15.1666 12.453 11.9533 15.6663 7.99992 15.6663ZM7.99992 2.33301C4.59992 2.33301 1.83325 5.09967 1.83325 8.49967C1.83325 11.8997 4.59992 14.6663 7.99992 14.6663C11.3999 14.6663 14.1666 11.8997 14.1666 8.49967C14.1666 5.09967 11.3999 2.33301 7.99992 2.33301Z" fill="#EAB308"/>
<path d="M10.4733 11.1202C10.3867 11.1202 10.3 11.1002 10.22 11.0468L8.15334 9.8135C7.64001 9.50684 7.26001 8.8335 7.26001 8.24017V5.50684C7.26001 5.2335 7.48668 5.00684 7.76001 5.00684C8.03334 5.00684 8.26001 5.2335 8.26001 5.50684V8.24017C8.26001 8.48017 8.46001 8.8335 8.66668 8.9535L10.7333 10.1868C10.9733 10.3268 11.0467 10.6335 10.9067 10.8735C10.8067 11.0335 10.64 11.1202 10.4733 11.1202Z" fill="#EAB308"/>
</svg>
