<svg width="24" height="24" viewBox="0 0 24 24" fill="none" xmlns="http://www.w3.org/2000/svg">
<path fill-rule="evenodd" clip-rule="evenodd" d="M17.6453 4.07965C16.6111 4.07965 15.7734 4.91737 15.7734 5.95162C15.7734 6.98587 16.6111 7.82359 17.6453 7.82359C18.6796 7.82359 19.5173 6.98587 19.5173 5.95162C19.5173 4.91737 18.6796 4.07965 17.6453 4.07965ZM14.3334 5.95162C14.3334 4.12209 15.8158 2.63965 17.6453 2.63965C19.4749 2.63965 20.9573 4.12209 20.9573 5.95162C20.9573 7.78116 19.4749 9.26359 17.6453 9.26359C15.8158 9.26359 14.3334 7.78116 14.3334 5.95162ZM7.27779 10.1273C6.24355 10.1273 5.40582 10.965 5.40582 11.9992C5.40582 13.0335 6.24355 13.8712 7.27779 13.8712C8.31204 13.8712 9.14976 13.0335 9.14976 11.9992C9.14976 10.965 8.31204 10.1273 7.27779 10.1273ZM3.96582 11.9992C3.96582 10.1697 5.44826 8.68722 7.27779 8.68722C9.10733 8.68722 10.5898 10.1697 10.5898 11.9992C10.5898 13.8287 9.10733 15.3112 7.27779 15.3112C5.44826 15.3112 3.96582 13.8287 3.96582 11.9992ZM17.6453 16.1757C16.6111 16.1757 15.7734 17.0134 15.7734 18.0476C15.7734 19.0812 16.6113 19.9196 17.6453 19.9196C18.6794 19.9196 19.5173 19.0812 19.5173 18.0476C19.5173 17.0134 18.6796 16.1757 17.6453 16.1757ZM14.3334 18.0476C14.3334 16.2182 15.8158 14.7357 17.6453 14.7357C19.4749 14.7357 20.9573 16.2182 20.9573 18.0476C20.9573 19.8761 19.475 21.3596 17.6453 21.3596C15.8156 21.3596 14.3334 19.8761 14.3334 18.0476Z" fill="#CDD0FE"/>
<path fill-rule="evenodd" clip-rule="evenodd" d="M16.0288 6.89341C16.2292 7.23687 16.1132 7.67774 15.7698 7.87814L9.87686 11.3164C9.53344 11.5167 9.09256 11.4007 8.89217 11.0574C8.69178 10.7139 8.80776 10.2729 9.15122 10.0726L15.0441 6.63437C15.3876 6.43397 15.8285 6.54994 16.0288 6.89341ZM8.8929 12.9413C9.09312 12.5978 9.53394 12.4815 9.87754 12.6818L15.7788 16.1209C16.1223 16.3211 16.2386 16.762 16.0383 17.1055C15.8381 17.449 15.3972 17.5653 15.0538 17.365L9.15244 13.9259C8.80888 13.7257 8.69268 13.2848 8.8929 12.9413Z" fill="#CDD0FE"/>
</svg>
