<svg width="40" height="40" viewBox="0 0 40 40" fill="none" xmlns="http://www.w3.org/2000/svg">
<path d="M20.0998 17.9163C20.7901 17.9163 21.3498 18.476 21.3498 19.1663V22.083H24.1663C24.8567 22.083 25.4163 22.6427 25.4163 23.333C25.4163 24.0234 24.8567 24.583 24.1663 24.583H21.3498V27.4997C21.3498 28.19 20.7901 28.7497 20.0998 28.7497C19.4094 28.7497 18.8498 28.19 18.8498 27.4997V24.583H15.833C15.1427 24.583 14.583 24.0234 14.583 23.333C14.583 22.6427 15.1427 22.083 15.833 22.083H18.8498V19.1663C18.8498 18.476 19.4094 17.9163 20.0998 17.9163Z" fill="url(#paint0_linear_723_22291)"/>
<path fill-rule="evenodd" clip-rule="evenodd" d="M11.6663 2.08301C8.34194 2.08301 5.7633 2.46828 4.11579 4.11579C2.46828 5.7633 2.08301 8.34194 2.08301 11.6663V28.333C2.08301 31.6574 2.46828 34.236 4.11579 35.8836C5.7633 37.5311 8.34194 37.9163 11.6663 37.9163H28.333C31.6574 37.9163 34.236 37.5311 35.8836 35.8836C37.5311 34.236 37.9163 31.6574 37.9163 28.333V18.333C37.9163 15.0086 37.5311 12.43 35.8836 10.7825C34.236 9.13495 31.6574 8.74967 28.333 8.74967H23.333C22.6125 8.74967 22.3635 8.63904 22.2587 8.57572C22.1215 8.49279 22.0121 8.37108 21.664 7.91328L19.1115 4.50975C18.6786 3.93158 18.1729 3.25601 17.3913 2.78649C16.5469 2.27921 15.5246 2.08301 14.1663 2.08301H11.6663ZM4.58301 11.6663C4.58301 8.32407 5.03107 6.73605 5.88356 5.88356C6.73605 5.03107 8.32407 4.58301 11.6663 4.58301H14.1663C15.3081 4.58301 15.8108 4.75347 16.1039 4.92953C16.4265 5.12336 16.6615 5.4099 17.1663 6.08301L19.6663 9.41634L19.6711 9.4227L19.7234 9.49167C20.0022 9.86033 20.3821 10.3626 20.9656 10.7153C21.6192 11.1103 22.3869 11.2497 23.333 11.2497H28.333C31.6753 11.2497 33.2633 11.6977 34.1158 12.5502C34.9683 13.4027 35.4163 14.9907 35.4163 18.333V28.333C35.4163 31.6753 34.9683 33.2633 34.1158 34.1158C33.2633 34.9683 31.6753 35.4163 28.333 35.4163H11.6663C8.32407 35.4163 6.73605 34.9683 5.88356 34.1158C5.03107 33.2633 4.58301 31.6753 4.58301 28.333V11.6663Z" fill="url(#paint1_linear_723_22291)"/>
<defs>
<linearGradient id="paint0_linear_723_22291" x1="7.92224" y1="5.90368" x2="38.5154" y2="41.6102" gradientUnits="userSpaceOnUse">
<stop stop-color="#3C79FE"/>
<stop offset="1" stop-color="#7B1AD2"/>
</linearGradient>
<linearGradient id="paint1_linear_723_22291" x1="7.92224" y1="5.90368" x2="38.5154" y2="41.6102" gradientUnits="userSpaceOnUse">
<stop stop-color="#3C79FE"/>
<stop offset="1" stop-color="#7B1AD2"/>
</linearGradient>
</defs>
</svg>
