<svg width="82" height="14" viewBox="0 0 82 14" fill="none" xmlns="http://www.w3.org/2000/svg">
<path d="M2.97661 3.15857V6.55935H8.93175V8.94933H2.97661V13.6348H0V0.770508H9.72268V3.15857H2.97661Z" fill="white"/>
<path d="M11.7412 0.770508H14.7178V13.6348H11.7412V0.770508Z" fill="white"/>
<path d="M22.4495 8.5809L20.7229 10.3826V13.6348H17.7637V0.770508H20.7229V6.77924L26.4196 0.770508H29.728L24.4037 6.5034L30.0463 13.6406H26.5739L22.4495 8.5809Z" fill="white"/>
<path d="M39.5483 13.6348L37.0675 10.0508H34.3282V13.6348H31.3516V0.770508H36.9305C40.3663 0.770508 42.5249 2.55288 42.5249 5.43862C42.5249 7.36759 41.5604 8.78345 39.8782 9.4991L42.7719 13.6348H39.5483ZM36.755 3.19136H34.3282V7.67622H36.755C38.5741 7.67622 39.4943 6.83133 39.4943 5.43476C39.4943 4.03818 38.5741 3.19136 36.755 3.19136Z" fill="white"/>
<path d="M53.3618 10.8783H47.3816L46.2415 13.6348H43.2031L48.9364 0.770508H51.8783L57.6309 13.6348H54.5057L53.3618 10.8783ZM52.4262 8.61756L50.389 3.69289L48.3461 8.61756H52.4262Z" fill="white"/>
<path d="M58.6602 11.9806C58.6602 11.5079 58.8479 11.0545 59.1822 10.7203C59.5165 10.386 59.9699 10.1982 60.4426 10.1982C60.9154 10.1982 61.3688 10.386 61.7031 10.7203C62.0373 11.0545 62.2251 11.5079 62.2251 11.9806C62.2251 12.4533 62.0373 12.9067 61.7031 13.2409C61.3688 13.5752 60.9154 13.763 60.4426 13.763C59.9699 13.763 59.5165 13.5752 59.1822 13.2409C58.8479 12.9067 58.6602 12.4533 58.6602 11.9806Z" fill="white"/>
<path d="M73.4086 10.8783H67.4284L66.2883 13.6348H63.2441L68.9794 0.770508H71.9193L77.6738 13.6348H74.5545L73.4086 10.8783ZM72.471 8.61756L70.432 3.69289L68.391 8.61756H72.471Z" fill="white"/>
<path d="M79.0234 0.770508H82V13.6348H79.0234V0.770508Z" fill="white"/>
</svg>
