<svg width="112" height="21" viewBox="0 0 112 21" fill="none" xmlns="http://www.w3.org/2000/svg">
<path fill-rule="evenodd" clip-rule="evenodd" d="M0.373333 16.3778L9.25867 20.0364C9.50252 20.1584 9.59703 20.1309 9.78613 20.0761C9.82862 20.0638 9.87585 20.0501 9.93067 20.0364L18.816 16.4524C19.1147 16.3031 19.1893 16.2284 19.1893 15.9298V4.05777C19.1893 3.7591 19.1147 3.68443 18.816 3.5351L9.93067 0.100434C9.632 0.0257669 9.55733 0.0257669 9.25867 0.100434L0.373333 3.5351C0.0746667 3.68443 0 3.7591 0 4.05777V15.8551C0 16.1952 0.0619761 16.2255 0.298856 16.3411C0.32198 16.3524 0.346771 16.3645 0.373333 16.3778ZM17.3227 16.0044L9.55733 19.0658L1.792 15.9298L9.55733 13.1671L17.3227 16.0044ZM8.064 12.5698L1.04533 15.1831V4.72977L8.064 7.41777L6.79467 7.94043C6.72 7.94043 6.64533 8.0151 6.64533 8.16443V11.8231C6.64533 11.8978 6.72 11.9724 6.79467 12.0471L8.064 12.5698ZM18.0693 4.80443V15.1831L11.0507 12.5698L12.32 12.0471C12.3947 12.0471 12.4693 11.8978 12.4693 11.8231V8.16443C12.4693 8.08977 12.3947 8.0151 12.32 7.94043L11.0507 7.41777L18.0693 4.80443ZM11.424 11.2258L9.55733 11.9724L7.69067 11.2258V8.61243L9.55733 7.86577L11.424 8.61243V11.2258ZM17.3227 3.9831L9.55733 6.82043L1.792 3.9831L9.55733 0.996433L17.3227 3.9831ZM98.8587 8.61243C98.6347 7.41777 97.888 6.37243 96.096 6.37243C94.4533 6.37243 93.1093 7.7911 93.184 10.0311C93.184 12.3458 94.4533 13.6898 96.1707 13.6898C97.9627 13.6898 98.7093 12.6444 98.8587 11.4498H101.024C100.8 13.8391 99.3067 15.6311 96.096 15.6311C93.1093 15.6311 90.944 13.4658 90.944 10.0311C90.944 6.6711 93.1093 4.4311 96.096 4.4311C99.232 4.4311 100.8 6.2231 101.024 8.61243H98.8587ZM67.1253 9.8071C67.7227 9.5831 68.768 8.83643 68.768 7.26843C68.768 5.70043 67.5733 4.50577 65.7067 4.50577H60.8532V15.4818H65.9307C67.7973 15.4818 69.216 14.2871 69.216 12.4951C69.1413 11.0018 68.096 10.1058 67.1253 9.8071ZM63.0187 6.29777H65.0347C66.0053 6.29777 66.6027 6.74577 66.6027 7.71643C66.6027 8.61243 66.08 9.1351 65.1093 9.1351H63.0187V6.29777ZM65.3333 13.8391H62.944V10.7778H65.2587C66.304 10.7778 66.976 11.3004 66.976 12.3458C66.9013 13.3164 66.304 13.8391 65.3333 13.8391ZM25.6107 6.4471H29.12V15.5564H31.2853V6.4471H34.7947V4.58043H25.6107V6.4471ZM43.3068 8.98577H38.5281V4.58043H36.2881V15.5564H38.5281V10.9271H43.3068V15.5564H45.5468V4.58043H43.3068V8.98577ZM54.3573 10.8524H49.5787V13.6898H55.104V15.5564H47.3387V4.58043H54.9547V6.4471H49.5787V9.06043H54.3573V10.8524ZM70.7093 4.58043H72.8747V13.6151H78.2507V15.5564H70.7093V4.58043ZM84.224 4.50577C81.088 4.50577 78.7733 6.6711 78.7733 10.1058C78.7733 13.5404 81.088 15.6311 84.224 15.6311C87.36 15.6311 89.6747 13.4658 89.6747 10.0311C89.6747 6.59643 87.2853 4.50577 84.224 4.50577ZM84.224 13.6898C82.432 13.6898 81.0133 12.3458 81.0133 10.0311C81.0133 7.71643 82.432 6.37243 84.224 6.37243C86.016 6.37243 87.4347 7.71643 87.4347 10.0311C87.4347 12.3458 86.016 13.6898 84.224 13.6898ZM107.669 9.28443L111.701 4.58043H109.088L104.608 10.0311V4.58043H102.443V15.5564H104.608V12.6444L106.176 10.8524L109.461 15.5564H112L107.669 9.28443Z" fill="white"/>
</svg>
