<svg width="25" height="24" viewBox="0 0 25 24" fill="none" xmlns="http://www.w3.org/2000/svg">
<path d="M15.05 22.42C14.72 22.42 14.41 22.2 14.32 21.86C14.21 21.46 14.45 21.05 14.86 20.94C18.92 19.87 21.75 16.19 21.75 11.99C21.75 6.89 17.6 2.74 12.5 2.74C8.17 2.74 5.33 5.27 4 6.8H6.94C7.35 6.8 7.69 7.14 7.69 7.55C7.69 7.96 7.36 8.31 6.94 8.31H2.51C2.46 8.31 2.37 8.3 2.3 8.28C2.21 8.25 2.13 8.21 2.06 8.16C1.97 8.1 1.9 8.02 1.85 7.93C1.8 7.84 1.76 7.73 1.75 7.62C1.75 7.59 1.75 7.57 1.75 7.54V3C1.75 2.59 2.09 2.25 2.5 2.25C2.91 2.25 3.25 2.59 3.25 3V5.39C4.88 3.64 7.95 1.25 12.5 1.25C18.43 1.25 23.25 6.07 23.25 12C23.25 16.88 19.96 21.16 15.24 22.4C15.18 22.41 15.11 22.42 15.05 22.42Z" fill="#0473FB"/>
<path d="M11.79 22.73C11.77 22.73 11.75 22.72 11.74 22.72C10.66 22.65 9.6 22.41 8.6 22.02C8.31 21.91 8.11 21.62 8.12 21.31C8.12 21.22 8.14 21.13 8.17 21.05C8.32 20.67 8.77 20.48 9.14 20.62C10.01 20.96 10.92 21.16 11.84 21.23C12.23 21.25 12.54 21.59 12.54 21.99L12.53 22.03C12.51 22.42 12.18 22.73 11.79 22.73ZM6.28 20.58C6.11 20.58 5.95 20.52 5.81 20.42C4.97 19.74 4.23 18.95 3.63 18.07C3.54 17.94 3.49 17.8 3.49 17.65C3.49 17.4 3.61 17.17 3.82 17.03C4.15 16.8 4.63 16.89 4.86 17.21C4.86 17.22 4.86 17.22 4.86 17.22C4.87 17.23 4.88 17.25 4.89 17.26C5.41 18.01 6.04 18.68 6.75 19.24C6.92 19.38 7.03 19.59 7.03 19.82C7.03 19.99 6.98 20.16 6.87 20.3C6.72 20.48 6.51 20.58 6.28 20.58ZM2.94 15.7C2.61 15.7 2.32 15.49 2.23 15.18C1.91 14.15 1.75 13.08 1.75 12V11.99C1.76 11.58 2.09 11.25 2.5 11.25C2.91 11.25 3.25 11.59 3.25 12C3.25 12.94 3.39 13.86 3.66 14.73C3.68 14.81 3.69 14.88 3.69 14.96C3.69 15.28 3.48 15.57 3.16 15.67C3.09 15.69 3.02 15.7 2.94 15.7Z" fill="#0473FB"/>
</svg>
