<svg width="112" height="42" viewBox="0 0 112 42" fill="none" xmlns="http://www.w3.org/2000/svg">
<g clip-path="url(#clip0_39_6662)">
<path d="M16.147 10.5662H12.9526V27.8263H16.147V10.5662Z" fill="white"/>
<path d="M76.8348 15.4811C75.6526 15.4811 74.5825 15.7425 73.6236 16.2654C72.6648 16.7883 71.9245 17.5463 71.4014 18.539C70.8783 19.5319 70.6167 20.5587 70.6167 21.6196C70.6167 23.0065 70.8783 24.183 71.4014 25.1493C71.9245 26.1155 72.6873 26.8487 73.6919 27.3489C74.6958 27.8491 75.7509 28.0992 76.858 28.0992C78.6466 28.0992 80.1299 27.4987 81.3079 26.2973C82.4866 25.0963 83.076 23.5825 83.076 21.756C83.076 19.9449 82.4921 18.4463 81.325 17.2602C80.1579 16.0741 78.6616 15.4811 76.8348 15.4811ZM78.9436 24.2932C78.3788 24.9297 77.6802 25.248 76.8464 25.248C76.0125 25.248 75.3118 24.9297 74.7436 24.2932C74.1747 23.6565 73.8906 22.9876 73.8906 21.7902C73.8906 20.5929 74.1747 19.9237 74.7436 19.2872C75.3118 18.6505 76.0125 18.3322 76.8464 18.3322C77.6802 18.3322 78.3788 18.6505 78.9436 19.2872C79.5084 19.9237 79.7905 20.5851 79.7905 21.7674C79.7905 22.98 79.5084 23.6565 78.9436 24.2932Z" fill="white"/>
<path d="M22.954 15.4811C21.7717 15.4811 20.7012 15.7425 19.7426 16.2654C18.7837 16.7883 18.0431 17.5463 17.5202 18.539C16.9973 19.5319 16.7358 20.5587 16.7358 21.6196C16.7358 23.0065 16.9973 24.183 17.5202 25.1493C18.0431 26.1155 18.8065 26.8487 19.8108 27.3489C20.8149 27.8491 21.8701 28.0992 22.9766 28.0992C24.7651 28.0992 26.2486 27.4987 27.4271 26.2973C28.6054 25.0963 29.1947 23.5825 29.1947 21.756C29.1947 19.9449 28.6111 18.4463 27.4441 17.2602C26.277 16.0741 24.7802 15.4811 22.954 15.4811ZM25.0626 24.2932C24.498 24.9297 23.7989 25.248 22.9653 25.248C22.1315 25.248 21.4307 24.9297 20.8623 24.2932C20.2939 23.6565 20.0097 22.9876 20.0097 21.7902C20.0097 20.5929 20.2939 19.9237 20.8623 19.2872C21.4307 18.6505 22.1315 18.3322 22.9653 18.3322C23.7989 18.3322 24.498 18.6505 25.0626 19.2872C25.6271 19.9237 25.9095 20.5851 25.9095 21.7674C25.9095 22.98 25.6271 23.6565 25.0626 24.2932Z" fill="white"/>
<path d="M35.8148 18.4168C37.3752 18.4168 38.2288 19.5052 38.5422 20.3958L41.4615 19.5218C40.9997 18.0539 39.7794 15.4811 35.667 15.4811C31.8134 15.4811 29.554 18.4941 29.554 21.7902C29.554 25.0862 31.8134 28.0992 35.667 28.0992C39.7794 28.0992 40.9997 25.5264 41.4615 24.0585L38.6413 23.1349C38.328 24.0255 37.3752 25.1635 35.8148 25.1635C34.2543 25.1635 32.803 23.9087 32.803 21.7902C32.803 19.6715 34.2543 18.4168 35.8148 18.4168Z" fill="white"/>
<path d="M103.213 15.7539H99.0318L94.8455 20.3029V10.5662H91.6016V27.8263H94.8455V24.606L96.1956 23.1427L99.4197 27.8263H103.459L98.4534 20.8413L103.213 15.7539Z" fill="white"/>
<path d="M67.9049 15.7539L65.7888 23.517L63.226 15.7539H61.468H59.8094L57.2465 23.517L55.0312 15.7539H51.6023H49.2943L45.1079 20.3029V10.5662H41.864V27.8263H45.1079V24.606L46.4576 23.1427L49.6818 27.8263H53.7214L48.7158 20.8413L52.0749 17.2508L55.4142 27.8263H58.744L61.468 19.5662L64.1921 27.8263H67.5218L71.3338 15.7539H67.9049Z" fill="white"/>
<path d="M86.8472 17.4705V15.7539H83.7317V27.8264H86.9756V24.0978C86.9756 22.0442 86.503 18.4181 91.0219 18.9954V15.722C88.4651 15.4811 87.3553 16.6596 86.8472 17.4705Z" fill="white"/>
<path d="M107.712 20.3476C106.733 20.15 105.666 20.0948 105.666 19.0503C105.666 18.1377 106.722 17.8848 107.393 17.8848C108.064 17.8848 109.031 18.3686 109.196 19.4901L111.882 18.9239C111.725 17.6099 110.571 15.3889 107.305 15.3889C105.106 15.3889 102.637 16.7303 102.637 19.1869C102.637 21.81 104.743 22.6896 106.986 23.1624C109.229 23.6352 108.932 24.3163 108.932 24.5588C108.932 24.9151 108.536 25.6244 107.352 25.6244C106.168 25.6244 105.37 24.8996 105.095 23.8221L102.324 24.4268C102.808 26.5269 104.292 28.0991 107.316 28.0991C109.127 28.0991 112 27.4945 112 24.3059C112 21.1173 108.691 20.5454 107.712 20.3476Z" fill="white"/>
<path d="M4.24065 10.5662H0V14.8068H4.24065V10.5662Z" fill="white"/>
<path d="M4.24065 14.9557H0V19.1629H4.24065V14.9557Z" fill="white"/>
<path d="M4.24065 19.3116H0V23.4369H4.24065V19.3116Z" fill="white"/>
<path d="M4.24065 23.5858H0V27.8264H4.24065V23.5858Z" fill="white"/>
<path d="M8.55563 23.5858H4.3894V27.8264H7.8992C8.12088 27.8264 8.3401 27.8045 8.55563 27.765V23.5858Z" fill="white"/>
<path d="M8.55563 19.3116H4.3894V23.4369H8.55563V19.3116Z" fill="white"/>
<path d="M4.3894 14.9557V19.1629H8.31524L8.55563 19.0702V14.9557H4.3894Z" fill="white"/>
<path d="M4.3894 14.8068H8.55563V10.6699C8.31436 10.6013 8.08571 10.5662 7.88268 10.5662H4.3894V14.8068Z" fill="white"/>
<path d="M8.70435 14.8068H11.5929C11.5931 14.7915 11.5935 14.7763 11.5935 14.7609C11.5935 12.5337 10.0059 11.1521 8.70435 10.7163V14.8068Z" fill="white"/>
<path d="M8.70435 14.9557V19.0099C9.95356 18.4751 11.5044 17.2332 11.5888 14.9557H8.70435Z" fill="white"/>
<path d="M8.70435 23.4369H12.0747C12.0747 23.4352 12.0748 23.4335 12.0748 23.4317C12.0748 21.0303 10.3144 19.6931 8.95361 19.3116H8.70435V23.4369Z" fill="white"/>
<path d="M8.70435 23.5858V27.7346C10.509 27.3275 11.9979 25.5998 12.0707 23.5858H8.70435Z" fill="white"/>
</g>
<defs>
<clipPath id="clip0_39_6662">
<rect width="112" height="40.9756" fill="white" transform="translate(0 0.512207)"/>
</clipPath>
</defs>
</svg>
