<svg width="112" height="20" viewBox="0 0 112 20" fill="none" xmlns="http://www.w3.org/2000/svg">
<path d="M11.093 9.8007C11.093 6.95448 12.8688 4.44885 16.0557 4.44885C18.1964 4.44885 19.6317 5.37327 20.4831 7.29508L18.7559 8.02489C18.1964 6.78421 17.3449 6.22467 16.0557 6.22467C14.2068 6.22467 13.1121 7.70863 13.1121 9.8007C13.1121 11.8928 14.2068 13.3767 16.0557 13.3767C17.3206 13.3767 18.1964 12.8172 18.7559 11.5766L20.4831 12.3063C19.6073 14.2039 18.1721 15.1283 16.0557 15.1283C12.8688 15.1283 11.093 12.6226 11.093 9.8007Z" fill="white"/>
<path d="M22.3806 9.8007C22.3806 6.95448 24.1565 4.44885 27.319 4.44885C29.4597 4.44885 30.8949 5.37327 31.7464 7.29508L30.0192 8.02489C29.4597 6.78421 28.6083 6.22467 27.319 6.22467C25.4701 6.22467 24.3754 7.70863 24.3754 9.8007C24.3754 11.8928 25.4701 13.3767 27.319 13.3767C28.5839 13.3767 29.4597 12.8172 30.0192 11.5766L31.7464 12.3063C30.8949 14.2281 29.4597 15.1526 27.319 15.1526C24.1808 15.1282 22.3806 12.6226 22.3806 9.8007Z" fill="white"/>
<path d="M33.4492 9.8007C33.4492 7.05178 35.1521 4.44885 38.4119 4.44885C41.696 4.44885 43.3015 6.90586 43.3015 9.48445V10.3116H35.4683C35.5414 12.0874 36.709 13.3767 38.4362 13.3767C39.8715 13.3767 40.8689 12.6469 41.5014 11.5036L43.1069 12.355C42.0852 14.2525 40.5283 15.1283 38.4119 15.1283C35.2008 15.1283 33.4492 12.6226 33.4492 9.8007ZM41.2581 8.63306C40.9662 7.17343 40.0175 6.20032 38.4119 6.20032C36.8306 6.20032 35.8576 7.22205 35.5656 8.63306H41.2581Z" fill="white"/>
<path d="M46.9019 11.0657V2.3567H44.1042V0.605225H48.8966V10.8954C48.8966 12.6226 49.6508 13.2794 50.8671 13.2794C52.0348 13.2794 52.7889 12.5496 53.0565 11.0414L54.8323 11.3819C54.4674 13.8876 52.9835 15.1283 50.8671 15.1283C48.4831 15.1283 46.9019 13.6686 46.9019 11.0657Z" fill="white"/>
<path d="M56.7542 4.61912H58.7489V5.88414C59.2111 5.15432 60.3301 4.44885 61.6924 4.44885C64.782 4.44885 66.4361 6.63823 66.4361 9.8007C66.4361 12.9632 64.782 15.1282 61.6924 15.1282C60.4031 15.1282 59.2841 14.4958 58.7489 13.766V19.1421H56.7542V4.61912ZM64.3441 9.8007C64.3441 7.63561 63.225 6.22467 61.4492 6.22467C59.6977 6.22467 58.5786 7.63561 58.5786 9.8007C58.5786 11.9658 59.6977 13.3767 61.4492 13.3767C63.225 13.3767 64.3441 11.9658 64.3441 9.8007Z" fill="white"/>
<path d="M68.6501 9.8007C68.6501 6.93014 70.5716 4.44885 73.7342 4.44885C76.8967 4.44885 78.8182 6.90586 78.8182 9.8007C78.8182 12.6713 76.8967 15.1283 73.7342 15.1283C70.5716 15.1283 68.6501 12.6713 68.6501 9.8007ZM76.8482 9.8007C76.8482 7.92752 75.7288 6.22467 73.7342 6.22467C71.7395 6.22467 70.6448 7.92752 70.6448 9.8007C70.6448 11.6739 71.7635 13.3767 73.7342 13.3767C75.7288 13.3767 76.8482 11.6739 76.8482 9.8007Z" fill="white"/>
<path d="M80.5454 13.2307H83.9999V6.3706H81.0077V4.61907H86.0192V13.2307H89.644V14.9822H80.57V13.2307H80.5454ZM83.3674 1.79719C83.3674 0.945792 84.0245 0.28894 84.8759 0.28894C85.7272 0.28894 86.3837 0.945792 86.3837 1.79719C86.3837 2.64864 85.7272 3.28115 84.8759 3.28115C84.0245 3.25681 83.3674 2.6243 83.3674 1.79719Z" fill="white"/>
<path d="M92.1248 4.61912H94.12V6.44362C94.8736 5.30025 96.1632 4.44885 97.6231 4.44885C99.6663 4.44885 100.785 5.68953 100.785 7.68429V14.9579H98.7904V8.19515C98.7904 6.83283 98.0854 6.22467 97.0146 6.22467C95.4576 6.22467 94.12 7.92752 94.12 10.8224V14.9823H92.1248V4.61912Z" fill="white"/>
<path d="M110.224 11.017C109.981 12.5252 109.227 13.255 108.035 13.255C106.818 13.255 106.064 12.5983 106.064 10.8711V6.39495H109.957V4.61907H106.064V1.67554H104.069V11.0657C104.069 13.6686 105.651 15.1282 108.035 15.1282C110.151 15.1282 111.635 13.8876 112 11.3819L110.224 11.017Z" fill="white"/>
<path d="M3.47873 16.3446H1.70288V19.1421H3.47873V16.3446Z" fill="white"/>
<path d="M7.49272 16.3446H5.74121V19.1421H7.49272V16.3446Z" fill="white"/>
<path d="M0 14.593L3.649 4.61902H5.78975L9.41441 14.593V14.9578H0V14.593ZM2.70026 13.2064H6.73852L4.71938 7.27063L2.70026 13.2064Z" fill="white"/>
</svg>
