<svg width="20" height="18" viewBox="0 0 20 18" fill="none" xmlns="http://www.w3.org/2000/svg">
<path fill-rule="evenodd" clip-rule="evenodd" d="M13.04 1.0515C14.05 1.4535 14.359 2.8535 14.772 3.3035C15.185 3.7535 15.776 3.9065 16.103 3.9065C17.841 3.9065 19.25 5.3155 19.25 7.0525V12.8475C19.25 15.1775 17.36 17.0675 15.03 17.0675H4.97C2.639 17.0675 0.75 15.1775 0.75 12.8475V7.0525C0.75 5.3155 2.159 3.9065 3.897 3.9065C4.223 3.9065 4.814 3.7535 5.228 3.3035C5.641 2.8535 5.949 1.4535 6.959 1.0515C7.97 0.6495 12.03 0.6495 13.04 1.0515Z" stroke="#0473FB" stroke-width="1.5" stroke-linecap="round" stroke-linejoin="round"/>
<path d="M15.4951 6.5H15.5041" stroke="#0473FB" stroke-width="1.5" stroke-linecap="round" stroke-linejoin="round"/>
<path fill-rule="evenodd" clip-rule="evenodd" d="M13.1788 10.1282C13.1788 8.37222 11.7558 6.94922 9.9998 6.94922C8.2438 6.94922 6.8208 8.37222 6.8208 10.1282C6.8208 11.8842 8.2438 13.3072 9.9998 13.3072C11.7558 13.3072 13.1788 11.8842 13.1788 10.1282Z" stroke="#0473FB" stroke-width="1.5" stroke-linecap="round" stroke-linejoin="round"/>
</svg>
