<svg width="24" height="24" viewBox="0 0 24 24" fill="none" xmlns="http://www.w3.org/2000/svg">
<path d="M21 9.75C20.59 9.75 20.25 9.41 20.25 9V3.75H15C14.59 3.75 14.25 3.41 14.25 3C14.25 2.59 14.59 2.25 15 2.25H21C21.41 2.25 21.75 2.59 21.75 3V9C21.75 9.41 21.41 9.75 21 9.75Z" fill="#F5F6FF"/>
<path d="M9 21.75H3C2.59 21.75 2.25 21.41 2.25 21V15C2.25 14.59 2.59 14.25 3 14.25C3.41 14.25 3.75 14.59 3.75 15V20.25H9C9.41 20.25 9.75 20.59 9.75 21C9.75 21.41 9.41 21.75 9 21.75Z" fill="#F5F6FF"/>
<path d="M13.5004 11.2495C13.3104 11.2495 13.1204 11.1795 12.9704 11.0295C12.6804 10.7395 12.6804 10.2595 12.9704 9.96945L20.4704 2.46945C20.7604 2.17945 21.2404 2.17945 21.5304 2.46945C21.8204 2.75945 21.8204 3.23945 21.5304 3.52945L14.0304 11.0295C13.8804 11.1795 13.6904 11.2495 13.5004 11.2495Z" fill="#F5F6FF"/>
<path d="M3.00043 21.7495C2.81043 21.7495 2.62043 21.6795 2.47043 21.5295C2.18043 21.2395 2.18043 20.7595 2.47043 20.4695L9.97043 12.9695C10.2604 12.6795 10.7404 12.6795 11.0304 12.9695C11.3204 13.2595 11.3204 13.7395 11.0304 14.0295L3.53043 21.5295C3.38043 21.6795 3.19043 21.7495 3.00043 21.7495Z" fill="#F5F6FF"/>
</svg>
