<svg width="24" height="24" viewBox="0 0 24 24" fill="none" xmlns="http://www.w3.org/2000/svg">
<path d="M16.96 6.16992C18.96 7.55992 20.34 9.76992 20.62 12.3199" stroke="#F5F6FF" stroke-width="1.5" stroke-linecap="round" stroke-linejoin="round"/>
<path d="M3.49023 12.3707C3.75023 9.8307 5.11023 7.6207 7.09023 6.2207" stroke="#F5F6FF" stroke-width="1.5" stroke-linecap="round" stroke-linejoin="round"/>
<path d="M8.19043 20.9395C9.35043 21.5295 10.6704 21.8595 12.0604 21.8595C13.4004 21.8595 14.6604 21.5595 15.7904 21.0095" stroke="#F5F6FF" stroke-width="1.5" stroke-linecap="round" stroke-linejoin="round"/>
<path d="M12.0603 7.70062C13.5956 7.70062 14.8403 6.45598 14.8403 4.92062C14.8403 3.38527 13.5956 2.14062 12.0603 2.14062C10.5249 2.14062 9.28027 3.38527 9.28027 4.92062C9.28027 6.45598 10.5249 7.70062 12.0603 7.70062Z" stroke="#F5F6FF" stroke-width="1.5" stroke-linecap="round" stroke-linejoin="round"/>
<path d="M4.8298 19.9194C6.36516 19.9194 7.60981 18.6747 7.60981 17.1394C7.60981 15.604 6.36516 14.3594 4.8298 14.3594C3.29445 14.3594 2.0498 15.604 2.0498 17.1394C2.0498 18.6747 3.29445 19.9194 4.8298 19.9194Z" stroke="#F5F6FF" stroke-width="1.5" stroke-linecap="round" stroke-linejoin="round"/>
<path d="M19.1696 19.9194C20.705 19.9194 21.9496 18.6747 21.9496 17.1394C21.9496 15.604 20.705 14.3594 19.1696 14.3594C17.6343 14.3594 16.3896 15.604 16.3896 17.1394C16.3896 18.6747 17.6343 19.9194 19.1696 19.9194Z" stroke="#F5F6FF" stroke-width="1.5" stroke-linecap="round" stroke-linejoin="round"/>
</svg>
