<svg width="122" height="120" viewBox="0 0 122 120" fill="none" xmlns="http://www.w3.org/2000/svg">
<path d="M47.1048 50.4905H46.9473C47.7036 50.3014 48.4284 50.0178 49.0902 49.6396C48.4599 49.9863 47.7981 50.2699 47.1048 50.4905Z" fill="#FF302E"/>
<path d="M68.7886 37.5073C71.6564 39.083 73.4842 42.0453 73.5472 45.3227C73.5472 46.2997 73.0115 48.4741 72.1606 49.0098L48.5883 62.7813L43.168 58.1803V50.8376C53.2839 50.8376 68.0953 45.4488 68.7886 37.5073Z" fill="#E32900"/>
<path d="M31.3186 68.7368V119.789L4.56348 104.568V58.0852L31.3186 68.7368Z" fill="#210A6D"/>
<path d="M119.366 69.0833L31.3164 119.757V73.3062L119.366 22.6321V69.0833Z" fill="#4139B4"/>
<path d="M63.6825 61.0164H62.7686V94.61H63.6825V61.0164Z" fill="#210A6D"/>
<path d="M89.743 45.3228H88.8291V78.9164H89.743V45.3228Z" fill="#210A6D"/>
<path d="M37.6532 75.7961H36.7393V109.39H37.6532V75.7961Z" fill="#3B1C32"/>
<path d="M36.5172 110.177C36.5172 110.177 36.2651 109.957 36.2651 109.799V76.174C36.2651 76.0164 36.3597 75.8588 36.5172 75.7958L112.781 31.5821C112.781 31.5821 113.096 31.4875 113.253 31.5821C113.411 31.6451 113.505 31.8027 113.505 31.9602V65.4593C113.505 65.6169 113.411 65.7745 113.253 65.869L36.9584 110.177C36.9584 110.177 36.6433 110.272 36.5172 110.177ZM112.56 32.6535L37.2105 76.4576V108.98L112.56 65.1757V32.6535Z" fill="#210A6D"/>
<path d="M37.4306 110.178C37.4306 110.178 37.21 109.957 37.21 109.799V76.1743C37.21 76.1743 37.3045 75.8591 37.4306 75.7961L113.631 31.866C113.631 31.866 113.946 31.7715 114.104 31.866C114.23 31.9605 114.324 32.1181 114.324 32.2757V65.8693C114.324 66.0269 114.23 66.1844 114.104 66.279L37.9978 110.178C37.9978 110.178 37.8402 110.178 37.7772 110.178C37.6827 110.241 37.5251 110.241 37.4306 110.178ZM113.347 33.0635L37.9978 76.4579V108.98L113.347 65.6172V33.0635Z" fill="#7269E6"/>
<path d="M38.4408 76.2056H37.5269V109.799H38.4408V76.2056Z" fill="#7269E6"/>
<path d="M64.4705 60.5117H63.5566V94.1054H64.4705V60.5117Z" fill="#7269E6"/>
<path d="M90.5306 45.7634H89.6167V79.3571H90.5306V45.7634Z" fill="#7269E6"/>
<path d="M0.874023 57.8337V60.1657L31.3163 77.2147L37.6506 71.2586L0.874023 57.8337Z" fill="#251A7A"/>
<path d="M121.792 25.1538L31.3164 77.2144V74.9139L121.792 22.8533V25.1538Z" fill="#210A6D"/>
<path d="M91.3185 5.77295L0.874023 57.8651L31.3163 74.9141L121.792 22.8534L91.3185 5.77295Z" fill="#7269E6"/>
<path d="M81.3289 42.2024H80.4465V42.36L75.3413 39.5553C74.8686 39.3032 74.2698 39.3032 73.7971 39.5553L62.4837 45.858H61.6328V46.5198L67.7465 49.9233C68.1877 50.1439 68.7549 50.1439 69.1961 49.9233L81.2344 43.0218L81.3289 42.2024Z" fill="#210A6D"/>
<path d="M81.2656 42.1084L69.2274 49.0099C68.7862 49.2305 68.2189 49.2305 67.7777 49.0099L61.6641 45.6379V45.4488L73.7969 38.7364C74.2696 38.4528 74.8683 38.4528 75.341 38.7364L81.2656 41.8878V42.1084Z" fill="#4139B4"/>
<path d="M51.2967 18.4724L83.5353 0.352028C84.2601 0.00537713 85.1425 0.320515 85.5207 1.04533C85.5837 1.2029 85.6467 1.39198 85.6467 1.58106L85.2686 29.2501C85.2686 29.6598 85.048 30.0064 84.7013 30.227L52.7148 49.3244C51.0446 49.5765 50.7295 48.2214 50.7295 47.3705V19.4493C50.7295 19.0397 50.9501 18.6615 51.2967 18.4724Z" fill="#210A6D"/>
<path d="M51.8324 18.9769L84.0394 0.604426C84.6067 0.320803 85.2685 0.509887 85.5836 1.07713C85.6781 1.2347 85.7097 1.42378 85.7097 1.58135V29.9437C85.7097 30.3534 85.4891 30.7316 85.1424 30.9206L52.9354 49.2301C52.3681 49.5137 51.7063 49.3246 51.3912 48.7574C51.2967 48.5998 51.2651 48.4108 51.2651 48.2532V19.8908C51.2651 19.5127 51.4857 19.166 51.8324 18.9769Z" fill="#4139B4"/>
<path d="M85.2691 0.635897C84.7019 6.33988 79.6282 10.5627 71.7182 14.8801C65.573 18.5672 58.514 20.4265 51.3604 20.2374V19.9538C51.3604 19.5441 51.5809 19.1975 51.9276 18.9769L84.1346 0.604383C84.4813 0.4153 84.9225 0.446814 85.2691 0.604383V0.635897Z" fill="#D6DDF0"/>
<path d="M68.3768 29.4076C70.3621 28.3046 72.8517 28.9979 73.9547 30.9833C74.2383 31.4875 74.3959 32.0232 74.4589 32.559L68.7865 47.3389L68.1877 47.0238L66.3599 33.5044C66.1393 31.8657 66.9271 30.227 68.3768 29.4076Z" fill="#210A6D"/>
<path d="M68.9766 29.7232C70.9304 28.6203 73.4515 29.282 74.5545 31.2674C74.8066 31.7086 74.9642 32.2128 75.0587 32.717L76.4768 42.9905L68.7875 47.3394L66.9282 33.7885C66.7076 32.1498 67.5269 30.5426 68.9766 29.7232Z" fill="#D6DDF0"/>
<path d="M18.6484 57.3604L31.6321 65.3019L41.4959 59.3143L28.5122 51.3728L18.6484 57.3604Z" fill="#A9B3C4"/>
<path d="M31.6328 64.4192V65.3016L40.8663 59.6922V58.8413L31.6328 64.4192Z" fill="#D6DDF0"/>
<path d="M18.6484 56.5095V57.3604L31.6321 65.3019V64.4195L18.6484 56.5095Z" fill="#C0C0C0"/>
<path d="M18.6484 56.5096L31.6321 64.4195L40.8656 58.8416L27.882 50.9001L18.6484 56.5096Z" fill="#D7D7D7"/>
<path d="M18.0181 56.0369L31.0332 63.9784L41.4958 57.6126L28.4806 49.7026L18.0181 56.0369Z" fill="#D6DDF0"/>
<path d="M18.0181 56.0369L18.0496 58.558L31.0332 66.4994V63.9783L18.0181 56.0369Z" fill="#A9B3C4"/>
<path d="M31.632 65.3019V64.4195L40.8655 58.8416L41.4958 58.4634V57.6125L31.0332 63.9783V66.4994L41.4958 60.1337V59.3143L31.632 65.3019Z" fill="#909AAF"/>
</svg>
