<svg width="124" height="117" viewBox="0 0 124 117" fill="none" xmlns="http://www.w3.org/2000/svg">
<path d="M23.0764 76.8945C23.4471 77.7707 23.0764 78.8154 22.1664 79.2198C22.1664 79.2198 22.0991 79.2198 22.0654 79.2535C19.403 80.2645 16.5385 81.6125 14.348 82.6236C13.7414 82.9606 12.9663 82.7584 12.5956 82.1517C12.3934 81.8147 12.3597 81.444 12.4945 81.0733C14.9209 78.9502 17.6843 77.2315 20.6499 75.9846C21.5261 75.5465 22.6045 75.9172 23.0427 76.7934C23.0427 76.7934 23.0427 76.8608 23.0764 76.8608V76.8945Z" fill="#210A6D"/>
<path d="M122.56 75.0743C118.044 88.9589 92.8027 116.93 54.1147 107.764C16.1008 98.7657 -2.97363 49.4957 1.57591 35.6111C6.12546 21.7265 34.7707 38.1049 67.9656 48.9228C101.16 59.7743 127.143 61.156 122.56 75.0406V75.0743Z" fill="#7269E6"/>
<path d="M122.562 72.8164C118.046 86.701 87.4461 89.1612 54.2176 78.3096C21.0227 67.4581 -2.33159 47.4063 2.18426 33.5554C6.7001 19.7045 36.3227 25.9391 69.5512 36.7906C102.78 47.6422 126.977 58.9319 122.528 72.8164H122.562Z" fill="#4139B4"/>
<path d="M92.9031 83.2638C79.9284 83.0279 67.0549 80.77 54.7543 76.5912C40.3979 72.2101 26.9852 65.133 15.2912 55.7306C6.2258 47.9458 6.69761 37.9704 11.0787 33.6568C18.1557 26.6134 46.0596 31.264 68.9758 38.7455C95.3295 47.3391 124.952 58.9321 120.638 72.3112C118.414 79.0176 108.035 83.2301 92.9031 83.2301V83.2638Z" fill="#7269E6"/>
<path d="M82.5925 105C81.6488 105.27 81.0759 106.247 81.3118 107.191C81.3118 107.191 81.3118 107.225 81.3118 107.258C82.188 109.921 82.8621 113.055 83.3676 115.447C83.4687 116.155 84.109 116.627 84.8167 116.526C85.1874 116.458 85.5244 116.256 85.7266 115.953C85.9288 112.718 85.5918 109.516 84.783 106.382C84.5808 105.438 83.6709 104.798 82.7273 105C82.6936 105 82.6599 105 82.5925 105Z" fill="#210A6D"/>
<path d="M9.87018 25.5014H8.72437L12.7347 23.176H14.1838L14.4197 23.3445L14.6219 23.513L14.8241 23.7152L15.0263 23.9511L15.2285 24.187L15.397 24.4229C15.397 24.4229 15.5318 24.6251 15.5992 24.7262C15.5992 24.7262 15.5992 24.8947 15.5992 24.9958C15.5992 24.9958 15.5992 25.1981 15.5992 25.2992C15.5992 25.2992 15.5992 25.5014 15.5992 25.6025V25.8384C15.5992 25.8384 15.5992 26.0406 15.5992 26.1417C15.6666 26.6809 15.397 27.2201 14.9589 27.5571L10.9486 29.8824C11.3867 29.5454 11.6226 29.0062 11.5889 28.467V28.1637V27.8941V27.5571V27.2875V27.0179C11.5889 27.0179 11.4878 26.8157 11.4204 26.7146C11.4204 26.7146 11.353 26.5461 11.2856 26.4787C11.2856 26.4787 11.1845 26.2765 11.0834 26.2091L10.8812 25.9395L10.7127 25.771L10.6453 25.9058L10.4094 25.7373H10.2072L9.90388 25.4677L9.87018 25.5014Z" fill="#D6DDF0"/>
<path d="M10.3067 25.7036C9.09353 24.9959 8.08252 25.7036 8.08252 26.9505C8.14992 28.5007 8.95873 29.9161 10.273 30.7587C11.4863 31.4664 12.4973 30.8934 12.4973 29.478C12.3962 27.9278 11.5874 26.5461 10.3067 25.7036Z" fill="#AEB7D5"/>
<path d="M18.7976 13.8072C18.3258 13.942 18.0561 14.4475 18.191 14.953C18.2921 15.2563 18.4943 15.4585 18.7976 15.5596C19.7412 15.9978 20.8533 15.9978 21.7969 15.5596C22.2687 15.4248 22.5383 14.9193 22.4035 14.4138C22.3024 14.1105 22.1002 13.9083 21.7969 13.8072C20.8533 13.3354 19.7412 13.3354 18.7976 13.8072Z" fill="#AEB7D5"/>
<path d="M9.29273 29.781C8.75353 29.781 8.34912 29.3429 8.34912 28.8037V5.68518C8.41652 2.75324 10.8429 0.394213 13.7749 0.461614C14.2467 0.461614 14.7185 0.529014 15.1903 0.697516L17.6841 1.50633C19.8409 2.24774 21.2901 4.26976 21.3238 6.52769V14.3462C21.3238 14.8854 20.8857 15.2898 20.3801 15.2898C19.8746 15.2898 19.4365 14.8517 19.4365 14.3462V6.52769C19.4702 5.07858 18.5266 3.76426 17.1112 3.35985L14.6174 2.51734C12.9324 1.94443 11.0789 2.85434 10.5059 4.57307C10.4048 4.91007 10.3374 5.28078 10.3374 5.61778V28.7363C10.3374 29.3092 9.93304 29.781 9.39384 29.8147L9.29273 29.781Z" fill="#D6DDF0"/>
<mask id="mask0_1067_20296" style="mask-type:luminance" maskUnits="userSpaceOnUse" x="18" y="14" width="5" height="4">
<path d="M18.1926 14.6497V16.0988C18.2263 16.4695 18.4622 16.8065 18.7992 16.9413C19.7428 17.4131 20.855 17.4131 21.7986 16.9413C22.1356 16.7728 22.3715 16.4695 22.4052 16.0988V14.6497C22.3715 15.0204 22.1356 15.3574 21.7986 15.5259C20.855 15.964 19.7428 15.964 18.7992 15.5259C18.4622 15.3574 18.2263 15.0204 18.1926 14.6497Z" fill="white"/>
</mask>
<g mask="url(#mask0_1067_20296)">
<path d="M18.1926 14.6497V16.0988C18.2263 16.4695 18.4622 16.8065 18.7992 16.9413C19.7428 17.4131 20.855 17.4131 21.7986 16.9413C22.1356 16.7728 22.3715 16.4695 22.4052 16.0988V14.6497C22.3715 15.0204 22.1356 15.3574 21.7986 15.5259C20.855 15.964 19.7428 15.964 18.7992 15.5259C18.4622 15.3574 18.2263 15.0204 18.1926 14.6497Z" fill="#D6DDF0"/>
</g>
<path d="M5.92304 32.8816C5.92304 32.8816 5.92304 32.7131 5.92304 32.612V32.275V32.0054C5.92304 32.0054 5.92304 31.8369 5.92304 31.7358L5.31643 31.1292V30.8933C5.31643 30.8933 5.21533 30.7248 5.11423 30.6237L4.91203 30.3541L4.37282 29.9497H4.17062L3.90102 29.7475H2.65411C2.65411 29.7475 2.5193 29.7475 2.4519 29.7475L6.46225 27.3885H7.74286L7.94506 27.2537C7.94506 27.2537 8.07986 27.3211 8.14726 27.3885L8.34946 27.557C8.34946 27.557 8.51797 27.7255 8.55167 27.8266L8.72017 28.0625L8.88867 28.2984L9.09087 28.6017C9.09087 28.6017 9.09087 28.7702 9.09087 28.8713C9.09087 28.8713 9.09087 29.0735 9.09087 29.1746C9.09087 29.1746 9.09087 29.4105 9.09087 29.5116V29.7475V30.0508C9.12457 30.59 8.88867 31.1292 8.45057 31.4662L5.31643 34.6341C5.78824 34.3308 6.02414 33.7916 5.99044 33.2186V32.9153L5.92304 32.8479V32.8816Z" fill="#D6DDF0"/>
<path d="M3.76621 29.5117C2.553 28.804 1.57568 29.5117 1.57568 30.7586C1.64308 32.3088 2.4519 33.7242 3.76621 34.5668C4.97942 35.2745 5.95673 34.7016 5.99043 33.2861C5.88933 31.7359 5.08052 30.3542 3.76621 29.5117Z" fill="#AEB7D5"/>
<path d="M20.2811 20.1762C19.506 20.1762 18.9331 19.8392 18.9331 19.3337C18.9331 18.8282 19.506 18.5249 20.2811 18.5249C21.0562 18.5249 21.6628 18.8619 21.6628 19.3337C21.6628 19.8055 21.0562 20.1762 20.2811 20.1762ZM20.2811 18.9293C19.7082 18.9293 19.3038 19.1989 19.3038 19.3674C19.3038 19.5359 19.7082 19.8055 20.2811 19.8055C20.854 19.8055 21.2921 19.5696 21.2921 19.3337C21.2921 19.0978 20.8877 18.963 20.2811 18.963V18.9293ZM20.2811 23.6137C19.506 23.6137 18.9331 23.2767 18.9331 22.7712C18.9331 22.2657 19.506 21.9624 20.2811 21.9624C21.0562 21.9624 21.6628 22.2994 21.6628 22.7712C21.6628 23.243 21.0562 23.6137 20.2811 23.6137ZM20.2811 22.3668C19.7082 22.3668 19.3038 22.6364 19.3038 22.8049C19.3038 22.9734 19.7082 23.243 20.2811 23.243C20.854 23.243 21.2584 23.0071 21.2584 22.8049C21.2584 22.6027 20.8877 22.3668 20.2811 22.3668ZM20.2811 30.4886C19.506 30.4886 18.9331 30.1516 18.9331 29.6461C18.9331 29.1406 19.506 28.8372 20.2811 28.8372C21.0562 28.8372 21.6628 29.1743 21.6628 29.6461C21.6628 30.1179 21.0562 30.4886 20.2811 30.4886ZM20.2811 29.2416C19.7082 29.2416 19.3038 29.5113 19.3038 29.6798C19.3038 29.8483 19.7082 30.1179 20.2811 30.1179C20.854 30.1179 21.2921 29.9831 21.2921 29.6798C21.2921 29.3765 20.8877 29.2416 20.2811 29.2416ZM20.2811 33.926C19.506 33.926 18.9331 33.5553 18.9331 33.0835C18.9331 32.6117 19.506 32.2747 20.2811 32.2747C21.0562 32.2747 21.6628 32.6117 21.6628 33.0835C21.6628 33.5553 21.0562 33.926 20.2811 33.926ZM20.2811 32.6791C19.7082 32.6791 19.3038 32.9487 19.3038 33.1172C19.3038 33.2857 19.7082 33.5553 20.2811 33.5553C20.854 33.5553 21.2584 33.3194 21.2584 33.1172C21.2584 32.915 20.8877 32.6454 20.2811 32.6454V32.7128V32.6791ZM20.2811 37.3635C19.506 37.3635 18.9331 36.9928 18.9331 36.5209C18.9331 36.0491 19.506 35.7121 20.2811 35.7121C21.0562 35.7121 21.6628 36.0491 21.6628 36.5209C21.6628 36.9928 21.0562 37.3635 20.2811 37.3635ZM20.2811 36.1165C19.7082 36.1165 19.3038 36.3861 19.3038 36.5547C19.3038 36.7232 19.7082 36.9928 20.2811 36.9928C20.854 36.9928 21.2584 36.7569 21.2584 36.5547C21.2584 36.3524 20.8877 36.1165 20.2811 36.1165Z" fill="white"/>
</svg>
