<svg width="16" height="16" viewBox="0 0 16 16" fill="none" xmlns="http://www.w3.org/2000/svg">
<path fill-rule="evenodd" clip-rule="evenodd" d="M10.0268 2.701C10.7002 2.969 10.9062 3.90233 11.1815 4.20233C11.4568 4.50233 11.8508 4.60433 12.0688 4.60433C13.2275 4.60433 14.1668 5.54367 14.1668 6.70167V10.565C14.1668 12.1183 12.9068 13.3783 11.3535 13.3783H4.64683C3.09283 13.3783 1.8335 12.1183 1.8335 10.565V6.70167C1.8335 5.54367 2.77283 4.60433 3.9315 4.60433C4.14883 4.60433 4.54283 4.50233 4.81883 4.20233C5.09416 3.90233 5.2995 2.969 5.97283 2.701C6.64683 2.433 9.3535 2.433 10.0268 2.701Z" stroke="#0473FB" stroke-width="1.5" stroke-linecap="round" stroke-linejoin="round"/>
<path d="M11.6636 6.33301H11.6696" stroke="#0473FB" stroke-width="1.5" stroke-linecap="round" stroke-linejoin="round"/>
<path fill-rule="evenodd" clip-rule="evenodd" d="M10.1193 8.75215C10.1193 7.58148 9.17062 6.63281 7.99995 6.63281C6.82928 6.63281 5.88062 7.58148 5.88062 8.75215C5.88062 9.92281 6.82928 10.8715 7.99995 10.8715C9.17062 10.8715 10.1193 9.92281 10.1193 8.75215Z" stroke="#0473FB" stroke-width="1.5" stroke-linecap="round" stroke-linejoin="round"/>
</svg>
