<svg width="16" height="16" viewBox="0 0 16 16" fill="none" xmlns="http://www.w3.org/2000/svg">
<g clip-path="url(#clip0_807_19939)">
<rect width="16" height="16" rx="8" fill="white"/>
<mask id="mask0_807_19939" style="mask-type:luminance" maskUnits="userSpaceOnUse" x="-3" y="-1" width="22" height="18">
<rect x="-3" y="-0.25" width="22" height="16.5" fill="white"/>
</mask>
<g mask="url(#mask0_807_19939)">
<rect x="-3" y="-0.25" width="22" height="16.5" fill="#59A41E"/>
<path d="M1.79993 2.89567C1.79993 2.89567 2.15103 4.49708 1.79993 4.18994C1.44883 3.8828 0.668755 5.05328 1.48364 4.62161C2.29852 4.18994 2.44196 3.74251 2.44196 4.62161C2.44196 5.50071 2.83163 5.05343 2.15763 5.70687C1.48364 6.36031 4.51991 6.37051 3.15992 6.77953C1.79993 7.18855 1.15534 8.0606 2.15763 7.73996C3.15992 7.41931 4.77348 6.06125 4.35231 5.70687C3.93114 5.3525 4.1382 5.42509 4.1382 4.62161C4.1382 3.81813 3.87082 3.61092 3.52227 3.40341C3.17372 3.1959 4.87836 4.80691 5.44793 3.85129C6.01749 2.89567 5.94892 3.51264 6.36064 3.85129C6.77236 4.18994 7.41349 4.59865 7.41349 3.85129C7.41349 3.10393 8.25883 1.66186 8.25883 3.14174C8.25883 4.62161 9.31989 5.38668 9.31989 4.39505C9.31989 3.40341 10.2957 2.43218 10.2957 3.14174C10.2957 3.85129 10.8559 3.81843 11.3347 3.61092C11.8135 3.40341 11.773 2.8559 11.773 4.39505C11.773 5.93419 11.9736 8.33951 11.3347 8.13674C10.6958 7.93396 11.293 7.0187 10.6948 5.70687C10.0966 4.39505 11.3044 4.39039 10.056 6.06518C8.80769 7.73996 9.00594 7.49389 8.63239 6.77953C8.25883 6.06518 9.85128 5.34857 8.63239 5.70687C7.41349 6.06518 8.07608 8.0708 7.74479 7.42517C7.41349 6.77953 6.5672 3.34985 6.46392 5.06469C6.36064 6.77953 6.78918 7.73996 5.88239 7.73996C4.97559 7.73996 4.20857 7.80928 4.82825 7.42517C5.44793 7.04106 5.44793 5.70687 5.44793 5.70687" stroke="white" stroke-width="0.6875"/>
<path fill-rule="evenodd" clip-rule="evenodd" d="M6.57969 10.6504C6.02061 10.7181 3.19541 10.7065 2.35143 10.5029C2.16235 10.463 2.27044 11.3253 2.3928 11.5235C2.51515 11.7217 3.47563 11.9202 3.81052 11.9659C4.09787 12.0052 5.20499 11.9434 6.35579 11.8792C6.54618 11.8686 6.73777 11.8579 6.92704 11.8476C7.93455 11.7927 9.40636 11.8884 10.176 11.9384C10.4249 11.9545 10.6004 11.9659 10.663 11.9659C10.8989 11.9659 10.8812 12.0455 10.8455 12.2055C10.8424 12.2193 10.8392 12.2337 10.836 12.2487C10.7959 12.4376 11.0073 12.8431 11.1006 12.8813C11.1938 12.9194 11.8872 12.8813 12.2651 12.7355C12.4801 12.6525 12.5056 12.664 12.5616 12.6893C12.604 12.7084 12.6638 12.7355 12.8366 12.7355C13.0961 12.7355 13.1096 12.3638 13.1191 12.1014C13.1243 11.9582 13.1283 11.8476 13.1705 11.8476C13.2178 11.8476 13.2812 11.988 13.3406 12.1193C13.4312 12.3197 13.5123 12.4992 13.5123 12.1283C13.5123 11.5143 12.7903 10.7101 12.5542 10.7745C12.3886 10.8196 12.1161 10.7698 11.931 10.736C11.8521 10.7216 11.7892 10.7101 11.7572 10.7101C11.7108 10.7101 11.7247 10.6989 11.7554 10.6742C11.7955 10.6419 11.8642 10.5865 11.8642 10.5029C11.8642 10.3554 11.7238 10.3345 11.6069 10.3345C11.4901 10.3345 11.4277 10.43 11.4277 10.5029C11.4277 10.5757 11.5157 10.6504 11.5157 10.6504C11.4974 10.6504 11.4053 10.6492 11.258 10.6472C10.3077 10.6347 7.06376 10.5918 6.57969 10.6504ZM11.3516 11.9501C11.3515 11.9499 11.4259 11.9068 11.5983 11.6943C11.7892 11.459 11.8567 11.5342 11.9271 11.6126C11.9634 11.653 12.0004 11.6943 12.0555 11.6943C12.2175 11.6943 12.4315 11.6943 12.5707 11.8124C12.7098 11.9305 12.3875 12.0928 12.2936 12.0928C12.247 12.0928 12.2126 12.0638 12.1779 12.0345C12.1427 12.0047 12.1071 11.9747 12.0583 11.9747C12.0008 11.9747 11.9524 12.0164 11.9131 12.0503C11.8862 12.0734 11.8636 12.0928 11.8453 12.0928C11.8293 12.0928 11.7938 12.0726 11.7479 12.0463C11.6638 11.9984 11.5448 11.9305 11.447 11.9305C11.3859 11.9305 11.3516 11.9502 11.3516 11.9501Z" fill="white"/>
<path d="M2.35143 10.5029L2.36756 10.436L2.36562 10.4356L2.35143 10.5029ZM6.57969 10.6504L6.57143 10.5821L6.57969 10.6504ZM2.3928 11.5235L2.3343 11.5596H2.3343L2.3928 11.5235ZM3.81052 11.9659L3.80122 12.0341L3.81052 11.9659ZM6.35579 11.8792L6.35196 11.8106L6.35579 11.8792ZM6.92704 11.8476L6.93078 11.9162L6.92704 11.8476ZM10.176 11.9384L10.1805 11.8698L10.176 11.9384ZM10.8455 12.2055L10.9126 12.2205V12.2205L10.8455 12.2055ZM10.836 12.2487L10.9033 12.263L10.9033 12.263L10.836 12.2487ZM11.1006 12.8813L11.0745 12.9449V12.9449L11.1006 12.8813ZM12.2651 12.7355L12.2898 12.7996L12.2651 12.7355ZM12.5616 12.6893L12.5899 12.6266V12.6266L12.5616 12.6893ZM13.1191 12.1014L13.0504 12.0989V12.0989L13.1191 12.1014ZM13.3406 12.1193L13.278 12.1477V12.1477L13.3406 12.1193ZM12.5542 10.7745L12.5361 10.7081V10.7081L12.5542 10.7745ZM11.931 10.736L11.9434 10.6684L11.931 10.736ZM11.7554 10.6742L11.7985 10.7277L11.7985 10.7277L11.7554 10.6742ZM11.5157 10.6504V10.7191H11.7032L11.5602 10.5979L11.5157 10.6504ZM11.258 10.6472L11.2589 10.5785L11.258 10.6472ZM11.5983 11.6943L11.6517 11.7376L11.5983 11.6943ZM11.3516 11.9501L11.2919 11.9843L11.2919 11.9843L11.3516 11.9501ZM11.9271 11.6126L11.9783 11.5667L11.9783 11.5667L11.9271 11.6126ZM12.5707 11.8124L12.6151 11.76V11.76L12.5707 11.8124ZM12.1779 12.0345L12.1336 12.087V12.087L12.1779 12.0345ZM11.9131 12.0503L11.9579 12.1024L11.9579 12.1024L11.9131 12.0503ZM11.7479 12.0463L11.7819 11.9866V11.9866L11.7479 12.0463ZM2.33531 10.5697C2.76581 10.6736 3.69086 10.7272 4.57085 10.7471C5.45191 10.767 6.30278 10.7532 6.58795 10.7186L6.57143 10.5821C6.29752 10.6153 5.45625 10.6295 4.57395 10.6096C3.69058 10.5897 2.78103 10.5358 2.36756 10.436L2.33531 10.5697ZM2.4513 11.4874C2.42719 11.4483 2.39943 11.3671 2.37519 11.2597C2.35154 11.1548 2.33295 11.033 2.32386 10.9185C2.31468 10.8028 2.31562 10.6997 2.32851 10.6302C2.33515 10.5945 2.34359 10.5756 2.34918 10.568C2.35138 10.565 2.35097 10.5668 2.34689 10.5686C2.34211 10.5707 2.33805 10.5703 2.33724 10.5701L2.36562 10.4356C2.34118 10.4304 2.31581 10.4321 2.2919 10.4426C2.26868 10.4527 2.25133 10.4691 2.23863 10.4863C2.21441 10.519 2.20123 10.5625 2.19332 10.6051C2.17713 10.6923 2.17729 10.8096 2.18679 10.9293C2.19639 11.0502 2.21594 11.1786 2.24106 11.2899C2.2656 11.3987 2.29723 11.4996 2.3343 11.5596L2.4513 11.4874ZM3.81982 11.8978C3.65529 11.8754 3.33432 11.8149 3.03985 11.7355C2.89254 11.6958 2.75387 11.6519 2.64544 11.6064C2.59118 11.5836 2.54612 11.5611 2.51191 11.5394C2.47644 11.517 2.45844 11.4989 2.4513 11.4874L2.3343 11.5596C2.35774 11.5976 2.39652 11.6291 2.4383 11.6556C2.48135 11.6829 2.53402 11.7088 2.59224 11.7332C2.70878 11.7821 2.8541 11.8278 3.00407 11.8683C3.30415 11.9491 3.63086 12.0108 3.80122 12.0341L3.81982 11.8978ZM6.35196 11.8106C5.77639 11.8427 5.21248 11.8741 4.75657 11.8927C4.29737 11.9113 3.95602 11.9164 3.81982 11.8978L3.80122 12.0341C3.95237 12.0547 4.30825 12.0485 4.76215 12.0301C5.21933 12.0115 5.78439 11.9799 6.35962 11.9479L6.35196 11.8106ZM6.9233 11.7789C6.73398 11.7893 6.54235 11.7999 6.35196 11.8106L6.35962 11.9479C6.55002 11.9372 6.74156 11.9265 6.93078 11.9162L6.9233 11.7789ZM10.1805 11.8698C9.41213 11.8198 7.93578 11.7238 6.9233 11.7789L6.93078 11.9162C7.93332 11.8616 9.4006 11.9569 10.1716 12.007L10.1805 11.8698ZM10.663 11.8972C10.6033 11.8972 10.4313 11.8861 10.1805 11.8698L10.1716 12.007C10.4186 12.023 10.5975 12.0347 10.663 12.0347V11.8972ZM10.9126 12.2205C10.9212 12.1818 10.9301 12.1424 10.9336 12.1074C10.9371 12.0728 10.9366 12.0318 10.9172 11.9942C10.8963 11.9537 10.86 11.9292 10.8171 11.9154C10.7761 11.9022 10.7246 11.8972 10.663 11.8972V12.0347C10.7194 12.0347 10.7541 12.0396 10.775 12.0463C10.7849 12.0495 10.7899 12.0526 10.7923 12.0543C10.7942 12.0558 10.7947 12.0567 10.795 12.0573C10.7962 12.0596 10.7993 12.0685 10.7968 12.0938C10.7943 12.1187 10.7876 12.1492 10.7784 12.1905L10.9126 12.2205ZM10.9033 12.263C10.9064 12.2484 10.9095 12.2343 10.9126 12.2205L10.7784 12.1905C10.7753 12.2043 10.7721 12.219 10.7688 12.2344L10.9033 12.263ZM11.1266 12.8177C11.1282 12.8183 11.1226 12.816 11.1102 12.8031C11.0989 12.7914 11.0855 12.7748 11.0706 12.7536C11.0411 12.7112 11.0091 12.6547 10.9808 12.5929C10.9524 12.531 10.9285 12.4657 10.9142 12.4058C10.8994 12.3445 10.8964 12.2955 10.9033 12.263L10.7688 12.2344C10.7556 12.2964 10.7639 12.3689 10.7805 12.4379C10.7974 12.5084 10.8246 12.5823 10.8558 12.6502C10.8869 12.7181 10.9228 12.7819 10.9579 12.8322C10.9754 12.8573 10.9934 12.8802 11.0114 12.8987C11.0282 12.9161 11.0496 12.9347 11.0745 12.9449L11.1266 12.8177ZM12.2403 12.6713C12.0601 12.7409 11.7996 12.7862 11.5693 12.809C11.4549 12.8203 11.3498 12.8259 11.2683 12.8264C11.2275 12.8266 11.1934 12.8255 11.1674 12.8234C11.1544 12.8224 11.1442 12.8211 11.1366 12.8198C11.1283 12.8184 11.1257 12.8173 11.1266 12.8177L11.0745 12.9449C11.097 12.9541 11.1277 12.9582 11.1563 12.9605C11.1876 12.963 11.2259 12.9641 11.2691 12.9639C11.3556 12.9634 11.465 12.9575 11.5829 12.9458C11.8171 12.9226 12.0922 12.8759 12.2898 12.7996L12.2403 12.6713ZM12.5899 12.6266C12.5769 12.6207 12.559 12.6125 12.5382 12.6074C12.516 12.6019 12.4927 12.6005 12.4656 12.6034C12.4153 12.6088 12.3474 12.63 12.2403 12.6713L12.2898 12.7996C12.3978 12.7579 12.4502 12.7434 12.4803 12.7401C12.4935 12.7387 12.5006 12.7397 12.5055 12.7409C12.5119 12.7425 12.5183 12.7452 12.5333 12.7519L12.5899 12.6266ZM12.8366 12.6667C12.7537 12.6667 12.7007 12.6602 12.6649 12.6524C12.6301 12.6448 12.6097 12.6356 12.5899 12.6266L12.5333 12.7519C12.5558 12.7621 12.5866 12.776 12.6355 12.7867C12.6835 12.7972 12.7468 12.8042 12.8366 12.8042V12.6667ZM13.0504 12.0989C13.0456 12.2324 13.0398 12.3816 13.0057 12.4974C12.9888 12.5548 12.9667 12.5976 12.9396 12.6254C12.9146 12.6511 12.8828 12.6667 12.8366 12.6667V12.8042C12.9201 12.8042 12.9874 12.7734 13.0382 12.7213C13.087 12.6711 13.1175 12.6046 13.1376 12.5362C13.1775 12.4006 13.1832 12.2327 13.1878 12.1039L13.0504 12.0989ZM13.1705 11.7788C13.1223 11.7788 13.0957 11.8131 13.0841 11.8361C13.0726 11.8587 13.0667 11.8859 13.063 11.9105C13.0553 11.9609 13.053 12.029 13.0504 12.0989L13.1878 12.1039C13.1905 12.0306 13.1927 11.9719 13.1989 11.9311C13.2021 11.9102 13.2055 11.9007 13.2068 11.8982C13.2079 11.8959 13.1976 11.9163 13.1705 11.9163V11.7788ZM13.4033 12.091C13.374 12.0263 13.3419 11.9551 13.3108 11.9003C13.2954 11.8731 13.2784 11.8465 13.26 11.8259C13.245 11.809 13.2144 11.7788 13.1705 11.7788V11.9163C13.1502 11.9163 13.1453 11.9037 13.1573 11.9173C13.166 11.9271 13.1774 11.9438 13.1912 11.9681C13.2185 12.0163 13.2479 12.081 13.278 12.1477L13.4033 12.091ZM13.4436 12.1283C13.4436 12.1736 13.4424 12.2094 13.4401 12.2372C13.4379 12.2655 13.4348 12.2831 13.4321 12.293C13.4307 12.2979 13.4299 12.2988 13.4307 12.2975C13.4313 12.2965 13.4352 12.2896 13.4448 12.2834C13.4561 12.2762 13.4699 12.2734 13.4828 12.2755C13.4938 12.2773 13.5002 12.282 13.5015 12.2829C13.5031 12.2841 13.5027 12.2841 13.5005 12.2815C13.4984 12.279 13.4956 12.2753 13.492 12.2699C13.4848 12.2591 13.4763 12.2443 13.4667 12.2258C13.4474 12.1885 13.4262 12.1416 13.4033 12.091L13.278 12.1477C13.3004 12.1972 13.3233 12.2479 13.3446 12.2891C13.3554 12.3097 13.3664 12.3294 13.3775 12.3461C13.3878 12.3616 13.4017 12.38 13.4194 12.3932C13.4286 12.4 13.4425 12.4083 13.4607 12.4112C13.4808 12.4145 13.5014 12.4105 13.519 12.3992C13.5484 12.3803 13.5594 12.3482 13.5645 12.3301C13.5763 12.2878 13.5811 12.2209 13.5811 12.1283H13.4436ZM12.5723 10.8408C12.5809 10.8385 12.6012 10.8382 12.6375 10.8528C12.6724 10.8668 12.7146 10.8917 12.7622 10.9275C12.8571 10.9989 12.9653 11.1078 13.0676 11.2392C13.274 11.5044 13.4436 11.844 13.4436 12.1283H13.5811C13.5811 11.7986 13.3896 11.4291 13.1761 11.1548C13.0683 11.0164 12.9518 10.898 12.8449 10.8176C12.7915 10.7774 12.7386 10.7452 12.6888 10.7252C12.6404 10.7057 12.5865 10.6944 12.5361 10.7081L12.5723 10.8408ZM11.9187 10.8037C12.0108 10.8205 12.128 10.8419 12.2432 10.8533C12.3568 10.8645 12.4768 10.8668 12.5723 10.8408L12.5361 10.7081C12.466 10.7272 12.367 10.7273 12.2567 10.7164C12.148 10.7057 12.0363 10.6854 11.9434 10.6684L11.9187 10.8037ZM11.7572 10.7789C11.7672 10.7789 11.7861 10.7809 11.8158 10.7856C11.8444 10.7901 11.879 10.7964 11.9187 10.8037L11.9434 10.6684C11.9042 10.6613 11.8678 10.6546 11.8372 10.6498C11.8077 10.6451 11.7792 10.6414 11.7572 10.6414V10.7789ZM11.7122 10.6207C11.7053 10.6263 11.6965 10.6333 11.6895 10.6398C11.6859 10.6431 11.6812 10.6478 11.6766 10.6534C11.6729 10.6581 11.6648 10.6688 11.6608 10.6843C11.6558 10.7038 11.6582 10.7287 11.6753 10.7493C11.6889 10.7655 11.7056 10.7715 11.713 10.7738C11.7284 10.7785 11.7453 10.7789 11.7572 10.7789V10.6414C11.7458 10.6414 11.7471 10.6404 11.753 10.6422C11.7557 10.643 11.7692 10.6472 11.781 10.6613C11.7875 10.6691 11.7926 10.6791 11.7948 10.6906C11.7969 10.7018 11.7958 10.7115 11.794 10.7186C11.7908 10.7311 11.7846 10.7385 11.7839 10.7395C11.7823 10.7414 11.7816 10.7419 11.7829 10.7407C11.7857 10.7381 11.7902 10.7344 11.7985 10.7277L11.7122 10.6207ZM11.7954 10.5029C11.7954 10.5246 11.7868 10.5448 11.7707 10.5654C11.754 10.5867 11.7328 10.6041 11.7122 10.6207L11.7985 10.7277C11.8181 10.7119 11.8513 10.6855 11.8789 10.6501C11.9072 10.614 11.9329 10.5647 11.9329 10.5029H11.7954ZM11.6069 10.4032C11.6639 10.4032 11.7149 10.4088 11.7498 10.4254C11.766 10.4331 11.7764 10.4421 11.783 10.4522C11.7895 10.462 11.7954 10.4773 11.7954 10.5029H11.9329C11.9329 10.4547 11.9213 10.4121 11.8978 10.3764C11.8745 10.3411 11.8424 10.3172 11.8089 10.3013C11.7445 10.2706 11.6669 10.2657 11.6069 10.2657V10.4032ZM11.4964 10.5029C11.4964 10.4621 11.5336 10.4032 11.6069 10.4032V10.2657C11.4465 10.2657 11.3589 10.3979 11.3589 10.5029H11.4964ZM11.5157 10.6504C11.5602 10.5979 11.5602 10.5979 11.5602 10.598C11.5602 10.598 11.5602 10.598 11.5602 10.598C11.5602 10.598 11.5603 10.598 11.5603 10.598C11.5603 10.598 11.5603 10.598 11.5603 10.5981C11.5603 10.5981 11.5604 10.5981 11.5603 10.5981C11.5603 10.598 11.5602 10.5979 11.56 10.5978C11.5597 10.5975 11.559 10.5969 11.5581 10.5961C11.5563 10.5945 11.5536 10.5919 11.5502 10.5886C11.5434 10.5819 11.5344 10.5724 11.5256 10.5612C11.5054 10.5358 11.4964 10.5147 11.4964 10.5029H11.3589C11.3589 10.5639 11.3939 10.6165 11.4178 10.6467C11.431 10.6633 11.444 10.677 11.4537 10.6865C11.4586 10.6914 11.4627 10.6952 11.4658 10.698C11.4673 10.6993 11.4685 10.7004 11.4695 10.7013C11.4699 10.7017 11.4703 10.702 11.4706 10.7023C11.4708 10.7024 11.4709 10.7025 11.471 10.7026C11.4711 10.7026 11.4711 10.7027 11.4712 10.7027C11.4712 10.7027 11.4712 10.7028 11.4712 10.7028C11.4712 10.7028 11.4712 10.7028 11.4712 10.7028C11.4713 10.7028 11.4713 10.7028 11.5157 10.6504ZM11.2571 10.716C11.4039 10.7179 11.4968 10.7191 11.5157 10.7191V10.5816C11.498 10.5816 11.4066 10.5804 11.2589 10.5785L11.2571 10.716ZM6.58795 10.7186C6.70435 10.7045 6.99349 10.6962 7.38197 10.6921C7.76849 10.6881 8.24866 10.6884 8.74367 10.6909C9.73363 10.6958 10.7819 10.7097 11.2571 10.716L11.2589 10.5785C10.7838 10.5722 9.73496 10.5583 8.74436 10.5534C8.24908 10.5509 7.76811 10.5506 7.38054 10.5546C6.99495 10.5587 6.69706 10.5669 6.57143 10.5821L6.58795 10.7186ZM11.5449 11.651C11.4602 11.7553 11.4007 11.8168 11.3634 11.8515C11.3448 11.8688 11.3318 11.8794 11.3241 11.8853C11.3202 11.8882 11.3177 11.89 11.3164 11.8909C11.3158 11.8913 11.3154 11.8916 11.3152 11.8917C11.315 11.8918 11.3152 11.8917 11.3147 11.892C11.3147 11.892 11.3141 11.8924 11.3134 11.8929C11.3132 11.893 11.3119 11.8938 11.3104 11.895C11.3099 11.8953 11.3075 11.8972 11.3046 11.8999C11.3028 11.9016 11.2981 11.9068 11.2954 11.9104C11.2899 11.9196 11.2832 11.9576 11.2919 11.9843L11.4112 11.9158C11.4199 11.9426 11.4132 11.9805 11.4077 11.9897C11.405 11.9933 11.4003 11.9986 11.3985 12.0003C11.3957 12.0029 11.3932 12.0048 11.3928 12.0051C11.3912 12.0062 11.39 12.0071 11.3898 12.0072C11.3894 12.0074 11.3891 12.0076 11.3891 12.0077C11.3889 12.0078 11.3888 12.0078 11.3888 12.0078C11.3887 12.0079 11.3893 12.0075 11.3896 12.0073C11.3906 12.0067 11.392 12.0058 11.3937 12.0046C11.3972 12.0023 11.4018 11.999 11.4076 11.9945C11.4192 11.9857 11.4356 11.9722 11.4571 11.9521C11.5 11.9122 11.5639 11.8458 11.6517 11.7376L11.5449 11.651ZM11.9783 11.5667C11.9618 11.5482 11.9398 11.5234 11.9141 11.5042C11.887 11.4838 11.8514 11.4663 11.8068 11.467C11.7633 11.4678 11.7212 11.4857 11.68 11.5155C11.6389 11.5453 11.5946 11.5897 11.5449 11.651L11.6517 11.7376C11.6975 11.6811 11.7332 11.6468 11.7607 11.6269C11.788 11.6071 11.803 11.6046 11.809 11.6045C11.814 11.6044 11.8204 11.6058 11.8317 11.6142C11.8445 11.6238 11.8573 11.6377 11.876 11.6585L11.9783 11.5667ZM12.0555 11.6255C12.0468 11.6255 12.0378 11.6227 12.0253 11.6134C12.0111 11.6029 11.9974 11.588 11.9783 11.5667L11.876 11.6585C11.9071 11.6932 11.9645 11.763 12.0555 11.763V11.6255ZM12.6151 11.76C12.5323 11.6897 12.4303 11.657 12.3327 11.6412C12.2352 11.6254 12.1357 11.6255 12.0555 11.6255V11.763C12.1374 11.763 12.2259 11.7632 12.3107 11.7769C12.3953 11.7906 12.4699 11.817 12.5262 11.8648L12.6151 11.76ZM12.2936 12.1616C12.3311 12.1616 12.3792 12.147 12.4224 12.1291C12.4679 12.1103 12.5177 12.0837 12.5604 12.0522C12.6011 12.0221 12.6443 11.981 12.6635 11.9305C12.6738 11.9035 12.6777 11.8724 12.6689 11.8401C12.6601 11.8082 12.6405 11.7815 12.6151 11.76L12.5262 11.8648C12.5309 11.8688 12.5335 11.8719 12.5348 11.8739C12.5354 11.8748 12.5358 11.8755 12.536 11.8759C12.5362 11.8763 12.5362 11.8765 12.5363 11.8765C12.5363 11.8766 12.5363 11.8766 12.5363 11.8766C12.5363 11.8766 12.5363 11.8766 12.5363 11.8766C12.5363 11.8766 12.5363 11.8766 12.5363 11.8766C12.5363 11.8767 12.5363 11.8768 12.5363 11.8769C12.5362 11.8775 12.536 11.879 12.535 11.8816C12.53 11.8947 12.5128 11.9164 12.4787 11.9416C12.4465 11.9654 12.4068 11.9868 12.3698 12.0021C12.3305 12.0184 12.303 12.0241 12.2936 12.0241V12.1616ZM12.1336 12.087C12.1644 12.113 12.2178 12.1616 12.2936 12.1616V12.0241C12.2763 12.0241 12.2608 12.0145 12.2223 11.9819L12.1336 12.087ZM12.0583 12.0435C12.078 12.0435 12.0947 12.0542 12.1336 12.087L12.2223 11.9819C12.1906 11.9552 12.1362 11.906 12.0583 11.906V12.0435ZM11.9579 12.1024C11.9783 12.0848 11.996 12.0698 12.0145 12.0586C12.0325 12.0477 12.0465 12.0435 12.0583 12.0435V11.906C12.0126 11.906 11.9737 11.9226 11.9433 11.941C11.9133 11.9591 11.8872 11.9819 11.8682 11.9982L11.9579 12.1024ZM11.8453 12.1616C11.8766 12.1616 11.9016 12.146 11.9149 12.1369C11.9299 12.1266 11.9454 12.1132 11.9579 12.1024L11.8682 11.9982C11.8539 12.0105 11.8446 12.0184 11.8371 12.0235C11.8336 12.0259 11.8323 12.0264 11.8328 12.0262C11.8333 12.026 11.8379 12.0241 11.8453 12.0241V12.1616ZM11.7138 12.1061C11.7362 12.1188 11.7584 12.1315 11.777 12.1409C11.7863 12.1456 11.7963 12.1502 11.8061 12.1538C11.8146 12.1569 11.829 12.1616 11.8453 12.1616V12.0241C11.8536 12.0241 11.8576 12.0262 11.8535 12.0247C11.8507 12.0237 11.8459 12.0216 11.8387 12.018C11.8241 12.0106 11.8055 12.0001 11.7819 11.9866L11.7138 12.1061ZM11.447 11.9992C11.4817 11.9992 11.5255 12.0117 11.575 12.0334C11.6236 12.0547 11.6713 12.0818 11.7138 12.1061L11.7819 11.9866C11.7403 11.9629 11.6865 11.9321 11.6302 11.9074C11.5747 11.8832 11.5101 11.8617 11.447 11.8617V11.9992ZM11.2919 11.9843C11.3056 12.0012 11.3348 12.0167 11.3463 12.0186C11.3522 12.0188 11.3614 12.0181 11.3647 12.0175C11.3702 12.0165 11.3743 12.0149 11.3752 12.0146C11.3779 12.0136 11.38 12.0126 11.3804 12.0125C11.3816 12.0119 11.3826 12.0114 11.3827 12.0114C11.383 12.0112 11.3832 12.0111 11.3833 12.011C11.3834 12.011 11.3835 12.0109 11.3835 12.0109C11.3837 12.0109 11.3837 12.0108 11.3838 12.0108C11.384 12.0107 11.3846 12.0104 11.3855 12.01C11.3874 12.0092 11.391 12.0077 11.3963 12.0061C11.4068 12.0029 11.4239 11.9992 11.447 11.9992V11.8617C11.409 11.8617 11.3784 11.8679 11.3565 11.8745C11.3455 11.8778 11.3368 11.8812 11.3303 11.8841C11.3271 11.8855 11.3245 11.8867 11.3225 11.8877C11.3215 11.8882 11.3208 11.8886 11.3204 11.8888C11.32 11.889 11.3204 11.8888 11.3206 11.8887C11.3207 11.8887 11.3216 11.8882 11.3228 11.8876C11.3231 11.8875 11.3252 11.8865 11.3279 11.8855C11.3288 11.8852 11.3329 11.8837 11.3384 11.8826C11.3417 11.882 11.3509 11.8813 11.3568 11.8815C11.3683 11.8834 11.3976 11.899 11.4112 11.9158L11.2919 11.9843Z" fill="white"/>
<path d="M15.035 3.01221C15.035 3.01221 16.1447 7.99971 15.035 7.99971C13.9253 7.99971 13.9253 7.56466 13.9253 7.56466C13.9253 7.56466 15.1439 8.12507 14.8069 6.6596C14.4699 5.19413 14.1554 6.20302 14.1554 4.9143C14.1554 3.62558 13.9253 2.76103 13.9253 3.42002C13.9253 4.07901 13.7725 8.05966 13.1705 7.24537C12.5686 6.43109 12.7149 3.90946 12.7149 3.66474" stroke="white" stroke-width="0.6875"/>
</g>
</g>
<rect x="0.5" y="0.5" width="15" height="15" rx="7.5" stroke="white"/>
<defs>
<clipPath id="clip0_807_19939">
<rect width="16" height="16" rx="8" fill="white"/>
</clipPath>
</defs>
</svg>
