<svg width="24" height="24" viewBox="0 0 24 24" fill="none" xmlns="http://www.w3.org/2000/svg">
<path fill-rule="evenodd" clip-rule="evenodd" d="M11.76 11.9287C12.1577 11.9287 12.48 12.2511 12.48 12.6487V16.6016C12.48 16.9992 12.1577 17.3216 11.76 17.3216C11.3624 17.3216 11.04 16.9992 11.04 16.6016V12.6487C11.04 12.2511 11.3624 11.9287 11.76 11.9287Z" fill="#CDD0FE"/>
<path d="M16.7674 21.3594H6.75361C5.71723 21.3581 4.72368 20.9458 3.99085 20.213C3.25803 19.4802 2.84576 18.4866 2.84449 17.4503V10.5594C2.84369 10.0298 2.96128 9.50685 3.18868 9.02865C3.41606 8.55044 3.7475 8.12912 4.15872 7.79552L9.5088 3.43616C10.1462 2.92095 10.9409 2.63989 11.7605 2.63989C12.58 2.63989 13.3748 2.92095 14.0122 3.43616L19.3623 7.79552C19.7734 8.12912 20.1049 8.55044 20.3323 9.02865C20.5597 9.50685 20.6773 10.0298 20.6765 10.5594V17.4465C20.6762 18.4834 20.2644 19.478 19.5315 20.2116C18.7985 20.9453 17.8044 21.3581 16.7674 21.3594ZM11.76 4.07936C11.2699 4.07905 10.795 4.24869 10.416 4.55936L5.06496 8.91873C4.81957 9.11731 4.62182 9.36838 4.48626 9.65347C4.3507 9.93855 4.28075 10.2504 4.28159 10.5661V17.4532C4.28236 18.1077 4.54275 18.7353 5.00564 19.1983C5.46852 19.6611 6.09611 19.9215 6.75074 19.9222H16.7645C17.4191 19.9215 18.0467 19.6611 18.5096 19.1983C18.9724 18.7353 19.2328 18.1077 19.2336 17.4532V10.5594C19.2345 10.2437 19.1645 9.93184 19.0289 9.64675C18.8934 9.36167 18.6956 9.11059 18.4503 8.912L13.104 4.55648C12.7242 4.24775 12.2494 4.07985 11.76 4.08128V4.07936Z" fill="#CDD0FE"/>
</svg>
