<svg width="24" height="24" viewBox="0 0 24 24" fill="none" xmlns="http://www.w3.org/2000/svg">
<path fill-rule="evenodd" clip-rule="evenodd" d="M11.7599 4.07989C7.38546 4.07989 3.8399 7.62545 3.8399 11.9999C3.8399 16.3735 7.38552 19.9199 11.7599 19.9199C16.1343 19.9199 19.6799 16.3735 19.6799 11.9999C19.6799 7.62545 16.1343 4.07989 11.7599 4.07989ZM2.3999 11.9999C2.3999 6.83017 6.59018 2.63989 11.7599 2.63989C16.9296 2.63989 21.1199 6.83017 21.1199 11.9999C21.1199 17.1686 16.9297 21.3599 11.7599 21.3599C6.59012 21.3599 2.3999 17.1686 2.3999 11.9999Z" fill="#CDD0FE"/>
<path fill-rule="evenodd" clip-rule="evenodd" d="M11.76 7.71948C12.1577 7.71948 12.48 8.04183 12.48 8.43948V8.50019C12.48 8.89783 12.1577 9.22019 11.76 9.22019C11.3624 9.22019 11.04 8.89783 11.04 8.50019V8.43948C11.04 8.04183 11.3624 7.71948 11.76 7.71948ZM11.7655 10.698C12.1631 10.698 12.4855 11.0203 12.4855 11.418V15.5456C12.4855 15.9432 12.1631 16.2656 11.7655 16.2656C11.3679 16.2656 11.0455 15.9432 11.0455 15.5456V11.418C11.0455 11.0203 11.3679 10.698 11.7655 10.698Z" fill="#CDD0FE"/>
</svg>
