<svg width="24" height="24" viewBox="0 0 24 24" fill="none" xmlns="http://www.w3.org/2000/svg">
<path fill-rule="evenodd" clip-rule="evenodd" d="M15.1456 9.63418C15.5245 9.75475 15.7339 10.1597 15.6133 10.5386L12.6114 19.9735C12.4908 20.3524 12.0859 20.5618 11.707 20.4412C11.3281 20.3207 11.1186 19.9158 11.2392 19.5368L14.2412 10.102C14.3617 9.72305 14.7666 9.51362 15.1456 9.63418Z" fill="#CDD0FE"/>
<path fill-rule="evenodd" clip-rule="evenodd" d="M8.31878 9.63418C8.6977 9.51362 9.10262 9.72305 9.22319 10.102L12.2251 19.5368C12.3457 19.9158 12.1363 20.3207 11.7574 20.4412C11.3784 20.5618 10.9736 20.3524 10.853 19.9735L7.85099 10.5386C7.73041 10.1597 7.93985 9.75475 8.31878 9.63418Z" fill="#CDD0FE"/>
<path fill-rule="evenodd" clip-rule="evenodd" d="M7.2258 3.63571C7.56446 3.42731 8.00794 3.53291 8.21635 3.87156L11.9526 9.94291C12.161 10.2816 12.0554 10.7251 11.7167 10.9335C11.378 11.1418 10.9346 11.0363 10.7262 10.6976L6.98996 4.62626C6.78156 4.2876 6.88715 3.84412 7.2258 3.63571Z" fill="#CDD0FE"/>
<path fill-rule="evenodd" clip-rule="evenodd" d="M16.2392 3.63571C16.5779 3.84412 16.6835 4.2876 16.4751 4.62626L12.7388 10.6976C12.5304 11.0363 12.087 11.1418 11.7483 10.9335C11.4096 10.7251 11.304 10.2816 11.5124 9.94291L15.2487 3.87156C15.4571 3.53291 15.9006 3.42731 16.2392 3.63571Z" fill="#CDD0FE"/>
<path fill-rule="evenodd" clip-rule="evenodd" d="M2.43945 10.3162C2.43945 9.91855 2.7618 9.59619 3.15945 9.59619H20.4003C20.7979 9.59619 21.1203 9.91855 21.1203 10.3162C21.1203 10.7138 20.7979 11.0362 20.4003 11.0362H3.15945C2.7618 11.0362 2.43945 10.7138 2.43945 10.3162Z" fill="#CDD0FE"/>
<path d="M11.7571 20.4811C11.4428 20.4808 11.1321 20.4151 10.8446 20.2879C10.5571 20.1608 10.2994 19.9752 10.0877 19.7429L3.07971 12.0379C2.68439 11.6059 2.44699 11.0528 2.4062 10.4686C2.36541 9.88444 2.52363 9.30369 2.85507 8.82094L5.68707 4.67086C5.92585 4.32097 6.24647 4.03472 6.62107 3.83696C6.99567 3.6392 7.41292 3.53592 7.83651 3.53613H15.6931C16.1169 3.53586 16.5342 3.63919 16.9089 3.83713C17.2835 4.03507 17.6041 4.32164 17.8426 4.67183L20.6678 8.82191C20.9987 9.30489 21.1563 9.88564 21.115 10.4696C21.0736 11.0535 20.8358 11.6063 20.4403 12.0379L13.4266 19.7438C13.2149 19.976 12.9571 20.1616 12.6696 20.2885C12.3822 20.4155 12.0714 20.4811 11.7571 20.4811ZM7.83171 4.97613C7.64247 4.97581 7.45603 5.02184 7.28867 5.1102C7.12133 5.19856 6.97817 5.32657 6.87171 5.48303L4.03875 9.63214C3.88834 9.8472 3.81586 10.1072 3.83331 10.369C3.85077 10.6309 3.95712 10.879 4.13475 11.0721L11.1485 18.7781C11.2264 18.8595 11.3199 18.9243 11.4236 18.9686C11.5272 19.0129 11.6388 19.0356 11.7514 19.0356C11.8641 19.0356 11.9756 19.0129 12.0792 18.9686C12.1828 18.9243 12.2764 18.8595 12.3542 18.7781L19.3699 11.0702C19.5475 10.8772 19.6542 10.6295 19.6725 10.3679C19.6908 10.1062 19.6197 9.84611 19.4707 9.63021L16.6531 5.47919C16.5467 5.32273 16.4035 5.19473 16.2362 5.10636C16.0689 5.018 15.8824 4.97197 15.6931 4.9723L7.83171 4.97613Z" fill="#CDD0FE"/>
</svg>
