<svg width="24" height="24" viewBox="0 0 24 24" fill="none" xmlns="http://www.w3.org/2000/svg">
<path d="M10.8969 20.8236H6.46175C5.38422 20.8223 4.35119 20.3937 3.58935 19.6317C2.82751 18.8696 2.39909 17.8365 2.39807 16.759V6.6559C2.39934 5.57844 2.82785 4.54547 3.58964 3.78351C4.35142 3.02155 5.38429 2.59283 6.46175 2.59131H10.8873C11.9651 2.59233 12.9985 3.02085 13.7607 3.78287C14.5229 4.54489 14.9517 5.57811 14.9529 6.6559V7.50357C14.9529 7.69452 14.8771 7.87766 14.7421 8.0127C14.607 8.14772 14.4239 8.22357 14.2329 8.22357C14.042 8.22357 13.8589 8.14772 13.7238 8.0127C13.5888 7.87766 13.5129 7.69452 13.5129 7.50357V6.6559C13.5121 5.95987 13.2353 5.2926 12.743 4.80053C12.2508 4.30845 11.5834 4.03182 10.8873 4.03131H6.46175C5.76613 4.03258 5.09938 4.3095 4.60759 4.80146C4.1158 5.29343 3.83908 5.96027 3.83807 6.6559V16.759C3.83858 17.4548 4.11514 18.1219 4.60703 18.614C5.09893 19.106 5.76597 19.3828 6.46175 19.3836H10.8969C11.5901 19.3826 12.2546 19.1069 12.7449 18.617C13.2353 18.127 13.5115 17.4627 13.5129 16.7695V15.9132C13.5129 15.7223 13.5888 15.5391 13.7238 15.404C13.8589 15.269 14.042 15.1932 14.2329 15.1932C14.4239 15.1932 14.607 15.269 14.7421 15.404C14.8771 15.5391 14.9529 15.7223 14.9529 15.9132V16.7695C14.9512 17.8445 14.5232 18.8749 13.7629 19.6348C13.0026 20.3949 11.9719 20.8223 10.8969 20.8236Z" fill="#EF4444"/>
<path d="M17.7419 15.0723C17.5996 15.0722 17.4604 15.0298 17.342 14.9505C17.2236 14.8713 17.1315 14.7588 17.0771 14.6271C17.0228 14.4955 17.0087 14.3506 17.0366 14.211C17.0646 14.0714 17.1333 13.9431 17.2341 13.8425L18.6568 12.4265H9.47061C9.27966 12.4265 9.09653 12.3507 8.9615 12.2157C8.82648 12.0806 8.75061 11.8974 8.75061 11.7065C8.75061 11.5155 8.82648 11.3324 8.9615 11.1974C9.09653 11.0623 9.27966 10.9865 9.47061 10.9865H18.6568L17.2322 9.56861C17.1009 9.433 17.028 9.25121 17.0294 9.06242C17.0308 8.87363 17.1062 8.69297 17.2396 8.55928C17.3728 8.42559 17.5533 8.34959 17.7421 8.34769C17.9309 8.34579 18.1129 8.41811 18.2488 8.54908L20.9061 11.1958C20.9482 11.2381 20.9844 11.2859 21.0136 11.3379V11.3436C21.0213 11.3609 21.029 11.3763 21.0357 11.3935C21.0673 11.4715 21.0849 11.5543 21.0875 11.6383C21.0849 11.7224 21.0673 11.8053 21.0357 11.8832C21.029 11.9005 21.0213 11.9159 21.0136 11.9331C20.9844 11.9851 20.9482 12.0329 20.9061 12.0751L18.2488 14.7219C18.1956 14.8142 18.1225 14.8935 18.0348 14.9542C17.9472 15.0147 17.8472 15.0551 17.7419 15.0723Z" fill="#EF4444"/>
</svg>
