<svg width="112" height="26" viewBox="0 0 112 26" fill="none" xmlns="http://www.w3.org/2000/svg">
<path d="M11.1321 1.43579C4.98707 1.43579 0 6.47378 0 12.6308C0 18.7819 4.98707 23.774 11.1321 23.774C17.2829 23.774 22.3159 18.7819 22.3159 12.6308C22.3159 6.47378 17.2829 1.43579 11.1321 1.43579ZM10.232 8.79778H9.45816V16.2457H10.232V16.6301H7.65246V16.2457H8.51229V9.18222L6.4028 16.7622H6.10474L3.90926 8.92397H3.86915V16.2457H4.76912V16.6301H2.83731V16.2457H3.5252V8.79778H2.83731V8.4075H4.72898L6.53467 14.9546L8.38046 8.4075H10.232V8.79778ZM17.8847 16.7621C17.3287 16.7621 16.383 16.59 15.8671 16.2458V16.6301H13.2417V16.2457H14.1016L13.5456 13.7898H11.608L10.9602 16.2457H11.866V16.6301L10.232 16.6301V16.2457H10.5762L12.6857 8.28123H13.3277L15.1792 16.2457L15.8671 16.2458L15.8669 14.1341H16.1249C16.251 15.5973 16.8529 16.458 17.9305 16.458C18.6585 16.458 19.3063 15.9014 19.2604 14.8226C19.1744 12.5848 15.907 13.4053 15.8211 10.5592C15.735 8.96983 16.8128 8.28123 17.7987 8.28123C18.3146 8.28123 19.1344 8.45336 19.6044 8.7518V10.5592H19.3063C19.1744 9.26818 18.5324 8.53945 17.7127 8.53945C17.1108 8.53945 16.4688 9.18214 16.509 10.0888C16.5548 12.1544 19.8624 11.2937 19.9483 14.3923C20.0343 16.1137 19.0884 16.7621 17.8847 16.7621Z" fill="white"/>
<path d="M11.6941 13.4053H13.4596L12.6398 9.87073L11.6941 13.4053Z" fill="white"/>
<path fill-rule="evenodd" clip-rule="evenodd" d="M27.5645 15.6112H27.0486V15.8236H28.4243V15.6112H27.7823V11.1355L29.3701 15.8694H29.502L31.0497 11.1355H31.0898V15.6112H30.402V15.8236H32.2937V15.6112H31.7376V11.0495H32.2937V10.8773H30.9638L29.886 14.0161L29.674 14.7907L29.4561 14.0619L28.3842 10.8773H27.0486V11.0495H27.5645V15.6112Z" fill="white"/>
<path fill-rule="evenodd" clip-rule="evenodd" d="M32.5518 14.102C32.5518 14.7906 32.8957 15.8694 33.9275 15.8694C35.0052 15.8694 35.3033 14.7906 35.3033 14.102C35.3033 13.4135 35.0052 12.3405 33.9275 12.3405C32.8957 12.3405 32.5518 13.4135 32.5518 14.102ZM33.2397 14.102C33.2397 13.3733 33.2397 12.5126 33.9275 12.5126C34.6154 12.5126 34.6612 13.3733 34.6612 14.102C34.6612 14.8365 34.6154 15.6972 33.9275 15.6972C33.2397 15.6972 33.2397 14.8365 33.2397 14.102Z" fill="white"/>
<path fill-rule="evenodd" clip-rule="evenodd" d="M35.561 15.6111V15.8235H37.1088V15.6111H36.6387V13.8439C36.6387 13.2012 36.9368 12.5987 37.4527 12.5987C37.8827 12.5987 37.9284 12.943 37.9284 13.3274V15.6111H37.4986V15.8235H39.0062V15.6111H38.5304V13.2873C38.5304 12.5987 38.2725 12.3405 37.6706 12.3405C37.1947 12.3405 36.8508 12.5987 36.6788 13.0692H36.6387V12.4265H35.561V12.5987H36.0369V15.6111H35.561Z" fill="white"/>
<path fill-rule="evenodd" clip-rule="evenodd" d="M41.8834 13.8897C41.8834 12.9831 41.4137 12.3405 40.5939 12.3405C39.7798 12.3405 39.2639 13.1553 39.2639 14.102C39.2639 15.0948 39.6078 15.8694 40.5079 15.8694C41.1959 15.8694 41.5396 15.6514 41.7976 14.8365L41.6255 14.7906C41.4538 15.2668 41.1959 15.6514 40.7257 15.6514C39.9518 15.6514 39.906 15.0086 39.906 14.016V13.8897H41.8834ZM39.906 13.7176C39.906 13.2873 40.0378 12.5126 40.5537 12.5126C41.1554 12.5126 41.1959 13.2012 41.1959 13.7176H39.906Z" fill="white"/>
<path fill-rule="evenodd" clip-rule="evenodd" d="M42.0557 12.5988H42.5315V15.0087C42.5315 15.4391 42.5715 15.8235 43.1736 15.8235C43.6494 15.8235 43.8616 15.6112 43.9932 15.221L43.8211 15.1809C43.7353 15.3932 43.6494 15.6112 43.4315 15.6112C43.1736 15.6112 43.1332 15.3932 43.1332 15.0087V12.5988H43.7753V12.4266H43.1332V11.4799H42.5315V12.4266H42.0557V12.5988Z" fill="white"/>
<path fill-rule="evenodd" clip-rule="evenodd" d="M45.7533 15.3529C45.8849 15.7833 46.097 15.8235 46.4008 15.8235H46.8708V15.6111C46.5271 15.6111 46.4008 15.6972 46.4008 15.1808V13.3274C46.4008 12.7708 46.1829 12.3405 45.2832 12.3405C44.8074 12.3405 44.1653 12.4667 44.1653 13.1553C44.1653 13.3733 44.2916 13.4135 44.4232 13.4135C44.5953 13.4135 44.7212 13.2873 44.7212 13.029C44.7212 12.5987 44.9791 12.5126 45.2832 12.5126C45.667 12.5126 45.7991 12.811 45.7991 13.2873V13.5856C45.0653 13.8439 43.9932 13.8439 43.9932 14.8767C43.9932 15.5251 44.2053 15.8694 44.8074 15.8694C45.197 15.8694 45.5411 15.7833 45.7533 15.3529ZM45.7991 13.7577V14.5783C45.7991 15.0488 45.5812 15.6514 45.0653 15.6514C44.7669 15.6514 44.6811 15.307 44.6811 14.8767C44.6811 14.1881 44.939 14.0619 45.2832 13.9299L45.7991 13.7577Z" fill="white"/>
<path fill-rule="evenodd" clip-rule="evenodd" d="M47.4328 15.6111H46.917V15.8235H48.5046V15.6111H48.0345V14.0619C48.0345 13.3274 48.3325 12.5987 48.6767 12.5987C48.7625 12.5987 48.8083 12.6847 48.8083 12.7708V13.1151C48.8083 13.3274 48.9346 13.3733 49.1067 13.3733C49.3246 13.3733 49.4104 13.2012 49.4104 12.943C49.4104 12.5528 49.1926 12.3405 48.8484 12.3405C48.3787 12.3405 48.1608 12.7708 48.0345 13.1553V12.4265H46.917V12.5987H47.4328V15.6111Z" fill="white"/>
<path fill-rule="evenodd" clip-rule="evenodd" d="M50.7 16.2137C50.5279 16.8564 50.3104 17.1146 50.1384 17.1146C49.9663 17.1146 49.9262 16.9425 49.9262 16.7703C49.9262 16.5982 49.8804 16.426 49.6683 16.426C49.4962 16.426 49.4103 16.558 49.4103 16.8162C49.4103 17.0744 49.6225 17.3728 49.9663 17.3728C50.74 17.3728 50.8263 16.2998 50.998 15.8235L52.0759 12.5529H52.5055V12.4266H51.3021V12.5529H51.858L51.2559 14.4464C51.1701 14.7047 51.13 14.9629 51.13 14.9629H51.0842C51.0842 14.9629 51.0842 14.7047 50.998 14.4464L50.3963 12.5529H50.9579V12.4266H49.2783V12.5529H49.7083L50.8263 15.8235L50.7 16.2137Z" fill="white"/>
<path fill-rule="evenodd" clip-rule="evenodd" d="M53.7093 15.6111H53.2393V15.8234H54.5694V15.6111H53.9272L54.3973 14.0618H55.5152L55.9448 15.6111H55.3431V15.8234H57.2349V15.6111H56.6786L55.2573 10.7911H55.0852L53.7093 15.6111ZM55.429 13.8438H54.3973L54.7872 12.5986L54.9131 11.9962H54.9589L55.0852 12.5986L55.429 13.8438Z" fill="white"/>
<path fill-rule="evenodd" clip-rule="evenodd" d="M59.1719 15.8234H60.2903V15.6112H59.774V12.4265H58.6565V12.5986H59.1719V14.4061C59.1719 15.0487 58.914 15.6513 58.3528 15.6513C57.9685 15.6513 57.8823 15.2668 57.8823 14.8767V12.4265H56.8506V12.5986H57.3207V14.9226C57.3207 15.6112 57.5786 15.8693 58.1807 15.8693C58.6565 15.8693 58.9998 15.6112 59.1719 15.1349V15.8234Z" fill="white"/>
<path fill-rule="evenodd" clip-rule="evenodd" d="M60.3762 12.5987H60.8463V15.0086C60.8463 15.439 60.8921 15.8235 61.5338 15.8235C61.9638 15.8235 62.1817 15.6111 62.308 15.2209L62.1817 15.1808C62.0501 15.3931 61.9638 15.6111 61.7517 15.6111C61.4938 15.6111 61.448 15.3931 61.448 15.0086V12.5987H62.0959V12.4265H61.448V11.4797H60.8463V12.4265H60.3762V12.5987Z" fill="white"/>
<path fill-rule="evenodd" clip-rule="evenodd" d="M62.2678 15.6112V15.8236H63.8554V15.6112H63.3854V13.8439C63.3854 13.2012 63.6433 12.5988 64.1996 12.5988C64.6296 12.5988 64.6754 12.943 64.6754 13.3274V15.6112H64.1996V15.8236H65.7472V15.6112H65.2771V13.2873C65.2771 12.5988 64.973 12.3405 64.4175 12.3405C63.9417 12.3405 63.5575 12.5988 63.3854 13.0693V10.8773H62.2678V11.0495H62.7837V15.6112H62.2678Z" fill="white"/>
<path fill-rule="evenodd" clip-rule="evenodd" d="M65.9651 14.102C65.9651 14.7906 66.3093 15.8694 67.3406 15.8694C68.3727 15.8694 68.7169 14.7906 68.7169 14.102C68.7169 13.4135 68.3727 12.3405 67.3406 12.3405C66.3093 12.3405 65.9651 13.4135 65.9651 14.102ZM66.653 14.102C66.653 13.3733 66.653 12.5126 67.3406 12.5126C68.0289 12.5126 68.0289 13.3733 68.0289 14.102C68.0289 14.8365 68.0289 15.6972 67.3406 15.6972C66.653 15.6972 66.653 14.8365 66.653 14.102Z" fill="white"/>
<path fill-rule="evenodd" clip-rule="evenodd" d="M69.4502 15.6111H68.9343V15.8235H70.5677V15.6111H70.0523V14.0619C70.0523 13.3274 70.396 12.5987 70.694 12.5987C70.7799 12.5987 70.8661 12.6847 70.8661 12.7708V13.1151C70.8661 13.3274 70.9977 13.3733 71.124 13.3733C71.3419 13.3733 71.4282 13.2012 71.4282 12.943C71.4282 12.5528 71.2103 12.3405 70.8661 12.3405C70.4361 12.3405 70.1786 12.7708 70.0523 13.1553V12.4265H68.9343V12.5987H69.4502V15.6111Z" fill="white"/>
<path fill-rule="evenodd" clip-rule="evenodd" d="M71.9841 15.6112H71.4683V15.8235H73.1017V15.6112H72.5858V12.4266H71.4683V12.5987H71.9841V15.6112ZM71.9441 11.3479C71.9441 11.5659 72.1161 11.738 72.2882 11.738C72.4996 11.738 72.6716 11.5659 72.6716 11.3479C72.6716 11.0896 72.4996 10.9175 72.2882 10.9175C72.0704 10.9175 71.9441 11.0896 71.9441 11.3479Z" fill="white"/>
<path fill-rule="evenodd" clip-rule="evenodd" d="M73.188 12.5987H73.6638V15.0086C73.6638 15.439 73.7038 15.8235 74.3513 15.8235C74.7813 15.8235 74.9935 15.6111 75.1255 15.2209L74.9534 15.1808C74.8672 15.3931 74.7813 15.6111 74.5635 15.6111C74.3055 15.6111 74.2651 15.3931 74.2651 15.0086V12.5987H74.9076V12.4265H74.2651V11.4797H73.6638V12.4265H73.188V12.5987Z" fill="white"/>
<path fill-rule="evenodd" clip-rule="evenodd" d="M76.1113 16.2136C75.9849 16.8563 75.7274 17.1145 75.5553 17.1145C75.3833 17.1145 75.3833 16.9424 75.3833 16.7702C75.3833 16.5981 75.3375 16.4259 75.1253 16.4259C74.9532 16.4259 74.8216 16.5579 74.8216 16.8161C74.8216 17.0743 75.0395 17.3727 75.3833 17.3727C76.157 17.3727 76.2429 16.2997 76.415 15.8234L77.4871 12.5528H77.9167V12.4265H76.7591V12.5528H77.315L76.7129 14.4463C76.6271 14.7045 76.5413 14.9627 76.5413 14.9627C76.5413 14.9627 76.5008 14.7045 76.415 14.4463L75.8129 12.5528H76.3692V12.4265H74.6953V12.5528H75.1654L76.2429 15.8234L76.1113 16.2136Z" fill="white"/>
<path fill-rule="evenodd" clip-rule="evenodd" d="M79.2285 14.1078C79.2285 14.7964 79.5727 15.8751 80.604 15.8751C81.6361 15.8751 81.986 14.7964 81.986 14.1078C81.986 13.4193 81.6361 12.3462 80.604 12.3462C79.5727 12.3462 79.2285 13.4193 79.2285 14.1078ZM79.9169 14.1078C79.9169 13.3791 79.9165 12.5184 80.604 12.5184C81.2923 12.5184 81.2923 13.3791 81.2923 14.1078C81.2923 14.8423 81.2923 15.703 80.604 15.703C79.9165 15.703 79.9169 14.8423 79.9169 14.1078Z" fill="white"/>
<path fill-rule="evenodd" clip-rule="evenodd" d="M82.7139 12.6044V15.6169H82.1985V15.8292H83.7918V15.6169H83.316V12.6044H83.8777V12.4322H83.316V11.6576C83.316 11.2273 83.3618 10.9633 83.6598 10.9633C83.9181 10.9633 84.004 11.0953 84.004 11.3994C84.004 11.6576 84.0898 11.7437 84.2615 11.7437C84.4336 11.7437 84.5194 11.6576 84.5194 11.4396C84.5194 10.9232 84.004 10.7911 83.6598 10.7911C83.1897 10.7911 82.7139 10.9633 82.7139 11.7437V12.4322H82.1985V12.6044H82.7139Z" fill="white"/>
<path fill-rule="evenodd" clip-rule="evenodd" d="M85.7694 15.571C86.1532 15.789 86.7549 15.8751 87.1449 15.8751C87.9587 15.8751 88.6066 15.5308 88.6066 14.4521C88.6066 12.6044 86.3249 13.1209 86.3249 11.87C86.3249 11.3134 86.8011 10.9633 87.1854 10.9633C87.7466 10.9633 88.1766 11.3535 88.2624 12.1741H88.4345L88.3887 11.0494C88.0908 10.8772 87.6154 10.7911 87.2712 10.7911C86.5833 10.7911 85.8548 11.1813 85.8548 12.1281C85.8548 13.8495 88.1308 13.379 88.1308 14.7102C88.1308 15.3988 87.6612 15.703 87.1854 15.703C86.4112 15.703 85.9812 15.1865 85.8949 14.3258H85.7236L85.7694 15.571Z" fill="white"/>
<path fill-rule="evenodd" clip-rule="evenodd" d="M89.421 15.6169H88.9048V15.8292H90.4985V15.6169H90.0223V12.4323H88.9048V12.6044H89.421V15.6169ZM89.3348 11.3536C89.3348 11.5716 89.5069 11.7437 89.7243 11.7437C89.8964 11.7437 90.0685 11.5716 90.0685 11.3536C90.0685 11.0953 89.8964 10.9232 89.7243 10.9232C89.5069 10.9232 89.3348 11.0495 89.3348 11.3536Z" fill="white"/>
<path fill-rule="evenodd" clip-rule="evenodd" d="M90.5842 15.6169V15.8292H92.1318V15.6169H91.7018V13.8496C91.7018 13.2069 91.9597 12.6044 92.516 12.6044C92.906 12.6044 92.9922 12.9487 92.9922 13.3332V15.6169H92.516V15.8292H94.0636V15.6169H93.5935V13.293C93.5935 12.6044 93.2902 12.3462 92.7339 12.3462C92.218 12.3462 91.8739 12.6044 91.7018 13.075V12.4323H90.5842V12.6044H91.1005V15.6169H90.5842Z" fill="white"/>
<path fill-rule="evenodd" clip-rule="evenodd" d="M95.4854 12.3462C95.0101 12.3462 94.54 12.7307 94.54 13.3791C94.54 13.6775 94.58 13.8496 94.7121 14.1078C94.4537 14.2398 94.1958 14.498 94.1958 14.8825C94.1958 15.2726 94.4537 15.6169 94.7979 15.703C94.4942 15.7431 94.2359 15.9612 94.2359 16.3457C94.2359 17.1662 95.0955 17.3383 95.6117 17.3383C96.2196 17.3383 96.9929 17.0342 96.9929 16.0874C96.9929 15.3128 96.5633 15.0144 96.0017 15.0144H94.97C94.6258 15.0144 94.4537 14.9685 94.4537 14.7103C94.4537 14.498 94.7121 14.2799 94.8837 14.2799C95.0554 14.4119 95.3134 14.498 95.5713 14.498C96.0875 14.498 96.5633 14.0676 96.5633 13.3791C96.5633 13.1611 96.5176 12.9889 96.3912 12.7766C96.3912 12.6905 96.5176 12.6044 96.5633 12.6044C96.7755 12.6044 96.6034 13.0348 96.9075 13.0348C97.033 13.0348 97.1192 12.9028 97.1192 12.7307C97.1192 12.4725 96.9075 12.3462 96.7354 12.3462C96.5176 12.3462 96.3913 12.4725 96.3054 12.6044C96.0875 12.3864 95.7834 12.3462 95.4854 12.3462ZM95.0955 13.3332C95.0955 12.9028 95.1413 12.5184 95.5713 12.5184C96.0017 12.5184 96.0017 13.0348 96.0017 13.4651C96.0017 13.8095 95.9555 14.3258 95.5255 14.3258C95.0955 14.3258 95.0955 13.7234 95.0955 13.3332ZM95.9155 15.703C96.4775 15.703 96.7755 15.789 96.7755 16.2596C96.7755 16.776 96.3054 17.1662 95.6575 17.1662C95.0554 17.1662 94.6659 16.9481 94.6659 16.3916C94.6659 15.7431 95.0955 15.703 95.9155 15.703Z" fill="white"/>
<path fill-rule="evenodd" clip-rule="evenodd" d="M99.0562 15.3587C99.1825 15.789 99.4004 15.8292 99.6984 15.8292H100.175V15.6169C99.8304 15.6169 99.6984 15.703 99.6984 15.1866V13.3332C99.6984 12.7766 99.4862 12.3462 98.5808 12.3462C98.1107 12.3462 97.4629 12.4725 97.4629 13.1611C97.4629 13.3791 97.5949 13.4193 97.7208 13.4193C97.8929 13.4193 98.0249 13.293 98.0249 13.0348C98.0249 12.6044 98.2828 12.5184 98.5808 12.5184C98.9704 12.5184 99.0967 12.8168 99.0967 13.293V13.5914C98.3687 13.8496 97.2908 13.8496 97.2908 14.8825C97.2908 15.5308 97.5086 15.8751 98.1107 15.8751C98.495 15.8751 98.8392 15.789 99.0562 15.3587ZM99.0967 13.7635V14.5841C99.0967 15.0546 98.8849 15.6571 98.3687 15.6571C98.0249 15.6571 97.9787 15.3128 97.9787 14.8825C97.9787 14.1939 98.2371 14.0676 98.5808 13.9357L99.0967 13.7635Z" fill="white"/>
<path fill-rule="evenodd" clip-rule="evenodd" d="M100.215 17.3383H101.848V17.1662H101.332V15.3989C101.464 15.7432 101.762 15.8751 102.106 15.8751C103.012 15.8751 103.396 15.0546 103.396 14.1078C103.396 12.8627 102.84 12.3462 102.192 12.3462C101.808 12.3462 101.55 12.4725 101.332 12.9028V12.4323H100.26V12.6044H100.731V17.1662H100.215V17.3383ZM101.332 13.8095C101.332 12.7766 101.762 12.5585 102.02 12.5585C102.582 12.5585 102.754 13.2471 102.754 14.1078C102.754 15.1005 102.496 15.6571 102.02 15.6571C101.418 15.6571 101.332 14.9685 101.332 14.366V13.8095Z" fill="white"/>
<path fill-rule="evenodd" clip-rule="evenodd" d="M103.826 14.1078C103.826 14.7964 104.13 15.8751 105.202 15.8751C106.234 15.8751 106.577 14.7964 106.577 14.1078C106.577 13.4193 106.234 12.3462 105.202 12.3462C104.13 12.3462 103.826 13.4193 103.826 14.1078ZM104.514 14.1078C104.514 13.3791 104.514 12.5184 105.202 12.5184C105.89 12.5184 105.89 13.3791 105.89 14.1078C105.89 14.8423 105.89 15.703 105.202 15.703C104.514 15.703 104.514 14.8423 104.514 14.1078Z" fill="white"/>
<path fill-rule="evenodd" clip-rule="evenodd" d="M107.311 15.6169H106.795V15.8292H108.383V15.6169H107.913V14.0676C107.913 13.3332 108.257 12.6044 108.555 12.6044C108.641 12.6044 108.687 12.6905 108.687 12.7766V13.1209C108.687 13.3332 108.813 13.3791 108.985 13.3791C109.203 13.3791 109.289 13.2069 109.289 12.9487C109.289 12.5585 109.071 12.3462 108.727 12.3462C108.297 12.3462 108.039 12.7766 107.913 13.1611V12.4323H106.795V12.6044H107.311V15.6169Z" fill="white"/>
<path fill-rule="evenodd" clip-rule="evenodd" d="M112 13.8955C112 12.9889 111.57 12.3462 110.75 12.3462C109.891 12.3462 109.375 13.1611 109.375 14.1078C109.375 15.1005 109.719 15.8751 110.665 15.8751C111.313 15.8751 111.657 15.6571 111.914 14.8423L111.743 14.7964C111.611 15.2726 111.353 15.6571 110.837 15.6571C110.063 15.6571 110.063 15.0144 110.063 14.0217V13.8955H112ZM110.063 13.7234C110.063 13.293 110.189 12.5184 110.665 12.5184C111.267 12.5184 111.313 13.2069 111.313 13.7234H110.063Z" fill="white"/>
</svg>
