<svg width="112" height="42" viewBox="0 0 112 42" fill="none" xmlns="http://www.w3.org/2000/svg">
<path d="M31.3286 25.3581C29.2631 25.3581 27.9831 23.5043 27.9831 20.9394C27.9831 18.4 29.0603 16.508 31.3159 16.508C32.7984 16.508 33.7742 17.4604 33.9518 18.7173H37.3987C37.221 17.1556 36.5242 15.7843 35.3077 14.8701C34.3192 14.1082 32.9506 13.6384 31.3286 13.6384C27.1721 13.6384 24.4729 16.7874 24.4729 20.9394C24.4729 25.1168 27.2608 28.1769 31.354 28.1769C33.318 28.1769 34.75 27.6309 35.8145 26.5897C36.7648 25.6756 37.3987 24.4058 37.4872 23.0218H34.0404C33.8885 24.3804 32.8745 25.3581 31.3286 25.3581Z" fill="white"/>
<path d="M43.8487 17.6127C40.6553 17.6127 38.5137 19.8982 38.5137 22.9075C38.5137 25.9168 40.6553 28.2023 43.8487 28.2023C47.0673 28.2023 49.171 25.9168 49.171 22.9075C49.171 19.8982 47.0673 17.6127 43.8487 17.6127ZM43.836 25.9294C42.4546 25.9294 41.7323 24.7232 41.7323 22.9075C41.7323 21.0917 42.4546 19.8601 43.836 19.8601C45.2173 19.8601 45.9648 21.0917 45.9648 22.9075C45.9524 24.7232 45.2173 25.9294 43.836 25.9294Z" fill="white"/>
<path d="M53.68 16.55C54.3579 15.8707 54.3579 14.7692 53.68 14.09C53.0018 13.4106 51.9027 13.4106 51.2248 14.09C50.5468 14.7692 50.5468 15.8707 51.2248 16.55C51.9027 17.2293 53.0018 17.2293 53.68 16.55Z" fill="white"/>
<path d="M49.6907 20.1268H51.0211V27.8849H54.1893V17.8794H49.6907V20.1268Z" fill="white"/>
<path d="M61.9826 17.5872C60.6016 17.5872 59.6382 18.1712 58.9034 19.2505H58.8401V17.8792H55.7861V27.872H58.9668V22.3487C58.9668 21.117 59.6637 20.2409 60.7155 20.2409C61.7546 20.2409 62.2742 20.9647 62.2742 22.0186V27.872H65.4549V21.371C65.4549 19.1489 64.1623 17.5872 61.9826 17.5872Z" fill="white"/>
<path d="M72.9064 13.9177H66.9634V27.8722H72.6915C74.4401 27.8722 75.8464 27.4278 76.9363 26.6024C78.4952 25.4089 79.3569 23.4408 79.3569 20.9775C79.3569 16.7111 76.7585 13.9177 72.9064 13.9177ZM72.4374 24.9772H70.4102V16.8128H72.4759C74.6424 16.8128 75.8716 18.4507 75.8716 20.9902C75.859 23.5424 74.6935 24.9772 72.4374 24.9772Z" fill="white"/>
<path d="M88.7713 18.9078C87.9103 18.1333 86.7819 17.6635 85.363 17.6635C82.3215 17.6635 80.2432 19.949 80.2432 22.9328C80.2432 25.9548 82.2711 28.2404 85.566 28.2404C86.833 28.2404 87.8466 27.9102 88.6831 27.3262C89.5574 26.7167 90.1405 25.8659 90.3561 24.9645H87.2635C86.9849 25.5866 86.4403 25.9548 85.6038 25.9548C84.2983 25.9548 83.5633 25.1168 83.3603 23.7709H90.5332C90.5458 21.7266 89.9627 19.9998 88.7713 18.9078ZM83.3736 21.8663C83.5885 20.6728 84.2094 19.9109 85.4134 19.9109C86.4403 19.9109 87.1879 20.6728 87.302 21.8663H83.3736Z" fill="white"/>
<path d="M96.7933 21.6251C95.5256 21.3966 94.3979 21.295 94.3979 20.5966C94.3979 19.9745 95.0062 19.6824 95.779 19.6824C96.654 19.6824 97.2623 19.9617 97.3764 20.8506H100.303C100.151 18.8825 98.6308 17.6509 95.8049 17.6509C93.4473 17.6509 91.4964 18.7428 91.4964 20.8506C91.4964 23.1996 93.3465 23.6567 95.0825 23.9487C96.4132 24.1773 97.6165 24.2789 97.6165 25.1804C97.6165 25.8279 97.0089 26.1708 96.0583 26.1708C95.0062 26.1708 94.3475 25.6883 94.2208 24.6852H91.2178C91.3186 26.8945 93.1435 28.2404 96.0709 28.2404C98.6812 28.2404 100.608 27.1104 100.608 24.9265C100.62 22.3743 98.5545 21.9172 96.7933 21.6251Z" fill="white"/>
<path d="M108.084 21.6377L111.595 17.8793H107.932L104.967 21.2569V13.9177H101.837V27.8848H104.967V24.8121L105.93 23.7963L108.325 27.8848H112L108.084 21.6377Z" fill="white"/>
<path d="M10.5082 21.8664C11.0402 21.8664 11.4714 21.4343 11.4714 20.9014C11.4714 20.3684 11.0402 19.9364 10.5082 19.9364C9.97637 19.9364 9.54517 20.3684 9.54517 20.9014C9.54517 21.4343 9.97637 21.8664 10.5082 21.8664Z" fill="white"/>
<path d="M18.1877 21.8664C18.7196 21.8664 19.1508 21.4343 19.1508 20.9014C19.1508 20.3684 18.7196 19.9364 18.1877 19.9364C17.6557 19.9364 17.2246 20.3684 17.2246 20.9014C17.2246 21.4343 17.6557 21.8664 18.1877 21.8664Z" fill="white"/>
<path d="M18.1877 29.5736C18.7196 29.5736 19.1508 29.1416 19.1508 28.6086C19.1508 28.0757 18.7196 27.6436 18.1877 27.6436C17.6557 27.6436 17.2246 28.0757 17.2246 28.6086C17.2246 29.1416 17.6557 29.5736 18.1877 29.5736Z" fill="white"/>
<path d="M21.0135 13.0163C20.9121 11.6068 19.7843 10.4641 18.3777 10.3625C17.4779 10.299 16.6669 10.6418 16.0967 11.2259C15.6659 11.6703 15.0829 11.9369 14.462 11.9369H14.2339C13.6003 11.9369 13.0047 11.6703 12.5611 11.2132C12.0416 10.68 11.3193 10.3625 10.5209 10.3625C9.72258 10.3625 9.00025 10.6926 8.48071 11.2132C8.03719 11.6703 7.44156 11.9369 6.80796 11.9369H6.59253C5.97161 11.9369 5.376 11.6957 4.94514 11.2513C4.85645 11.1625 4.76772 11.0736 4.67902 10.9973C3.60191 10.1212 2.01786 10.1466 0.978747 11.0736C-0.275806 12.1782 -0.326494 14.1082 0.839349 15.2764C0.852026 15.289 0.864696 15.3018 0.877366 15.3144C1.33357 15.7461 1.57434 16.3557 1.57434 16.9779V17.1937C1.57434 17.8286 1.30822 18.4253 0.852019 18.8697C0.319789 19.3903 0.00298347 20.1141 0.00298347 20.914C0.00298347 21.7139 0.332462 22.4377 0.852019 22.9583C1.30822 23.4027 1.57434 23.9995 1.57434 24.6343V24.9264C1.57434 25.5485 1.30822 26.1326 0.864696 26.5644C0.307118 27.1104 -0.035033 27.8848 0.00298347 28.7355C0.0663445 30.2338 1.28288 31.4401 2.76552 31.4909C3.62725 31.5163 4.40024 31.1734 4.94514 30.6021C5.376 30.1577 5.95891 29.8784 6.57986 29.8784H6.82063C7.44156 29.8784 8.02452 30.145 8.45537 30.6021C9.02559 31.1988 9.84928 31.5417 10.7491 31.4782C12.1556 31.3766 13.2961 30.2338 13.3975 28.8118C13.5115 27.123 12.1937 25.7263 10.5336 25.7263C9.74792 25.7263 9.02559 26.0437 8.50605 26.5644C8.06253 27.0087 7.4669 27.2754 6.84597 27.2754H6.57986C5.95891 27.2754 5.35066 27.0341 4.90713 26.577C4.89446 26.5644 4.89446 26.5644 4.88179 26.5516C4.42558 26.1072 4.15947 25.5104 4.15947 24.8756V24.6216C4.15947 23.9867 4.42558 23.39 4.88179 22.9456C5.41401 22.425 5.73084 21.7012 5.73084 20.9013C5.73084 20.1014 5.40134 19.3776 4.88179 18.857C4.42558 18.4126 4.15947 17.8158 4.15947 17.181V16.9524C4.15947 16.3175 4.42558 15.7208 4.86912 15.2764C4.88179 15.2637 4.88179 15.2637 4.89446 15.251C4.90713 15.2383 4.90713 15.2383 4.9198 15.2256C5.36333 14.7812 5.95891 14.5146 6.59253 14.5146H6.82063C7.45423 14.5146 8.04986 14.7812 8.49338 15.2383C9.01292 15.7715 9.73525 16.089 10.5336 16.089C11.332 16.089 12.0543 15.7589 12.5738 15.2383C13.0173 14.7812 13.613 14.5146 14.2465 14.5146H14.4493C15.0829 14.5146 15.6785 14.7812 16.122 15.2383C16.6416 15.7715 17.3639 16.089 18.1623 16.089C19.8097 16.1017 21.1275 14.705 21.0135 13.0163Z" fill="white"/>
</svg>
