<svg width="25" height="24" viewBox="0 0 25 24" fill="none" xmlns="http://www.w3.org/2000/svg">
<path d="M22.3377 12.3277C22.3383 11.6314 22.2765 10.9363 22.1531 10.251H12.5908V14.1784H18.055C17.8196 15.4475 17.1043 16.5228 16.029 17.2427V19.7902H19.3103C21.2301 18.0226 22.3377 15.4198 22.3377 12.3277Z" fill="#4285F4"/>
<path d="M12.5907 22.2503C15.332 22.2503 17.6302 21.3411 19.3101 19.7905L16.0289 17.243C15.1197 17.8522 13.9567 18.2122 12.5907 18.2122C9.94627 18.2122 7.708 16.4262 6.9096 14.0264H3.51758V16.6569C5.1882 19.9751 8.62175 22.2503 12.5907 22.2503Z" fill="#34A853"/>
<path d="M6.90943 14.0268C6.48485 12.7758 6.48485 11.4197 6.90943 10.1686V7.53809H3.51741C2.80729 8.95313 2.4375 10.5145 2.4375 12.0977C2.4375 13.6809 2.80729 15.2423 3.51741 16.6573L6.90943 14.0268Z" fill="#FBBC05"/>
<path d="M12.5907 5.98246C14.0813 5.98246 15.4197 6.49473 16.4719 7.50079L19.384 4.58873C17.6256 2.9504 15.3273 1.94434 12.5907 1.94434C8.62176 1.94434 5.1882 4.21954 3.51758 7.53771L6.90962 10.1683C7.70802 7.7685 9.94628 5.98248 12.5907 5.98248V5.98246Z" fill="#EA4335"/>
</svg>
