<svg width="48" height="48" viewBox="0 0 48 48" fill="none" xmlns="http://www.w3.org/2000/svg">
<path d="M22.0405 32.8328C21.6961 32.8326 21.3555 32.76 21.041 32.6196C20.7265 32.4795 20.4448 32.2746 20.2146 32.0187L18.596 30.2158L16.5839 32.3278C16.3187 32.5945 15.9598 32.7469 15.5838 32.7525C15.2077 32.7579 14.8445 32.6162 14.5716 32.3574C14.2988 32.0985 14.1379 31.7433 14.1236 31.3674C14.1093 30.9917 14.2425 30.6251 14.4949 30.3464L16.822 27.8926C17.3117 27.4174 17.9619 27.1434 18.644 27.1246C18.983 27.1304 19.317 27.2062 19.6253 27.3473C19.9337 27.4884 20.2094 27.6916 20.4354 27.9444L22.0348 29.7224L25.7077 25.387C25.9295 25.1251 26.2037 24.9126 26.5124 24.7632C26.8213 24.6136 27.1579 24.5305 27.501 24.5192C27.8451 24.5065 28.1878 24.5673 28.5067 24.6973C28.8254 24.8275 29.1128 25.0239 29.35 25.2737L32.5314 28.5665C32.7965 28.8415 32.9419 29.2105 32.935 29.5926C32.9283 29.9746 32.7699 30.3383 32.4949 30.6036C32.22 30.869 31.8508 31.0141 31.4687 31.0072C31.0868 31.0005 30.7231 30.8421 30.4578 30.5672L27.6008 27.6065L23.9183 31.9534C23.6906 32.222 23.4077 32.4388 23.0892 32.5887C22.7705 32.7389 22.4234 32.8187 22.0712 32.8232L22.0405 32.8328Z" fill="url(#paint0_linear_1149_21171)"/>
<path d="M31.2004 42.72H15.9248C14.7868 42.7 13.664 42.4554 12.6208 42.0002C11.5777 41.5451 10.6348 40.8883 9.84618 40.0677C9.05762 39.2469 8.43888 38.2785 8.02567 37.218C7.61247 36.1576 7.41298 35.0258 7.43844 33.888V13.7414C7.49625 11.4867 8.42903 9.34285 10.0394 7.76363C11.6498 6.18443 13.8114 5.29373 16.0668 5.28H26.9495C27.6738 5.28109 28.3905 5.42803 29.0569 5.71204C29.7232 5.99606 30.3255 6.41134 30.8279 6.93312L38.1047 14.5152C39.0688 15.5152 39.6058 16.851 39.6021 18.24V33.913C39.6258 36.1864 38.7608 38.3793 37.1914 40.0243C35.622 41.6692 33.4724 42.6365 31.2004 42.72ZM16.0726 8.16C14.5712 8.16488 13.1306 8.75366 12.0556 9.80181C10.9806 10.85 10.3555 12.2752 10.3126 13.776V33.913C10.2906 34.6731 10.4195 35.43 10.6916 36.1402C10.9636 36.8502 11.3735 37.4995 11.8978 38.0502C12.422 38.601 13.0502 39.0426 13.7459 39.3496C14.4417 39.6564 15.1914 39.8223 15.9516 39.8381H31.1369C32.6533 39.7693 34.0835 39.1135 35.1249 38.0091C36.1661 36.9047 36.7369 35.4384 36.7164 33.9206V18.24C36.7164 17.5959 36.4674 16.9767 36.0214 16.512L28.7426 8.928C28.5099 8.68545 28.2308 8.49239 27.9214 8.36043C27.6123 8.22845 27.2798 8.16029 26.9438 8.16H16.0668H16.0726Z" fill="url(#paint1_linear_1149_21171)"/>
<path d="M38.0397 18.7498H32.7808C31.0991 18.7421 29.4888 18.0693 28.3017 16.8781C27.1143 15.687 26.4469 14.0744 26.4448 12.3926V6.83999C26.4448 6.45809 26.5967 6.09181 26.8666 5.82176C27.1368 5.55169 27.5029 5.39999 27.8848 5.39999C28.2667 5.39999 28.633 5.55169 28.9032 5.82176C29.1731 6.09181 29.3248 6.45809 29.3248 6.83999V12.3926C29.3248 13.3112 29.6883 14.1924 30.3359 14.8439C30.9833 15.4954 31.8623 15.8642 32.7808 15.8698H38.0359C38.4178 15.8698 38.7841 16.0215 39.0542 16.2915C39.3242 16.5616 39.4759 16.9278 39.4759 17.3098C39.4759 17.6917 39.3242 18.0579 39.0542 18.328C38.7841 18.598 38.4178 18.7498 38.0359 18.7498H38.0397Z" fill="url(#paint2_linear_1149_21171)"/>
<path d="M18.2236 24.3873C19.2956 24.3873 20.1648 23.5181 20.1648 22.4462C20.1648 21.374 19.2956 20.505 18.2236 20.505C17.1515 20.505 16.2825 21.374 16.2825 22.4462C16.2825 23.5181 17.1515 24.3873 18.2236 24.3873Z" fill="url(#paint3_linear_1149_21171)"/>
<defs>
<linearGradient id="paint0_linear_1149_21171" x1="17.1882" y1="25.4041" x2="21.9471" y2="37.9703" gradientUnits="userSpaceOnUse">
<stop stop-color="#3C79FE"/>
<stop offset="1" stop-color="#7B1AD2"/>
</linearGradient>
<linearGradient id="paint1_linear_1149_21171" x1="12.678" y1="9.27197" x2="45.0252" y2="41.708" gradientUnits="userSpaceOnUse">
<stop stop-color="#3C79FE"/>
<stop offset="1" stop-color="#7B1AD2"/>
</linearGradient>
<linearGradient id="paint2_linear_1149_21171" x1="28.5683" y1="6.82339" x2="40.0049" y2="19.8528" gradientUnits="userSpaceOnUse">
<stop stop-color="#3C79FE"/>
<stop offset="1" stop-color="#7B1AD2"/>
</linearGradient>
<linearGradient id="paint3_linear_1149_21171" x1="16.9151" y1="20.919" x2="20.2296" y2="24.7875" gradientUnits="userSpaceOnUse">
<stop stop-color="#3C79FE"/>
<stop offset="1" stop-color="#7B1AD2"/>
</linearGradient>
</defs>
</svg>
