<svg width="25" height="24" viewBox="0 0 25 24" fill="none" xmlns="http://www.w3.org/2000/svg">
<path d="M21.5597 7.96484H2.8667V16.1499H21.5597V7.96484Z" fill="#0E083C"/>
<path d="M21.7531 16.3402H2.67334V7.77344H21.7531V16.3402ZM3.06018 15.9617H21.3663V8.15509H3.06018V15.9617Z" fill="#8386FC"/>
<path d="M10.1637 12.0898H3.5075C2.88069 12.0898 2.37256 12.5912 2.37256 13.2096V16.7265C2.37256 17.3449 2.88069 17.8462 3.5075 17.8462H10.1637C10.7905 17.8462 11.2986 17.3449 11.2986 16.7265V13.2096C11.2986 12.5912 10.7905 12.0898 10.1637 12.0898Z" fill="url(#paint0_linear_695_22482)"/>
<path d="M10.1641 18.0404H3.51111C3.15839 18.0404 2.8201 17.9021 2.57069 17.6561C2.32127 17.41 2.18115 17.0762 2.18115 16.7282V13.2113C2.18115 13.0392 2.21557 12.8687 2.28245 12.7097C2.34933 12.5507 2.44734 12.4062 2.57088 12.2846C2.69442 12.163 2.84106 12.0667 3.0024 12.0011C3.16374 11.9355 3.33661 11.9019 3.51111 11.9023H10.1641C10.5163 11.9023 10.8541 12.0402 11.1034 12.2855C11.3527 12.5309 11.4932 12.8639 11.4941 13.2113V16.7282C11.4932 17.076 11.3528 17.4092 11.1036 17.6551C10.8544 17.901 10.5166 18.0395 10.1641 18.0404ZM3.51111 12.284C3.26003 12.284 3.01894 12.381 2.83961 12.5544C2.66029 12.7278 2.55703 12.9637 2.55201 13.2113V16.7282C2.55201 16.9792 2.65305 17.2199 2.83292 17.3973C3.01279 17.5748 3.25674 17.6745 3.51111 17.6745H10.1641C10.4157 17.6703 10.6556 17.5688 10.832 17.3918C11.0084 17.2148 11.1073 16.9765 11.1072 16.7282V13.2113C11.1023 12.9664 11.0012 12.7328 10.8253 12.5599C10.6494 12.3869 10.4124 12.288 10.1641 12.284H3.51111Z" fill="#8386FC"/>
<path d="M20.775 12.0898H14.1188C13.492 12.0898 12.9839 12.5912 12.9839 13.2096V16.7265C12.9839 17.3449 13.492 17.8462 14.1188 17.8462H20.775C21.4018 17.8462 21.91 17.3449 21.91 16.7265V13.2096C21.91 12.5912 21.4018 12.0898 20.775 12.0898Z" fill="url(#paint1_linear_695_22482)"/>
<path d="M20.7754 18.0404H14.1224C13.77 18.0395 13.4322 17.901 13.1829 17.6551C12.9337 17.4092 12.7933 17.076 12.7925 16.7282V13.2113C12.7933 12.8639 12.9338 12.5309 13.1831 12.2855C13.4325 12.0402 13.7703 11.9023 14.1224 11.9023H20.7754C21.1276 11.9023 21.4654 12.0402 21.7147 12.2855C21.964 12.5309 22.1045 12.8639 22.1054 13.2113V16.7282C22.1045 17.076 21.9642 17.4092 21.7149 17.6551C21.4657 17.901 21.1279 18.0395 20.7754 18.0404ZM14.1224 12.284C13.8714 12.2839 13.6303 12.381 13.4509 12.5544C13.2716 12.7278 13.1684 12.9637 13.1633 13.2113V16.7282C13.1633 16.9792 13.2644 17.2199 13.4443 17.3973C13.6241 17.5748 13.8681 17.6745 14.1224 17.6745H20.7754C21.027 17.6703 21.2669 17.5688 21.4433 17.3918C21.6197 17.2148 21.7186 16.9765 21.7185 16.7282V13.2113C21.7136 12.9664 21.6126 12.7328 21.4367 12.5599C21.2608 12.3869 21.0237 12.288 20.7754 12.284H14.1224Z" fill="#8386FC"/>
<path d="M22.882 16.1484H1.53875C0.911937 16.1484 0.403809 16.6498 0.403809 17.2682V19.2332C0.403809 19.8516 0.911937 20.3529 1.53875 20.3529H22.882C23.5088 20.3529 24.017 19.8516 24.017 19.2332V17.2682C24.017 16.6498 23.5088 16.1484 22.882 16.1484Z" fill="#0E083C"/>
<path d="M22.8856 20.544H1.54236C1.18989 20.5431 0.852106 20.4046 0.602873 20.1587C0.35364 19.9128 0.213247 19.5796 0.212402 19.2318V17.2699C0.213249 16.9225 0.353744 16.5895 0.603068 16.3441C0.852392 16.0987 1.19019 15.9609 1.54236 15.9609H22.8856C23.0599 15.9609 23.2324 15.9948 23.3934 16.0606C23.5543 16.1264 23.7006 16.2228 23.8238 16.3443C23.947 16.4659 24.0447 16.6102 24.1114 16.769C24.1781 16.9278 24.2124 17.098 24.2124 17.2699V19.2318C24.2124 19.5793 24.0727 19.9125 23.824 20.1585C23.5753 20.4045 23.2378 20.5431 22.8856 20.544ZM1.54236 16.3394C1.29074 16.3394 1.04918 16.4369 0.869762 16.611C0.690348 16.7851 0.587451 17.0217 0.583257 17.2699V19.2318C0.583257 19.4828 0.684305 19.7235 0.864172 19.9009C1.04404 20.0784 1.28799 20.1781 1.54236 20.1781H22.8856C23.1367 20.1731 23.3757 20.0712 23.5515 19.8943C23.7272 19.7174 23.8256 19.4795 23.8256 19.2318V17.2699C23.8215 17.0249 23.7212 16.7911 23.5459 16.6175C23.3706 16.444 23.1339 16.3443 22.8856 16.3394H1.54236Z" fill="#8386FC"/>
<path d="M24.017 19.0156H0.403809V23.81H24.017V19.0156Z" fill="#0E083C"/>
<path d="M24.2124 24.0002H0.212402V18.8242H24.2124V24.0002ZM0.599243 23.6186H23.8256V19.2027H0.599243V23.6186Z" fill="#8386FC"/>
<path d="M2.021 16.1484L2.86501 20.8261L22.2613 16.1484H2.021Z" fill="#0E083C"/>
<path d="M2.86683 21.0171C2.82159 21.017 2.77784 21.0011 2.74332 20.9723C2.70881 20.9434 2.68575 20.9034 2.67821 20.8594L1.83419 16.1849C1.82963 16.1572 1.83097 16.1289 1.83812 16.1018C1.84528 16.0746 1.8581 16.0492 1.87575 16.0272C1.8939 16.0063 1.91647 15.9895 1.94187 15.9781C1.96727 15.9666 1.99489 15.9608 2.02282 15.961H22.2631C22.3105 15.9599 22.3566 15.9766 22.3922 16.0076C22.4277 16.0385 22.4501 16.0816 22.4549 16.1282C22.4603 16.1741 22.4488 16.2205 22.4224 16.2587C22.3959 16.2969 22.3564 16.3245 22.3111 16.3363L2.91478 21.014L2.86683 21.0171ZM2.2562 16.3395L3.02028 20.5945L20.6582 16.3395H2.2562Z" fill="#8386FC"/>
<path d="M22.9648 4.04688H1.4585V5.08775H22.9648V4.04688Z" fill="#0E083C"/>
<path d="M23.1603 5.27875H1.26709V3.85938H23.1603V5.27875ZM1.65393 4.89394H22.7766V4.24103H1.65393V4.89394Z" fill="#8386FC"/>
<path d="M8.17367 0.859375H3.11279V3.97885H8.17367V0.859375Z" fill="#0E083C"/>
<path d="M8.36413 4.1691H2.9292V0.667969H8.36413V4.1691ZM3.30645 3.78745H7.97729V1.04647H3.30645V3.78745Z" fill="#8386FC"/>
<path d="M7.40473 1.59375H3.87842V3.24969H7.40473V1.59375Z" fill="#0E083C"/>
<path d="M7.59697 3.43994H3.68701V1.40234H7.59697V3.43994ZM4.08025 3.05828H7.21652V1.79661H4.07385L4.08025 3.05828Z" fill="#8386FC"/>
<path d="M21.0311 0.621094H20.0815V3.97713H21.0311V0.621094Z" fill="#0E083C"/>
<path d="M21.2267 4.17054H19.8999V0.429688H21.2363L21.2267 4.17054ZM20.2676 3.78888H20.8302V0.811342H20.2676V3.78888Z" fill="#8386FC"/>
<path d="M16.9766 0.562763L16.2612 3.84375L17.1895 4.04076L17.9049 0.759771L16.9766 0.562763Z" fill="#0E083C"/>
<path d="M17.3422 4.26213L16.0347 3.98456L16.8339 0.332031L18.1383 0.609598L17.3422 4.26213ZM16.495 3.69438L17.0449 3.81108L17.6843 0.899782L17.1217 0.79254L16.495 3.69438Z" fill="#8386FC"/>
<path d="M19.0994 0.972656H18.1499V3.97858H19.0994V0.972656Z" fill="#0E083C"/>
<path d="M19.2949 4.17109H17.9585V0.792969H19.2949V4.17109ZM18.3357 3.78943H18.8984V1.16516H18.3357V3.78943Z" fill="#8386FC"/>
<path d="M20.0838 0.191406H19.1343V3.97641H20.0838V0.191406Z" fill="#0E083C"/>
<path d="M20.2753 4.16982H18.939V0H20.2721L20.2753 4.16982ZM19.3162 3.78816H19.8981V0.381655H19.3386L19.3162 3.78816Z" fill="#8386FC"/>
<defs>
<linearGradient id="paint0_linear_695_22482" x1="3.82711" y1="12.7036" x2="8.03763" y2="20.3239" gradientUnits="userSpaceOnUse">
<stop stop-color="#3C79FE"/>
<stop offset="1" stop-color="#7B1AD2"/>
</linearGradient>
<linearGradient id="paint1_linear_695_22482" x1="14.4384" y1="12.7036" x2="18.649" y2="20.3239" gradientUnits="userSpaceOnUse">
<stop stop-color="#3C79FE"/>
<stop offset="1" stop-color="#7B1AD2"/>
</linearGradient>
</defs>
</svg>
