<svg width="187" height="113" viewBox="0 0 187 113" fill="none" xmlns="http://www.w3.org/2000/svg">
<path d="M0.845459 81.3503L3.90263 83.0815L20.1461 73.7257L16.9785 71.884L0.845459 81.3503Z" fill="#210A6D"/>
<path d="M39.6646 57.3345L36.8652 58.9183C36.8652 58.9183 38.7437 60.9442 42.9796 63.3752C47.0681 65.6957 61.2857 74.9778 63.5694 74.6832C65.8531 74.3885 66.4424 73.0993 66.4424 73.0993C66.4424 73.0993 57.7129 69.1581 53.9191 66.6166C50.1252 64.075 39.7014 57.3345 39.7014 57.3345H39.6646Z" fill="#2D2A88"/>
<path d="M39.6672 57.3348C39.8882 57.5189 40.1092 57.6663 40.3302 57.8136L64.8613 71.9577C65.9294 72.5839 66.9607 72.6944 67.7342 72.2524C68.7288 71.6999 69.2812 70.3002 69.2812 68.4586V47.0582C69.2812 43.3748 66.9608 38.9179 64.1983 37.3341L39.6672 23.1899V21.7166C39.8882 21.8271 40.1092 21.9007 40.3302 22.0481L64.8613 36.1922C68.0289 38.0339 70.6072 42.8959 70.6072 47.095V68.4954C70.6072 70.8159 69.7969 72.6208 68.3973 73.4311C67.8816 73.7258 67.2922 73.8731 66.6661 73.8731C65.8926 73.8731 65.0454 73.6153 64.1983 73.1364L39.6672 58.9923V57.3716V57.3348Z" fill="#2D2A88"/>
<path d="M36.83 23.3004L39.6294 21.7166C39.6294 21.7166 59.3721 33.6138 62.0977 35.345C64.8602 37.0762 67.3281 38.4759 68.6541 42.3066C69.9432 46.1373 69.759 48.642 69.8695 53.5777C69.98 58.5134 70.1642 69.1584 69.8695 70.1529C69.5749 71.1106 68.3226 73.3943 68.3226 73.3943L65.5232 74.9781C65.5232 74.9781 66.5545 73.5416 66.8492 71.5526C67.1439 69.5636 67.0702 50.2627 66.8492 47.4265C66.6282 44.6271 64.7866 39.9861 61.5084 38.3286C58.2302 36.671 36.7932 23.2636 36.7932 23.2636L36.83 23.3004Z" fill="#2D2A88"/>
<path d="M36.8301 58.9185C37.0511 59.1027 37.2721 59.25 37.4931 59.3973L62.0241 73.5415C63.0923 74.1677 64.1236 74.2782 64.8971 73.8362C65.8916 73.2837 66.4441 71.884 66.4441 70.0423V48.6419C66.4441 44.9585 64.1236 40.5016 61.3611 38.9178L36.8301 24.7736V23.3003C37.0511 23.4108 37.2721 23.4845 37.4931 23.6318L62.0241 37.7759C65.1918 39.6176 67.7701 44.4797 67.7701 48.6787V70.0791C67.7701 72.3996 66.9598 74.2045 65.5601 75.0148C65.0444 75.3095 64.4551 75.4568 63.8289 75.4568C63.0554 75.4568 62.2083 75.199 61.3611 74.7202L36.8301 60.576V58.9553V58.9185Z" fill="#210A6D"/>
<path d="M5.92872 64.591C5.92872 64.4068 5.89189 64.1858 5.92872 64.0016V57.4084L16.9787 56.9664L38.1579 44.7376C39.7786 43.8168 42.6147 43.9273 44.4932 44.9954L62.0996 55.1616L71.7499 54.7932V62.0126C71.7499 62.5651 71.3816 63.1176 70.6817 63.5228L39.5207 81.4977C37.9001 82.4185 35.0639 82.308 33.1854 81.2398L7.47572 66.3958C6.59172 65.8802 6.11289 65.254 5.96556 64.6278L5.92872 64.591Z" fill="#4139B4"/>
<path d="M6.99695 55.5298L38.158 37.555C39.7786 36.6342 42.6148 36.7447 44.4933 37.8128L70.203 52.6568C72.0815 53.725 72.2656 55.3825 70.645 56.3034L39.484 74.2782C37.8633 75.1991 35.0271 75.0886 33.1486 74.0204L7.43894 59.1764C5.56044 58.1082 5.37628 56.4507 6.99695 55.5298Z" fill="#7269E6"/>
<path d="M36.8333 55.8983C36.8333 56.4508 37.5331 56.9296 38.4171 56.9296C39.3011 56.9296 40.0009 56.4876 40.0009 55.8983C40.0009 55.3089 39.3011 54.8669 38.4171 54.8669C37.5331 54.8669 36.8333 55.3089 36.8333 55.8983Z" fill="#4C49C1"/>
<path d="M50.7552 48.0158C50.7552 48.0158 47.7349 49.747 46.0037 50.8889C44.2725 52.0307 42.394 53.3199 42.394 53.3199C42.394 53.3199 43.1307 52.0307 45.709 50.0785C48.2874 48.1263 50.7552 47.979 50.7552 47.979V48.0158Z" fill="#4C49C1"/>
<path d="M33.9215 58.624C33.9215 58.624 30.9011 60.3552 29.17 61.497C27.4388 62.6389 25.5603 63.928 25.5603 63.928C25.5603 63.928 26.297 62.6389 28.8753 60.6867C31.4536 58.7345 33.9215 58.5872 33.9215 58.5872V58.624Z" fill="#4C49C1"/>
<path d="M35.2483 53.0621C35.2483 53.0621 33.0015 50.4837 30.7915 49.3787C28.5447 48.3105 26.5557 48.5683 26.5557 48.5683C26.5557 48.5683 29.0603 49.305 30.6073 50.1522C32.1175 50.9994 35.2852 53.0252 35.2852 53.0252L35.2483 53.0621Z" fill="#4C49C1"/>
<path d="M50.9395 62.4915C50.9395 62.4915 48.6927 59.9131 46.4827 58.8081C44.2358 57.7399 42.2468 57.9978 42.2468 57.9978C42.2468 57.9978 44.7515 58.7345 46.2985 59.5816C47.8087 60.4288 50.9763 62.4547 50.9763 62.4547L50.9395 62.4915Z" fill="#4C49C1"/>
<path d="M9.09608 19.2855L40.2571 1.31069C41.8778 0.389845 43.2038 1.38436 43.2038 3.52071V33.2087C43.2038 35.3819 41.8778 37.8866 40.2571 38.8443L9.09608 56.8191C7.47541 57.7399 6.14941 56.7454 6.14941 54.6091V24.9211C6.14941 22.7479 7.47541 20.2432 9.09608 19.2855Z" fill="#4139B4"/>
<path d="M48.1416 4.55191L42.3955 1.31055L7.47754 57.0768L13.1867 60.355L48.1416 4.55191Z" fill="#4139B4"/>
<path d="M15.1369 22.7479L46.2979 4.77309C47.9185 3.85225 49.2445 4.84675 49.2445 6.98311V36.6711C49.2445 38.8443 47.9185 41.349 46.2979 42.3066L15.1369 60.2815C13.5162 61.2024 12.1902 60.2078 12.1902 58.0715V28.3835C12.1902 26.2103 13.5162 23.7056 15.1369 22.7479Z" fill="#5653D3"/>
<path d="M29.686 33.0982C29.686 33.8349 30.128 34.2032 30.7174 33.8717C31.2699 33.5402 31.7487 32.6562 31.7487 31.9195C31.7487 31.1829 31.3067 30.8145 30.7174 31.146C30.1649 31.4775 29.686 32.3615 29.686 33.0982Z" fill="#222277"/>
<path d="M29.8333 20.0959C29.8333 20.0959 31.6749 22.8953 32.1169 24.8475C32.5589 26.7997 31.3434 29.0465 31.3434 29.0465C31.3434 29.0465 31.4539 27.1312 31.0119 25.0685C30.5699 23.0058 29.8333 20.0959 29.8333 20.0959Z" fill="#222277"/>
<path d="M30.7173 35.9712C30.7173 35.9712 32.0801 38.4759 32.1906 41.2752C32.3011 44.0746 31.012 45.8058 31.012 45.8058C31.012 45.8058 31.233 43.4116 31.012 40.87C30.791 38.3285 30.7173 35.9343 30.7173 35.9343V35.9712Z" fill="#222277"/>
<path d="M42.9106 25.2893C42.9106 25.2893 41.0689 27.9781 38.7852 29.0463C36.5016 30.1145 34.6599 30.2618 34.6599 30.2618C34.6599 30.2618 36.7226 29.0831 38.7852 27.7571C40.8479 26.468 42.9106 25.2524 42.9106 25.2524V25.2893Z" fill="#222277"/>
<path d="M27.3286 34.5715C27.3286 34.5715 24.4188 37.4814 22.0246 38.7706C19.6304 40.0598 17.7151 39.9493 17.7151 39.9493C17.7151 39.9493 20.2566 38.7337 22.5403 37.2604C25.5606 35.2714 27.3654 34.5715 27.3654 34.5715H27.3286Z" fill="#222277"/>
<path d="M3.67995 78.146L0.880615 79.7298C0.880615 79.7298 2.75912 81.7557 6.99495 84.1867C11.0835 86.5072 25.3011 95.7893 27.5848 95.4947C29.8685 95.2 30.4578 93.9108 30.4578 93.9108C30.4578 93.9108 21.7283 89.9696 17.9345 87.4281C14.1406 84.8866 3.71678 78.146 3.71678 78.146H3.67995Z" fill="#2D2A88"/>
<path d="M3.67995 78.1458C3.90095 78.33 4.12194 78.4773 4.34294 78.6247L28.874 92.7688C29.9421 93.395 30.9735 93.5055 31.747 93.0635C32.7415 92.511 33.294 91.1113 33.294 89.2696V67.8692C33.294 64.1858 30.9735 59.729 28.211 58.1451L3.67995 44.001L0.880615 44.1115L6.18461 41.1279V43.9273L28.874 57.0033C32.0416 58.845 34.62 63.707 34.62 67.906V89.3064C34.62 91.627 33.8096 93.4318 32.41 94.2422C31.8943 94.5368 31.305 94.6842 30.6788 94.6842C29.9053 94.6842 29.0581 94.4263 28.211 93.9475L3.67995 79.8033V78.1827V78.1458Z" fill="#2D2A88"/>
<path d="M0.845428 44.1114L3.64476 42.5276C3.64476 42.5276 23.3874 54.4249 26.1131 56.1561C28.8756 57.8873 31.3434 59.2869 32.6694 63.1176C33.9586 66.9483 33.7744 69.453 33.8849 74.3888C33.9954 79.3245 34.1796 89.9694 33.8849 90.9639C33.5903 91.9216 32.3379 94.2053 32.3379 94.2053L29.5386 95.7891C29.5386 95.7891 30.5699 94.3526 30.8646 92.3636C31.1593 90.3746 31.0856 71.0737 30.8646 68.2375C30.6436 65.4382 28.8019 60.7971 25.5238 59.1396C22.2456 57.4821 0.808594 44.0746 0.808594 44.0746L0.845428 44.1114Z" fill="#2D2A88"/>
<path d="M0.845459 79.7664C1.06646 79.9506 1.28746 80.0979 1.50846 80.2452L26.0395 94.3894C27.1076 95.0156 28.139 95.1261 28.9125 94.6841C29.907 94.1316 30.4595 92.7319 30.4595 90.8902V69.4898C30.4595 65.8064 28.139 61.3495 25.3765 59.7657L0.845459 45.6215V44.1482C1.06646 44.2587 1.28746 44.3324 1.50846 44.4797L26.0395 58.6238C29.2071 60.4655 31.7855 65.3276 31.7855 69.5266V90.927C31.7855 93.2475 30.9751 95.0524 29.5755 95.8627C29.0598 96.1574 28.4705 96.3047 27.8443 96.3047C27.0708 96.3047 26.2236 96.0469 25.3765 95.5681L0.845459 81.4239V79.8032V79.7664Z" fill="#210A6D"/>
<path d="M0.845459 79.7297L3.90263 81.4977L18.7465 72.9155L15.763 71.1475L0.845459 79.7297Z" fill="#2D2A88"/>
<path d="M186.485 81.3508L183.428 83.082L167.185 73.7262L170.389 71.8845L186.485 81.3508Z" fill="#210A6D"/>
<path d="M147.702 57.3347L150.501 58.9186C150.501 58.9186 148.623 60.9444 144.387 63.3754C140.298 65.696 126.081 74.9781 123.797 74.6834C121.513 74.3887 120.924 73.0995 120.924 73.0995C120.924 73.0995 129.653 69.1583 133.447 66.6168C137.241 64.0753 147.665 57.3347 147.665 57.3347H147.702Z" fill="#2D2A88"/>
<path d="M147.702 57.3348C147.481 57.5189 147.26 57.6663 147.039 57.8136L122.508 71.9577C121.44 72.5839 120.408 72.6944 119.635 72.2524C118.64 71.6999 118.088 70.3002 118.088 68.4586V47.0582C118.088 43.3748 120.408 38.9179 123.171 37.3341L147.702 23.1899V21.7166C147.481 21.8271 147.26 21.9007 147.039 22.0481L122.508 36.1922C119.34 38.0339 116.762 42.8959 116.762 47.095V68.4954C116.762 70.8159 117.572 72.6208 118.972 73.4311C119.487 73.7258 120.077 73.8731 120.703 73.8731C121.476 73.8731 122.324 73.6153 123.171 73.1364L147.702 58.9923V57.3716V57.3348Z" fill="#2D2A88"/>
<path d="M150.5 23.3004L147.701 21.7166C147.701 21.7166 127.958 33.6138 125.232 35.345C122.47 37.0762 120.002 38.4759 118.676 42.3066C117.387 46.1373 117.571 48.642 117.46 53.5777C117.35 58.5134 117.166 69.1584 117.46 70.1529C117.755 71.1106 119.007 73.3943 119.007 73.3943L121.807 74.9781C121.807 74.9781 120.775 73.5416 120.481 71.5526C120.186 69.5636 120.26 50.2627 120.481 47.4265C120.702 44.6271 122.543 39.9861 125.822 38.3286C129.1 36.671 150.537 23.2636 150.537 23.2636L150.5 23.3004Z" fill="#2D2A88"/>
<path d="M150.501 58.9185C150.28 59.1027 150.059 59.25 149.838 59.3973L125.307 73.5415C124.239 74.1677 123.208 74.2782 122.434 73.8362C121.44 73.2837 120.887 71.884 120.887 70.0423V48.6419C120.887 44.9585 123.208 40.5016 125.97 38.9178L150.501 24.7736V23.3003C150.28 23.4108 150.059 23.4845 149.838 23.6318L125.307 37.7759C122.139 39.6176 119.561 44.4797 119.561 48.6787V70.0791C119.561 72.3996 120.371 74.2045 121.771 75.0148C122.287 75.3095 122.876 75.4568 123.502 75.4568C124.276 75.4568 125.123 75.199 125.97 74.7202L150.501 60.576V58.9553V58.9185Z" fill="#210A6D"/>
<path d="M181.403 64.5915C181.403 64.4073 181.44 64.1863 181.403 64.0021V57.4089L170.353 56.9669L149.174 44.7381C147.553 43.8173 144.717 43.9278 142.838 44.9959L125.232 55.162L115.582 54.7937V62.0131C115.582 62.5656 115.95 63.1181 116.65 63.5233L147.811 81.4982C149.432 82.419 152.268 82.3085 154.146 81.2403L179.856 66.3963C180.74 65.8807 181.219 65.2545 181.366 64.6283L181.403 64.5915Z" fill="#4139B4"/>
<path d="M180.335 55.5303L149.174 37.5555C147.553 36.6346 144.717 36.7451 142.839 37.8133L117.129 52.6573C115.25 53.7255 115.066 55.383 116.687 56.3038L147.848 74.2787C149.469 75.1995 152.305 75.089 154.183 74.0209L179.893 59.1769C181.771 58.1087 181.956 56.4512 180.335 55.5303Z" fill="#7269E6"/>
<path d="M150.5 55.8988C150.5 56.4513 149.8 56.9301 148.916 56.9301C148.032 56.9301 147.332 56.4881 147.332 55.8988C147.332 55.3094 148.032 54.8674 148.916 54.8674C149.8 54.8674 150.5 55.3094 150.5 55.8988Z" fill="#4C49C1"/>
<path d="M136.577 48.0163C136.577 48.0163 139.597 49.7475 141.328 50.8894C143.06 52.0312 144.938 53.3204 144.938 53.3204C144.938 53.3204 144.201 52.0312 141.623 50.079C139.045 48.1268 136.577 47.9795 136.577 47.9795V48.0163Z" fill="#4C49C1"/>
<path d="M153.408 58.624C153.408 58.624 156.428 60.3552 158.159 61.497C159.891 62.6389 161.769 63.928 161.769 63.928C161.769 63.928 161.032 62.6389 158.454 60.6867C155.876 58.7345 153.408 58.5872 153.408 58.5872V58.624Z" fill="#4C49C1"/>
<path d="M152.085 53.0625C152.085 53.0625 154.332 50.4842 156.542 49.3792C158.789 48.311 160.778 48.5688 160.778 48.5688C160.778 48.5688 158.273 49.3055 156.726 50.1527C155.216 50.9999 152.048 53.0257 152.048 53.0257L152.085 53.0625Z" fill="#4C49C1"/>
<path d="M136.391 62.4922C136.391 62.4922 138.638 59.9139 140.848 58.8089C143.095 57.7407 145.084 57.9985 145.084 57.9985C145.084 57.9985 142.579 58.7352 141.032 59.5824C139.522 60.4295 136.354 62.4554 136.354 62.4554L136.391 62.4922Z" fill="#4C49C1"/>
<path d="M178.236 19.2855L147.075 1.31069C145.454 0.389845 144.128 1.38436 144.128 3.52071V33.2087C144.128 35.3819 145.454 37.8866 147.075 38.8443L178.236 56.8191C179.856 57.7399 181.183 56.7454 181.183 54.6091V24.9211C181.183 22.7479 179.856 20.2432 178.236 19.2855Z" fill="#4139B4"/>
<path d="M139.194 4.55216L144.94 1.31079L179.858 57.0771L174.149 60.3553L139.194 4.55216Z" fill="#4139B4"/>
<path d="M172.197 22.7479L141.036 4.77309C139.415 3.85225 138.089 4.84675 138.089 6.98311V36.6711C138.089 38.8443 139.415 41.349 141.036 42.3066L172.197 60.2815C173.817 61.2024 175.143 60.2078 175.143 58.0715V28.3835C175.143 26.2103 173.817 23.7056 172.197 22.7479Z" fill="#5653D3"/>
<path d="M157.647 33.0982C157.647 33.8349 157.205 34.2032 156.616 33.8717C156.064 33.5402 155.585 32.6562 155.585 31.9195C155.585 31.1829 156.027 30.8145 156.616 31.146C157.169 31.4775 157.647 32.3615 157.647 33.0982Z" fill="#222277"/>
<path d="M157.501 20.0962C157.501 20.0962 155.659 22.8956 155.217 24.8477C154.775 26.7999 155.991 29.0468 155.991 29.0468C155.991 29.0468 155.88 27.1314 156.322 25.0687C156.764 23.006 157.501 20.0962 157.501 20.0962Z" fill="#222277"/>
<path d="M156.615 35.9716C156.615 35.9716 155.252 38.4763 155.142 41.2757C155.031 44.0751 156.32 45.8063 156.32 45.8063C156.32 45.8063 156.099 43.4121 156.32 40.8705C156.541 38.329 156.615 35.9348 156.615 35.9348V35.9716Z" fill="#222277"/>
<path d="M144.423 25.2893C144.423 25.2893 146.265 27.9781 148.548 29.0463C150.832 30.1145 152.674 30.2618 152.674 30.2618C152.674 30.2618 150.611 29.0831 148.548 27.7571C146.486 26.468 144.423 25.2524 144.423 25.2524V25.2893Z" fill="#222277"/>
<path d="M160.006 34.5715C160.006 34.5715 162.916 37.4814 165.31 38.7706C167.704 40.0598 169.62 39.9493 169.62 39.9493C169.62 39.9493 167.078 38.7337 164.795 37.2604C161.774 35.2714 159.969 34.5715 159.969 34.5715H160.006Z" fill="#222277"/>
<path d="M183.65 78.146L186.45 79.7298C186.45 79.7298 184.571 81.7557 180.335 84.1867C176.247 86.5072 162.029 95.7893 159.746 95.4947C157.462 95.2 156.873 93.9108 156.873 93.9108C156.873 93.9108 165.602 89.9696 169.396 87.4281C173.19 84.8866 183.614 78.146 183.614 78.146H183.65Z" fill="#2D2A88"/>
<path d="M183.65 78.1461C183.429 78.3302 183.208 78.4776 182.987 78.6249L158.456 92.7691C157.388 93.3952 156.357 93.5057 155.583 93.0637C154.589 92.5112 154.036 91.1115 154.036 89.2698V67.8694C154.036 64.1861 156.357 59.7292 159.119 58.1453L183.65 44.0012L186.45 44.1117L181.146 41.1282V43.9275L158.456 57.0035C155.289 58.8452 152.71 63.7072 152.71 67.9063V89.3067C152.71 91.6272 153.521 93.4321 154.92 94.2424C155.436 94.5371 156.025 94.6844 156.652 94.6844C157.425 94.6844 158.272 94.4266 159.119 93.9477L183.65 79.8036V78.1829V78.1461Z" fill="#2D2A88"/>
<path d="M186.488 44.1112L183.689 42.5273C183.689 42.5273 163.946 54.4246 161.221 56.1558C158.458 57.887 155.99 59.2867 154.664 63.1174C153.375 66.9481 153.559 69.4528 153.449 74.3885C153.338 79.3242 153.154 89.9692 153.449 90.9637C153.743 91.9214 154.996 94.2051 154.996 94.2051L157.795 95.7889C157.795 95.7889 156.764 94.3524 156.469 92.3634C156.174 90.3743 156.248 71.0735 156.469 68.2373C156.69 65.4379 158.532 60.7969 161.81 59.1393C165.088 57.4818 186.525 44.0744 186.525 44.0744L186.488 44.1112Z" fill="#2D2A88"/>
<path d="M186.485 79.7669C186.264 79.9511 186.043 80.0984 185.822 80.2457L161.291 94.3899C160.223 95.016 159.191 95.1266 158.418 94.6846C157.423 94.132 156.871 92.7324 156.871 90.8907V69.4903C156.871 65.8069 159.191 61.35 161.954 59.7662L186.485 45.622V44.1487C186.264 44.2592 186.043 44.3329 185.822 44.4802L161.291 58.6243C158.123 60.466 155.545 65.3281 155.545 69.5271V90.9275C155.545 93.248 156.355 95.0529 157.755 95.8632C158.271 96.1579 158.86 96.3052 159.486 96.3052C160.26 96.3052 161.107 96.0474 161.954 95.5686L186.485 81.4244V79.8037V79.7669Z" fill="#210A6D"/>
<path d="M186.485 79.7302L183.428 81.4982L168.584 72.916L171.604 71.1479L186.485 79.7302Z" fill="#2D2A88"/>
<path d="M107.958 101.794C106.632 97.8893 100.922 94.9426 94.0346 94.9426C87.1467 94.9426 81.4007 97.8893 80.1116 101.794H79.8169V103.488C79.8169 108.203 86.1891 112.033 94.0346 112.033C101.88 112.033 108.252 108.203 108.252 103.488V101.794H107.958Z" fill="#210A6D"/>
<path d="M94.0346 93.2483C86.1891 93.2483 79.8169 97.079 79.8169 101.794C79.8169 106.508 86.1891 110.339 94.0346 110.339C101.88 110.339 108.252 106.508 108.252 101.794C108.252 97.079 101.88 93.2483 94.0346 93.2483Z" fill="#2D2A88"/>
<path d="M94.0345 95.5684C88.8042 95.5684 84.5684 98.1099 84.5684 101.241C84.5684 104.372 88.8042 106.913 94.0345 106.913C99.2649 106.913 103.501 104.372 103.501 101.241C103.501 98.1099 99.2649 95.5684 94.0345 95.5684Z" fill="#2D2A88"/>
<path d="M97.1284 53.0623L95.9497 100.651C95.9497 101.314 95.0657 101.83 93.9975 101.83C92.9294 101.83 92.0454 101.314 92.0454 100.651L90.8667 53.0623H97.0915H97.1284Z" fill="#210A6D"/>
<path d="M57.0154 45.5116H57.8257C61.3985 35.4928 76.2056 27.9419 93.9961 27.9419C111.787 27.9419 126.594 35.456 130.166 45.5116H130.977V50.0053C130.977 50.0053 130.977 50.079 130.977 50.1526C130.977 62.4183 114.402 72.3634 93.9961 72.3634C73.5904 72.3634 57.0154 62.4183 57.0154 50.1526C57.0154 50.1158 57.0154 50.079 57.0154 50.0053V45.5116Z" fill="#4139B4"/>
<path d="M94.0329 24.7004C73.5904 24.7004 57.0522 34.6455 57.0522 46.9112C57.0522 59.1768 73.6272 69.1219 94.0329 69.1219C114.439 69.1219 131.014 59.1768 131.014 46.9112C131.014 34.6455 114.439 24.7004 94.0329 24.7004Z" fill="#7269E6"/>
<path d="M75.8372 42.5645C81.9147 42.5645 86.8135 45.5112 86.8135 49.1577C86.8135 52.8042 81.9147 55.7509 75.8372 55.7509C69.7597 55.7509 64.8608 52.8042 64.8608 49.1577C64.8608 45.5112 69.7597 42.5645 75.8372 42.5645Z" fill="#F2ECEB"/>
<path d="M75.8372 42.0488C81.9147 42.0488 86.8135 44.9955 86.8135 48.6421C86.8135 52.2886 81.9147 55.2353 75.8372 55.2353C69.7597 55.2353 64.8608 52.2886 64.8608 48.6421C64.8608 44.9955 69.7597 42.0488 75.8372 42.0488Z" fill="white"/>
<path d="M75.8362 42.5642C81.4348 42.5642 86.0022 45.2899 86.0022 48.6418C86.0022 51.9936 81.4717 54.7193 75.8362 54.7193C70.2007 54.7193 65.6702 51.9936 65.6702 48.6418C65.6702 45.2899 70.2007 42.5642 75.8362 42.5642Z" fill="#F2ECEB"/>
<path d="M75.8385 46.5425C78.5274 46.5425 80.7374 47.8685 80.7374 49.4892C80.7374 51.1099 78.5274 52.4359 75.8385 52.4359C73.1497 52.4359 70.9397 51.1099 70.9397 49.4892C70.9397 47.8685 73.1497 46.5425 75.8385 46.5425Z" fill="#DDD3D3"/>
<path d="M75.9122 47.1323C77.7538 47.1323 79.2272 48.0163 79.2272 49.1213C79.2272 50.2264 77.717 51.1104 75.9122 51.1104C74.1073 51.1104 72.5972 50.2264 72.5972 49.1213C72.5972 48.0163 74.1073 47.1323 75.9122 47.1323Z" fill="#F9F7F7"/>
<path d="M68.252 42.6016C68.2888 46.8006 71.7143 50.1893 75.9133 50.1893C80.1123 50.1893 83.5378 46.8006 83.5746 42.6016H68.252Z" fill="#EADEDC"/>
<path d="M75.9133 37.887C80.1491 37.887 83.5746 39.9497 83.5746 42.4912C83.5746 45.0327 80.1491 47.0954 75.9133 47.0954C71.6775 47.0954 68.252 45.0327 68.252 42.4912C68.252 39.9497 71.6775 37.887 75.9133 37.887Z" fill="white"/>
<path d="M75.9125 40.3183C79.2275 40.3183 81.99 41.6443 82.8004 43.4492C82.9477 43.1177 83.0582 42.7493 83.0582 42.4178C83.0582 40.0973 79.8537 38.2556 75.9125 38.2556C71.9714 38.2556 68.7668 40.1341 68.7668 42.4178C68.7668 42.7862 68.8773 43.1177 69.0247 43.4492C69.835 41.6443 72.5975 40.3183 75.9125 40.3183Z" fill="#F2ECEB"/>
<path d="M75.9137 46.5803C79.2287 46.5803 81.9912 45.2543 82.8016 43.4495C81.9912 41.6446 79.2287 40.3186 75.9137 40.3186C72.5987 40.3186 69.8362 41.6446 69.0259 43.4495C69.8362 45.2543 72.5987 46.5803 75.9137 46.5803Z" fill="#5E3448"/>
<path d="M103.685 29.7097C109.762 29.7097 114.661 32.6564 114.661 36.303C114.661 39.9495 109.762 42.8962 103.685 42.8962C97.6071 42.8962 92.7083 39.9495 92.7083 36.303C92.7083 32.6564 97.6071 29.7097 103.685 29.7097Z" fill="#F2ECEB"/>
<path d="M103.685 29.231C109.762 29.231 114.661 32.1777 114.661 35.8242C114.661 39.4707 109.762 42.4174 103.685 42.4174C97.6071 42.4174 92.7083 39.4707 92.7083 35.8242C92.7083 32.1777 97.6071 29.231 103.685 29.231Z" fill="white"/>
<path d="M103.684 29.7095C109.282 29.7095 113.85 32.4352 113.85 35.787C113.85 39.1389 109.319 41.8646 103.684 41.8646C98.0481 41.8646 93.5176 39.1389 93.5176 35.787C93.5176 32.4352 98.0481 29.7095 103.684 29.7095Z" fill="#F2ECEB"/>
<path d="M103.686 33.6877C106.375 33.6877 108.585 35.0138 108.585 36.6344C108.585 38.2551 106.375 39.5811 103.686 39.5811C100.997 39.5811 98.7871 38.2551 98.7871 36.6344C98.7871 35.0138 100.997 33.6877 103.686 33.6877Z" fill="#DDD3D3"/>
<path d="M107.479 26.5054C107.479 26.5054 111.457 25.5109 112.23 27.8682C112.856 29.7836 112.378 32.8408 110.02 34.0931C108.547 34.9035 107.479 34.0931 107.479 34.0931V26.5054Z" fill="#DDD3D3"/>
<path d="M103.758 34.2773C105.6 34.2773 107.073 35.1614 107.073 36.2664C107.073 37.3714 105.563 38.2554 103.758 38.2554C101.953 38.2554 100.443 37.3714 100.443 36.2664C100.443 35.1614 101.953 34.2773 103.758 34.2773Z" fill="#F9F7F7"/>
<path d="M96.0977 29.7834C96.1345 33.9825 99.56 37.3712 103.759 37.3712C107.958 37.3712 111.383 33.9825 111.42 29.7834H96.0977Z" fill="#EADEDC"/>
<path d="M103.759 25.0688C107.995 25.0688 111.42 27.1315 111.42 29.6731C111.42 32.2146 107.995 34.2773 103.759 34.2773C99.5232 34.2773 96.0977 32.2146 96.0977 29.6731C96.0977 27.1315 99.5232 25.0688 103.759 25.0688Z" fill="white"/>
<path d="M103.758 27.4633C107.073 27.4633 109.835 28.7893 110.646 30.5942C110.793 30.2627 110.903 29.8944 110.903 29.5628C110.903 27.2423 107.699 25.4006 103.758 25.4006C99.8166 25.4006 96.6121 27.2792 96.6121 29.5628C96.6121 29.9312 96.7226 30.2627 96.8699 30.5942C97.6802 28.7893 100.443 27.4633 103.758 27.4633Z" fill="#F2ECEB"/>
<path d="M103.759 33.7254C107.074 33.7254 109.836 32.3993 110.647 30.5945C109.836 28.7896 107.074 27.4636 103.759 27.4636C100.444 27.4636 97.6814 28.7896 96.8711 30.5945C97.6814 32.3993 100.444 33.7254 103.759 33.7254Z" fill="#5E3448"/>
</svg>
