<svg width="18" height="14" viewBox="0 0 18 14" fill="none" xmlns="http://www.w3.org/2000/svg">
<path d="M17.51 2.03243C16.8991 2.29514 16.1943 2.47027 15.4895 2.55784C16.1943 2.16378 16.7582 1.50703 17.0401 0.762703C16.3823 1.11297 15.6304 1.37568 14.8316 1.55081C14.1738 0.937838 13.281 0.5 12.2942 0.5C10.3677 0.5 8.81704 1.94486 8.81704 3.74C8.81704 4.0027 8.86403 4.26541 8.91102 4.48432C5.95072 4.35297 3.36633 3.08324 1.67472 1.11297C1.3458 1.59459 1.20483 2.16378 1.20483 2.73297C1.20483 3.87135 1.81569 4.87838 2.75547 5.44757C2.1916 5.44757 1.62773 5.27243 1.15785 5.05351V5.0973C1.15785 6.67351 2.37956 7.98703 3.97718 8.29351C3.69525 8.38108 3.36633 8.42486 3.0374 8.42486C2.80246 8.42486 2.6145 8.42486 2.37956 8.38108C2.80246 9.69459 4.11815 10.6141 5.66878 10.6578C4.49406 11.5335 2.94343 12.0589 1.3458 12.0589C1.06387 12.0589 0.781934 12.0589 0.5 12.0151C2.05064 12.9346 3.8832 13.46 5.85674 13.46C12.2472 13.4162 15.7714 8.46865 15.7714 4.13405C15.7714 4.0027 15.7714 3.87135 15.7714 3.69622C16.4293 3.25838 17.0401 2.68919 17.51 2.03243Z" fill="#F5F6FF"/>
</svg>
