<svg width="20" height="14" viewBox="0 0 20 14" fill="none" xmlns="http://www.w3.org/2000/svg">
<path d="M18.9179 2.74124C18.7039 1.9459 18.0734 1.31954 17.2729 1.10698C15.8218 0.720703 10.0033 0.720703 10.0033 0.720703C10.0033 0.720703 4.18485 0.720703 2.73376 1.10698C1.93321 1.31954 1.30273 1.9459 1.08878 2.74124C0.699951 4.18278 0.699951 7.19046 0.699951 7.19046C0.699951 7.19046 0.699951 10.1981 1.08878 11.6397C1.30273 12.435 1.93321 13.0613 2.73376 13.2739C4.18485 13.6602 10.0033 13.6602 10.0033 13.6602C10.0033 13.6602 15.8218 13.6602 17.2729 13.2739C18.0734 13.0613 18.7039 12.435 18.9179 11.6397C19.3067 10.1981 19.3067 7.19046 19.3067 7.19046C19.3067 7.19046 19.3067 4.18278 18.9179 2.74124Z" fill="#F5F6FF"/>
<path d="M7.98999 9.61V4.75L12.85 7.18007L7.98999 9.61Z" fill="#171727"/>
</svg>
